<?xml version="1.0" encoding="utf-8" standalone="no"?>
<!DOCTYPE svg PUBLIC "-//W3C//DTD SVG 1.1//EN"
  "http://www.w3.org/Graphics/SVG/1.1/DTD/svg11.dtd">
<!-- Created with matplotlib (https://matplotlib.org/) -->
<svg height="288pt" version="1.1" viewBox="0 0 432 288" width="432pt" xmlns="http://www.w3.org/2000/svg" xmlns:xlink="http://www.w3.org/1999/xlink">
 <metadata>
  <rdf:RDF xmlns:cc="http://creativecommons.org/ns#" xmlns:dc="http://purl.org/dc/elements/1.1/" xmlns:rdf="http://www.w3.org/1999/02/22-rdf-syntax-ns#">
   <cc:Work>
    <dc:type rdf:resource="http://purl.org/dc/dcmitype/StillImage"/>
    <dc:date>2021-01-16T13:34:09.369938</dc:date>
    <dc:format>image/svg+xml</dc:format>
    <dc:creator>
     <cc:Agent>
      <dc:title>Matplotlib v3.3.2, https://matplotlib.org/</dc:title>
     </cc:Agent>
    </dc:creator>
   </cc:Work>
  </rdf:RDF>
 </metadata>
 <defs>
  <style type="text/css">*{stroke-linecap:butt;stroke-linejoin:round;}</style>
 </defs>
 <g id="figure_1">
  <g id="patch_1">
   <path d="M 0 288 
L 432 288 
L 432 0 
L 0 0 
z
" style="fill:none;"/>
  </g>
  <g id="axes_1">
   <g id="patch_2">
    <path d="M 223.406555 23.147609 
C 222.142577 23.068128 220.877428 23.008496 219.611576 22.968736 
C 218.345723 22.928976 217.079324 22.909092 215.812847 22.909092 
L 215.812847 143.783039 
L 223.406555 23.147609 
z
" style="fill:#008000;"/>
   </g>
   <g id="patch_3">
    <path d="M 215.812854 22.909092 
C 200.091338 22.909091 184.519625 25.973121 169.971323 31.929284 
C 155.423021 37.885446 142.17538 46.620233 130.971621 57.643604 
C 119.767863 68.666975 110.821498 81.768855 104.634439 96.214201 
C 98.44738 110.659547 95.137534 126.17307 94.89059 141.884428 
C 94.643647 157.595786 97.464312 173.205566 103.19434 187.838022 
C 108.924368 202.470479 117.454562 215.846761 128.306358 227.216428 
C 139.158154 238.586095 152.124747 247.732474 166.478684 254.142433 
C 180.832621 260.552392 196.300356 264.103775 212.014115 264.597342 
C 227.727874 265.090909 243.388197 262.517254 258.116505 257.020764 
C 272.844813 251.524275 286.360427 243.209698 297.905091 232.543501 
C 309.449755 221.877304 318.803459 209.062753 325.441442 194.818774 
C 332.079424 180.574794 335.875183 165.172836 336.615768 149.476983 
C 337.356353 133.78113 335.027651 118.090501 329.760307 103.285374 
C 324.492962 88.480247 316.387356 74.842766 305.898232 63.138025 
C 295.409107 51.433284 282.736356 41.88434 268.590949 35.026913 
C 254.445541 28.169485 239.097049 24.134255 223.406555 23.147609 
L 215.812847 143.783039 
L 215.812854 22.909092 
z
" style="fill:#ffffff;"/>
   </g>
   <g id="patch_4">
    <path clip-path="url(#pe60d814b8f)" d="M 215.812847 252.569591 
C 244.67847 252.569591 272.365717 241.107154 292.776795 220.706748 
C 313.187873 200.306342 324.656306 172.63357 324.656306 143.783039 
C 324.656306 114.932508 313.187873 87.259736 292.776795 66.85933 
C 272.365717 46.458924 244.67847 34.996487 215.812847 34.996487 
C 186.947224 34.996487 159.259977 46.458924 138.848899 66.85933 
C 118.437821 87.259736 106.969388 114.932508 106.969388 143.783039 
C 106.969388 172.63357 118.437821 200.306342 138.848899 220.706748 
C 159.259977 241.107154 186.947224 252.569591 215.812847 252.569591 
z
" style="fill:#ffffff;stroke:#ffffff;stroke-linejoin:miter;"/>
   </g>
   <g id="matplotlib.axis_1">
    <g id="text_1">
     <!-- 1 -->
     <g transform="translate(181.210938 178.184375)scale(1 -1)">
      <defs>
       <path d="M 11.71875 12.984375 
L 28.328125 12.984375 
L 28.328125 60.109375 
L 11.28125 56.59375 
L 11.28125 69.390625 
L 28.21875 72.90625 
L 46.09375 72.90625 
L 46.09375 12.984375 
L 62.703125 12.984375 
L 62.703125 0 
L 11.71875 0 
z
" id="DejaVuSans-Bold-49"/>
      </defs>
      <use xlink:href="#DejaVuSans-Bold-49"/>
     </g>
    </g>
   </g>
   <g id="matplotlib.axis_2"/>
  </g>
 </g>
 <defs>
  <clipPath id="pe60d814b8f">
   <rect height="266.4" width="410.4" x="10.8" y="10.8"/>
  </clipPath>
 </defs>
</svg>
