<?xml version="1.0" encoding="utf-8" standalone="no"?>
<!DOCTYPE svg PUBLIC "-//W3C//DTD SVG 1.1//EN"
  "http://www.w3.org/Graphics/SVG/1.1/DTD/svg11.dtd">
<!-- Created with matplotlib (https://matplotlib.org/) -->
<svg height="288pt" version="1.1" viewBox="0 0 432 288" width="432pt" xmlns="http://www.w3.org/2000/svg" xmlns:xlink="http://www.w3.org/1999/xlink">
 <metadata>
  <rdf:RDF xmlns:cc="http://creativecommons.org/ns#" xmlns:dc="http://purl.org/dc/elements/1.1/" xmlns:rdf="http://www.w3.org/1999/02/22-rdf-syntax-ns#">
   <cc:Work>
    <dc:type rdf:resource="http://purl.org/dc/dcmitype/StillImage"/>
    <dc:date>2021-01-16T13:34:10.982895</dc:date>
    <dc:format>image/svg+xml</dc:format>
    <dc:creator>
     <cc:Agent>
      <dc:title>Matplotlib v3.3.2, https://matplotlib.org/</dc:title>
     </cc:Agent>
    </dc:creator>
   </cc:Work>
  </rdf:RDF>
 </metadata>
 <defs>
  <style type="text/css">*{stroke-linecap:butt;stroke-linejoin:round;}</style>
 </defs>
 <g id="figure_1">
  <g id="patch_1">
   <path d="M 0 288 
L 432 288 
L 432 0 
L 0 0 
z
" style="fill:none;"/>
  </g>
  <g id="axes_1">
   <g id="patch_2">
    <path d="M 287.027779 45.990778 
C 276.762369 38.53642 265.386696 32.743255 253.318982 28.824267 
C 241.251268 24.905279 228.641237 22.909091 215.952492 22.909091 
L 215.952492 143.766369 
L 287.027779 45.990778 
z
" style="fill:#008000;"/>
   </g>
   <g id="patch_3">
    <path d="M 215.952475 22.909091 
C 201.669896 22.909093 187.499622 25.438262 174.09983 30.379123 
C 160.700039 35.319985 148.281456 42.594838 137.420899 51.865783 
C 126.560342 61.136728 117.428603 72.257969 110.449833 84.712948 
C 103.471063 97.167926 98.75501 110.760776 96.520723 124.860138 
C 94.286437 138.959499 94.569055 153.343646 97.355449 167.344465 
C 100.141843 181.345285 105.388195 194.742599 112.850824 206.914132 
C 120.313452 219.085665 129.874998 229.840007 141.09135 238.677641 
C 152.307702 247.515276 165.00247 254.297222 178.586011 258.708473 
C 192.169551 263.119724 206.428248 265.090909 220.699816 264.53047 
C 234.971383 263.970031 249.031387 260.886782 262.226769 255.423932 
C 275.422151 249.961083 287.545401 242.204542 298.03342 232.514585 
C 308.521439 222.824628 317.209292 211.35364 323.693447 198.634422 
C 330.177602 185.915204 334.356089 172.14778 336.034826 157.971617 
C 337.713563 143.795453 336.86615 129.433486 333.531948 115.552797 
C 330.197746 101.672107 324.429188 88.490985 316.494213 76.621663 
C 308.559237 64.752341 298.582628 54.381478 287.027779 45.990778 
L 215.952492 143.766369 
L 215.952475 22.909091 
z
" style="fill:#ffffff;"/>
   </g>
   <g id="patch_4">
    <path clip-path="url(#pbdadbe02fd)" d="M 215.952492 252.537919 
C 244.814134 252.537919 272.497564 241.077062 292.905827 220.67947 
C 313.314089 200.281877 324.780941 172.612921 324.780941 143.766369 
C 324.780941 114.919817 313.314089 87.250861 292.905827 66.853268 
C 272.497564 46.455675 244.814134 34.994819 215.952492 34.994819 
C 187.09085 34.994819 159.407421 46.455675 138.999158 66.853268 
C 118.590895 87.250861 107.124043 114.919817 107.124043 143.766369 
C 107.124043 172.612921 118.590895 200.281877 138.999158 220.67947 
C 159.407421 241.077062 187.09085 252.537919 215.952492 252.537919 
z
" style="fill:#ffffff;stroke:#ffffff;stroke-linejoin:miter;"/>
   </g>
   <g id="matplotlib.axis_1">
    <g id="text_1">
     <!-- 10 -->
     <g transform="translate(146.421875 178.184375)scale(1 -1)">
      <defs>
       <path d="M 11.71875 12.984375 
L 28.328125 12.984375 
L 28.328125 60.109375 
L 11.28125 56.59375 
L 11.28125 69.390625 
L 28.21875 72.90625 
L 46.09375 72.90625 
L 46.09375 12.984375 
L 62.703125 12.984375 
L 62.703125 0 
L 11.71875 0 
z
" id="DejaVuSans-Bold-49"/>
       <path d="M 46 36.53125 
Q 46 50.203125 43.4375 55.78125 
Q 40.875 61.375 34.8125 61.375 
Q 28.765625 61.375 26.171875 55.78125 
Q 23.578125 50.203125 23.578125 36.53125 
Q 23.578125 22.703125 26.171875 17.03125 
Q 28.765625 11.375 34.8125 11.375 
Q 40.828125 11.375 43.40625 17.03125 
Q 46 22.703125 46 36.53125 
z
M 64.796875 36.375 
Q 64.796875 18.265625 56.984375 8.421875 
Q 49.171875 -1.421875 34.8125 -1.421875 
Q 20.40625 -1.421875 12.59375 8.421875 
Q 4.78125 18.265625 4.78125 36.375 
Q 4.78125 54.546875 12.59375 64.375 
Q 20.40625 74.21875 34.8125 74.21875 
Q 49.171875 74.21875 56.984375 64.375 
Q 64.796875 54.546875 64.796875 36.375 
z
" id="DejaVuSans-Bold-48"/>
      </defs>
      <use xlink:href="#DejaVuSans-Bold-49"/>
      <use x="69.580078" xlink:href="#DejaVuSans-Bold-48"/>
     </g>
    </g>
   </g>
   <g id="matplotlib.axis_2"/>
  </g>
 </g>
 <defs>
  <clipPath id="pbdadbe02fd">
   <rect height="266.4" width="410.4" x="10.8" y="10.8"/>
  </clipPath>
 </defs>
</svg>
