<?xml version="1.0" encoding="utf-8" standalone="no"?>
<!DOCTYPE svg PUBLIC "-//W3C//DTD SVG 1.1//EN"
  "http://www.w3.org/Graphics/SVG/1.1/DTD/svg11.dtd">
<!-- Created with matplotlib (https://matplotlib.org/) -->
<svg height="288pt" version="1.1" viewBox="0 0 432 288" width="432pt" xmlns="http://www.w3.org/2000/svg" xmlns:xlink="http://www.w3.org/1999/xlink">
 <metadata>
  <rdf:RDF xmlns:cc="http://creativecommons.org/ns#" xmlns:dc="http://purl.org/dc/elements/1.1/" xmlns:rdf="http://www.w3.org/1999/02/22-rdf-syntax-ns#">
   <cc:Work>
    <dc:type rdf:resource="http://purl.org/dc/dcmitype/StillImage"/>
    <dc:date>2021-01-16T13:34:21.904689</dc:date>
    <dc:format>image/svg+xml</dc:format>
    <dc:creator>
     <cc:Agent>
      <dc:title>Matplotlib v3.3.2, https://matplotlib.org/</dc:title>
     </cc:Agent>
    </dc:creator>
   </cc:Work>
  </rdf:RDF>
 </metadata>
 <defs>
  <style type="text/css">*{stroke-linecap:butt;stroke-linejoin:round;}</style>
 </defs>
 <g id="figure_1">
  <g id="patch_1">
   <path d="M 0 288 
L 432 288 
L 432 0 
L 0 0 
z
" style="fill:none;"/>
  </g>
  <g id="axes_1">
   <g id="patch_2">
    <path d="M 337.154252 144 
C 337.154252 128.098488 334.020362 112.351597 327.931934 97.660515 
C 321.843505 82.969433 312.918942 69.619864 301.668993 58.375797 
C 290.419044 47.13173 277.062492 38.211833 262.363725 32.126588 
C 247.664958 26.041342 231.909831 22.909091 216 22.909091 
C 200.090169 22.909091 184.335042 26.041342 169.636275 32.126588 
C 154.937508 38.211833 141.580956 47.13173 130.331007 58.375797 
C 119.081058 69.619864 110.156495 82.969433 104.068066 97.660515 
C 97.979638 112.351597 94.845748 128.098488 94.845748 144 
C 94.845748 159.901512 97.979638 175.648403 104.068066 190.339485 
C 110.156495 205.030567 119.081058 218.380136 130.331007 229.624203 
C 141.580956 240.86827 154.937508 249.788167 169.636275 255.873412 
C 184.335042 261.958658 200.090169 265.090909 216 265.090909 
C 231.909831 265.090909 247.664958 261.958658 262.363725 255.873412 
C 277.062492 249.788167 290.419044 240.86827 301.668993 229.624203 
C 312.918942 218.380136 321.843505 205.030567 327.931934 190.339485 
C 334.020362 175.648403 337.154252 159.901512 337.154252 144 
M 216 144 
M 337.154252 144 
z
" style="fill:#ff0000;"/>
   </g>
   <g id="patch_3">
    <path d="M 216 22.909091 
C 216 22.909091 216 22.909091 216 22.909091 
L 216 144 
L 216 22.909091 
z
" style="fill:#ffffff;"/>
   </g>
   <g id="patch_4">
    <path clip-path="url(#p7131b9ca98)" d="M 216 252.981818 
C 244.917435 252.981818 272.65438 241.498806 293.102094 221.061783 
C 313.549808 200.624759 325.038827 172.902316 325.038827 144 
C 325.038827 115.097684 313.549808 87.375241 293.102094 66.938217 
C 272.65438 46.501194 244.917435 35.018182 216 35.018182 
C 187.082565 35.018182 159.34562 46.501194 138.897906 66.938217 
C 118.450192 87.375241 106.961173 115.097684 106.961173 144 
C 106.961173 172.902316 118.450192 200.624759 138.897906 221.061783 
C 159.34562 241.498806 187.082565 252.981818 216 252.981818 
z
" style="fill:#ffffff;stroke:#ffffff;stroke-linejoin:miter;"/>
   </g>
   <g id="matplotlib.axis_1">
    <g id="text_1">
     <!-- 100 -->
     <g transform="translate(111.632812 178.184375)scale(1 -1)">
      <defs>
       <path d="M 11.71875 12.984375 
L 28.328125 12.984375 
L 28.328125 60.109375 
L 11.28125 56.59375 
L 11.28125 69.390625 
L 28.21875 72.90625 
L 46.09375 72.90625 
L 46.09375 12.984375 
L 62.703125 12.984375 
L 62.703125 0 
L 11.71875 0 
z
" id="DejaVuSans-Bold-49"/>
       <path d="M 46 36.53125 
Q 46 50.203125 43.4375 55.78125 
Q 40.875 61.375 34.8125 61.375 
Q 28.765625 61.375 26.171875 55.78125 
Q 23.578125 50.203125 23.578125 36.53125 
Q 23.578125 22.703125 26.171875 17.03125 
Q 28.765625 11.375 34.8125 11.375 
Q 40.828125 11.375 43.40625 17.03125 
Q 46 22.703125 46 36.53125 
z
M 64.796875 36.375 
Q 64.796875 18.265625 56.984375 8.421875 
Q 49.171875 -1.421875 34.8125 -1.421875 
Q 20.40625 -1.421875 12.59375 8.421875 
Q 4.78125 18.265625 4.78125 36.375 
Q 4.78125 54.546875 12.59375 64.375 
Q 20.40625 74.21875 34.8125 74.21875 
Q 49.171875 74.21875 56.984375 64.375 
Q 64.796875 54.546875 64.796875 36.375 
z
" id="DejaVuSans-Bold-48"/>
      </defs>
      <use xlink:href="#DejaVuSans-Bold-49"/>
      <use x="69.580078" xlink:href="#DejaVuSans-Bold-48"/>
      <use x="139.160156" xlink:href="#DejaVuSans-Bold-48"/>
     </g>
    </g>
   </g>
   <g id="matplotlib.axis_2"/>
  </g>
 </g>
 <defs>
  <clipPath id="p7131b9ca98">
   <rect height="266.4" width="410.4" x="10.8" y="10.8"/>
  </clipPath>
 </defs>
</svg>
