<?xml version="1.0" encoding="utf-8" standalone="no"?>
<!DOCTYPE svg PUBLIC "-//W3C//DTD SVG 1.1//EN"
  "http://www.w3.org/Graphics/SVG/1.1/DTD/svg11.dtd">
<!-- Created with matplotlib (https://matplotlib.org/) -->
<svg height="288pt" version="1.1" viewBox="0 0 432 288" width="432pt" xmlns="http://www.w3.org/2000/svg" xmlns:xlink="http://www.w3.org/1999/xlink">
 <metadata>
  <rdf:RDF xmlns:cc="http://creativecommons.org/ns#" xmlns:dc="http://purl.org/dc/elements/1.1/" xmlns:rdf="http://www.w3.org/1999/02/22-rdf-syntax-ns#">
   <cc:Work>
    <dc:type rdf:resource="http://purl.org/dc/dcmitype/StillImage"/>
    <dc:date>2021-01-16T13:34:11.106331</dc:date>
    <dc:format>image/svg+xml</dc:format>
    <dc:creator>
     <cc:Agent>
      <dc:title>Matplotlib v3.3.2, https://matplotlib.org/</dc:title>
     </cc:Agent>
    </dc:creator>
   </cc:Work>
  </rdf:RDF>
 </metadata>
 <defs>
  <style type="text/css">*{stroke-linecap:butt;stroke-linejoin:round;}</style>
 </defs>
 <g id="figure_1">
  <g id="patch_1">
   <path d="M 0 288 
L 432 288 
L 432 0 
L 0 0 
z
" style="fill:none;"/>
  </g>
  <g id="axes_1">
   <g id="patch_2">
    <path d="M 293.196161 50.691586 
C 282.418651 41.780316 270.177749 34.801879 257.017232 30.066278 
C 243.856715 25.330678 229.974388 22.909091 215.986944 22.909091 
L 215.986944 143.972703 
L 293.196161 50.691586 
z
" style="fill:#008000;"/>
   </g>
   <g id="patch_3">
    <path d="M 215.986932 22.909091 
C 201.839742 22.909092 187.801317 25.386309 174.50942 30.228201 
C 161.217522 35.070094 148.876531 42.202213 138.047095 51.300547 
C 127.21766 60.398881 118.066294 71.323533 111.008744 83.578198 
C 103.951193 95.832862 99.095976 109.229111 96.663663 123.158354 
C 94.23135 137.087596 94.259342 151.335655 96.746366 165.255244 
C 99.233391 179.174832 104.141207 192.55192 111.246853 204.778789 
C 118.3525 217.005658 127.54672 227.894306 138.411821 236.950064 
C 149.276922 246.005821 161.645842 253.089446 174.956661 257.87913 
C 188.26748 262.668813 202.315531 265.090909 216.462612 265.035382 
C 230.609693 264.979854 244.638277 262.447558 257.911048 257.553534 
C 271.183819 252.659509 283.496693 245.479009 294.290298 236.338241 
C 305.083903 227.197473 314.192276 216.236987 321.201623 203.954716 
C 328.210971 191.672446 333.013517 178.257245 335.391084 164.318563 
C 337.76865 150.379881 337.684678 136.132042 335.142983 122.222322 
C 332.601288 108.312602 327.640951 94.95488 320.48732 82.755994 
C 313.333689 70.557108 304.096759 59.70463 293.196161 50.691586 
L 215.986944 143.972703 
L 215.986932 22.909091 
z
" style="fill:#ffffff;"/>
   </g>
   <g id="patch_4">
    <path clip-path="url(#p3c58cf9280)" d="M 215.986944 252.929954 
C 244.89786 252.929954 272.628552 241.449531 293.071657 221.017114 
C 313.514762 200.584697 325.001191 172.868504 325.001191 143.972703 
C 325.001191 115.076902 313.514762 87.360709 293.071657 66.928292 
C 272.628552 46.495875 244.89786 35.015452 215.986944 35.015452 
C 187.076027 35.015452 159.345335 46.495875 138.90223 66.928292 
C 118.459126 87.360709 106.972697 115.076902 106.972697 143.972703 
C 106.972697 172.868504 118.459126 200.584697 138.90223 221.017114 
C 159.345335 241.449531 187.076027 252.929954 215.986944 252.929954 
z
" style="fill:#ffffff;stroke:#ffffff;stroke-linejoin:miter;"/>
   </g>
   <g id="matplotlib.axis_1">
    <g id="text_1">
     <!-- 11 -->
     <g transform="translate(146.421875 178.184375)scale(1 -1)">
      <defs>
       <path d="M 11.71875 12.984375 
L 28.328125 12.984375 
L 28.328125 60.109375 
L 11.28125 56.59375 
L 11.28125 69.390625 
L 28.21875 72.90625 
L 46.09375 72.90625 
L 46.09375 12.984375 
L 62.703125 12.984375 
L 62.703125 0 
L 11.71875 0 
z
" id="DejaVuSans-Bold-49"/>
      </defs>
      <use xlink:href="#DejaVuSans-Bold-49"/>
      <use x="69.580078" xlink:href="#DejaVuSans-Bold-49"/>
     </g>
    </g>
   </g>
   <g id="matplotlib.axis_2"/>
  </g>
 </g>
 <defs>
  <clipPath id="p3c58cf9280">
   <rect height="266.4" width="410.4" x="10.8" y="10.8"/>
  </clipPath>
 </defs>
</svg>
