<?xml version="1.0" encoding="utf-8" standalone="no"?>
<!DOCTYPE svg PUBLIC "-//W3C//DTD SVG 1.1//EN"
  "http://www.w3.org/Graphics/SVG/1.1/DTD/svg11.dtd">
<!-- Created with matplotlib (https://matplotlib.org/) -->
<svg height="288pt" version="1.1" viewBox="0 0 432 288" width="432pt" xmlns="http://www.w3.org/2000/svg" xmlns:xlink="http://www.w3.org/1999/xlink">
 <metadata>
  <rdf:RDF xmlns:cc="http://creativecommons.org/ns#" xmlns:dc="http://purl.org/dc/elements/1.1/" xmlns:rdf="http://www.w3.org/1999/02/22-rdf-syntax-ns#">
   <cc:Work>
    <dc:type rdf:resource="http://purl.org/dc/dcmitype/StillImage"/>
    <dc:date>2021-01-16T13:34:11.212873</dc:date>
    <dc:format>image/svg+xml</dc:format>
    <dc:creator>
     <cc:Agent>
      <dc:title>Matplotlib v3.3.2, https://matplotlib.org/</dc:title>
     </cc:Agent>
    </dc:creator>
   </cc:Work>
  </rdf:RDF>
 </metadata>
 <defs>
  <style type="text/css">*{stroke-linecap:butt;stroke-linejoin:round;}</style>
 </defs>
 <g id="figure_1">
  <g id="patch_1">
   <path d="M 0 288 
L 432 288 
L 432 0 
L 0 0 
z
" style="fill:none;"/>
  </g>
  <g id="axes_1">
   <g id="patch_2">
    <path d="M 298.755548 55.677181 
C 287.641882 45.246211 274.654715 37.008613 260.479585 31.399217 
C 246.304455 25.78982 231.195245 22.909091 215.949505 22.909091 
L 215.949505 143.81056 
L 298.755548 55.677181 
z
" style="fill:#008000;"/>
   </g>
   <g id="patch_3">
    <path d="M 215.9495 22.909091 
C 201.980789 22.909092 188.117055 25.327436 174.974165 30.056695 
C 161.831274 34.785953 149.606767 41.755044 138.843691 50.65438 
C 128.080616 59.553716 118.940742 70.249539 111.830091 82.266709 
C 104.719439 94.283879 99.744884 107.441776 97.127409 121.155888 
C 94.509934 134.87 94.288881 148.934202 96.474069 162.723721 
C 98.659258 176.51324 103.217843 189.820816 109.947321 202.05529 
C 116.676799 214.289764 125.476024 225.267249 135.954108 234.500093 
C 146.432193 243.732936 158.43165 251.082368 171.419428 256.221904 
C 184.407206 261.36144 198.188098 264.213833 212.149915 264.652371 
C 226.111733 265.090909 240.044628 263.109001 253.32966 258.794688 
C 266.614693 254.480376 279.052187 247.898504 290.089633 239.341459 
C 301.12708 230.784414 310.598583 220.38081 318.083392 208.592804 
C 325.568201 196.804798 330.953817 183.809567 334.000997 170.184395 
C 337.048176 156.559224 337.711119 142.508902 335.960375 128.657585 
C 334.209631 114.806268 330.071515 101.362144 323.729853 88.922439 
C 317.388191 76.482735 308.9383 65.234421 298.755548 55.677181 
L 215.949505 143.81056 
L 215.9495 22.909091 
z
" style="fill:#ffffff;"/>
   </g>
   <g id="patch_4">
    <path clip-path="url(#pdda34cd1f1)" d="M 215.949505 252.621882 
C 244.8217 252.621882 272.515252 241.156834 292.930977 220.751783 
C 313.346702 200.346732 324.817747 172.66766 324.817747 143.81056 
C 324.817747 114.95346 313.346702 87.274387 292.930977 66.869336 
C 272.515252 46.464285 244.8217 34.999238 215.949505 34.999238 
C 187.07731 34.999238 159.383758 46.464285 138.968033 66.869336 
C 118.552308 87.274387 107.081264 114.95346 107.081264 143.81056 
C 107.081264 172.66766 118.552308 200.346732 138.968033 220.751783 
C 159.383758 241.156834 187.07731 252.621882 215.949505 252.621882 
z
" style="fill:#ffffff;stroke:#ffffff;stroke-linejoin:miter;"/>
   </g>
   <g id="matplotlib.axis_1">
    <g id="text_1">
     <!-- 12 -->
     <g transform="translate(146.421875 178.184375)scale(1 -1)">
      <defs>
       <path d="M 11.71875 12.984375 
L 28.328125 12.984375 
L 28.328125 60.109375 
L 11.28125 56.59375 
L 11.28125 69.390625 
L 28.21875 72.90625 
L 46.09375 72.90625 
L 46.09375 12.984375 
L 62.703125 12.984375 
L 62.703125 0 
L 11.71875 0 
z
" id="DejaVuSans-Bold-49"/>
       <path d="M 28.8125 13.8125 
L 60.890625 13.8125 
L 60.890625 0 
L 7.90625 0 
L 7.90625 13.8125 
L 34.515625 37.3125 
Q 38.09375 40.53125 39.796875 43.609375 
Q 41.5 46.6875 41.5 50 
Q 41.5 55.125 38.0625 58.25 
Q 34.625 61.375 28.90625 61.375 
Q 24.515625 61.375 19.28125 59.5 
Q 14.0625 57.625 8.109375 53.90625 
L 8.109375 69.921875 
Q 14.453125 72.015625 20.65625 73.109375 
Q 26.859375 74.21875 32.8125 74.21875 
Q 45.90625 74.21875 53.15625 68.453125 
Q 60.40625 62.703125 60.40625 52.390625 
Q 60.40625 46.4375 57.328125 41.28125 
Q 54.25 36.140625 44.390625 27.484375 
z
" id="DejaVuSans-Bold-50"/>
      </defs>
      <use xlink:href="#DejaVuSans-Bold-49"/>
      <use x="69.580078" xlink:href="#DejaVuSans-Bold-50"/>
     </g>
    </g>
   </g>
   <g id="matplotlib.axis_2"/>
  </g>
 </g>
 <defs>
  <clipPath id="pdda34cd1f1">
   <rect height="266.4" width="410.4" x="10.8" y="10.8"/>
  </clipPath>
 </defs>
</svg>
