<?xml version="1.0" encoding="utf-8" standalone="no"?>
<!DOCTYPE svg PUBLIC "-//W3C//DTD SVG 1.1//EN"
  "http://www.w3.org/Graphics/SVG/1.1/DTD/svg11.dtd">
<!-- Created with matplotlib (https://matplotlib.org/) -->
<svg height="288pt" version="1.1" viewBox="0 0 432 288" width="432pt" xmlns="http://www.w3.org/2000/svg" xmlns:xlink="http://www.w3.org/1999/xlink">
 <metadata>
  <rdf:RDF xmlns:cc="http://creativecommons.org/ns#" xmlns:dc="http://purl.org/dc/elements/1.1/" xmlns:rdf="http://www.w3.org/1999/02/22-rdf-syntax-ns#">
   <cc:Work>
    <dc:type rdf:resource="http://purl.org/dc/dcmitype/StillImage"/>
    <dc:date>2021-01-16T13:34:11.369463</dc:date>
    <dc:format>image/svg+xml</dc:format>
    <dc:creator>
     <cc:Agent>
      <dc:title>Matplotlib v3.3.2, https://matplotlib.org/</dc:title>
     </cc:Agent>
    </dc:creator>
   </cc:Work>
  </rdf:RDF>
 </metadata>
 <defs>
  <style type="text/css">*{stroke-linecap:butt;stroke-linejoin:round;}</style>
 </defs>
 <g id="figure_1">
  <g id="patch_1">
   <path d="M 0 288 
L 432 288 
L 432 0 
L 0 0 
z
" style="fill:none;"/>
  </g>
  <g id="axes_1">
   <g id="patch_2">
    <path d="M 304.11933 61.004937 
C 292.820162 48.978837 279.174351 39.393415 264.025848 32.8415 
C 248.877345 26.289585 232.545018 22.909091 216.038969 22.909091 
L 216.038969 143.674663 
L 304.11933 61.004937 
z
" style="fill:#008000;"/>
   </g>
   <g id="patch_3">
    <path d="M 216.038969 22.909091 
C 202.245286 22.909091 188.552906 25.269864 175.556447 29.88889 
C 162.559988 34.507916 150.450345 41.317349 139.753403 50.021476 
C 129.056461 58.725603 119.929339 69.196576 112.768401 80.979671 
C 105.607462 92.762767 100.517889 105.684913 97.720706 119.18494 
C 94.923522 132.684967 94.459814 146.564582 96.349719 160.221038 
C 98.239624 173.877493 102.455382 187.110198 108.813917 199.344498 
C 115.172451 211.578797 123.580365 222.63499 133.67253 232.03294 
C 143.764695 241.430891 155.392873 249.032558 168.052089 254.507826 
C 180.711305 259.983093 194.215617 263.251539 207.978574 264.171224 
C 221.74153 265.090909 235.560978 263.648325 248.83678 259.906119 
C 262.112582 256.163913 274.64974 250.177051 285.903804 242.205525 
C 297.157867 234.233999 306.963534 224.394896 314.894974 213.115499 
C 322.826413 201.836101 328.767127 189.282084 332.459127 175.99863 
C 336.151128 162.715175 337.540186 148.897394 336.565979 135.145351 
C 335.591773 121.393308 332.268611 107.908996 326.740808 95.277998 
C 321.213006 82.646999 313.561756 71.054842 304.11933 61.004937 
L 216.038969 143.674663 
L 216.038969 22.909091 
z
" style="fill:#ffffff;"/>
   </g>
   <g id="patch_4">
    <path clip-path="url(#p89741b40a1)" d="M 216.038969 252.363677 
C 244.878711 252.363677 272.541134 240.911517 292.933911 220.529402 
C 313.326688 200.147287 324.784839 172.499326 324.784839 143.674663 
C 324.784839 114.849999 313.326688 87.202039 292.933911 66.819923 
C 272.541134 46.437808 244.878711 34.985648 216.038969 34.985648 
C 187.199227 34.985648 159.536804 46.437808 139.144027 66.819923 
C 118.751249 87.202039 107.293099 114.849999 107.293099 143.674663 
C 107.293099 172.499326 118.751249 200.147287 139.144027 220.529402 
C 159.536804 240.911517 187.199227 252.363677 216.038969 252.363677 
z
" style="fill:#ffffff;stroke:#ffffff;stroke-linejoin:miter;"/>
   </g>
   <g id="matplotlib.axis_1">
    <g id="text_1">
     <!-- 13 -->
     <g transform="translate(146.421875 178.184375)scale(1 -1)">
      <defs>
       <path d="M 11.71875 12.984375 
L 28.328125 12.984375 
L 28.328125 60.109375 
L 11.28125 56.59375 
L 11.28125 69.390625 
L 28.21875 72.90625 
L 46.09375 72.90625 
L 46.09375 12.984375 
L 62.703125 12.984375 
L 62.703125 0 
L 11.71875 0 
z
" id="DejaVuSans-Bold-49"/>
       <path d="M 46.578125 39.3125 
Q 53.953125 37.40625 57.78125 32.6875 
Q 61.625 27.984375 61.625 20.703125 
Q 61.625 9.859375 53.3125 4.21875 
Q 45.015625 -1.421875 29.109375 -1.421875 
Q 23.484375 -1.421875 17.84375 -0.515625 
Q 12.203125 0.390625 6.6875 2.203125 
L 6.6875 16.703125 
Q 11.96875 14.0625 17.15625 12.71875 
Q 22.359375 11.375 27.390625 11.375 
Q 34.859375 11.375 38.84375 13.953125 
Q 42.828125 16.546875 42.828125 21.390625 
Q 42.828125 26.375 38.75 28.9375 
Q 34.671875 31.5 26.703125 31.5 
L 19.1875 31.5 
L 19.1875 43.609375 
L 27.09375 43.609375 
Q 34.1875 43.609375 37.640625 45.828125 
Q 41.109375 48.046875 41.109375 52.59375 
Q 41.109375 56.78125 37.734375 59.078125 
Q 34.375 61.375 28.21875 61.375 
Q 23.6875 61.375 19.046875 60.34375 
Q 14.40625 59.328125 9.8125 57.328125 
L 9.8125 71.09375 
Q 15.375 72.65625 20.84375 73.4375 
Q 26.3125 74.21875 31.59375 74.21875 
Q 45.796875 74.21875 52.84375 69.546875 
Q 59.90625 64.890625 59.90625 55.515625 
Q 59.90625 49.125 56.53125 45.046875 
Q 53.171875 40.96875 46.578125 39.3125 
z
" id="DejaVuSans-Bold-51"/>
      </defs>
      <use xlink:href="#DejaVuSans-Bold-49"/>
      <use x="69.580078" xlink:href="#DejaVuSans-Bold-51"/>
     </g>
    </g>
   </g>
   <g id="matplotlib.axis_2"/>
  </g>
 </g>
 <defs>
  <clipPath id="p89741b40a1">
   <rect height="266.4" width="410.4" x="10.8" y="10.8"/>
  </clipPath>
 </defs>
</svg>
