<?xml version="1.0" encoding="utf-8" standalone="no"?>
<!DOCTYPE svg PUBLIC "-//W3C//DTD SVG 1.1//EN"
  "http://www.w3.org/Graphics/SVG/1.1/DTD/svg11.dtd">
<!-- Created with matplotlib (https://matplotlib.org/) -->
<svg height="288pt" version="1.1" viewBox="0 0 432 288" width="432pt" xmlns="http://www.w3.org/2000/svg" xmlns:xlink="http://www.w3.org/1999/xlink">
 <metadata>
  <rdf:RDF xmlns:cc="http://creativecommons.org/ns#" xmlns:dc="http://purl.org/dc/elements/1.1/" xmlns:rdf="http://www.w3.org/1999/02/22-rdf-syntax-ns#">
   <cc:Work>
    <dc:type rdf:resource="http://purl.org/dc/dcmitype/StillImage"/>
    <dc:date>2021-01-16T13:34:11.477391</dc:date>
    <dc:format>image/svg+xml</dc:format>
    <dc:creator>
     <cc:Agent>
      <dc:title>Matplotlib v3.3.2, https://matplotlib.org/</dc:title>
     </cc:Agent>
    </dc:creator>
   </cc:Work>
  </rdf:RDF>
 </metadata>
 <defs>
  <style type="text/css">*{stroke-linecap:butt;stroke-linejoin:round;}</style>
 </defs>
 <g id="figure_1">
  <g id="patch_1">
   <path d="M 0 288 
L 432 288 
L 432 0 
L 0 0 
z
" style="fill:none;"/>
  </g>
  <g id="axes_1">
   <g id="patch_2">
    <path d="M 309.340888 66.676031 
C 298.009099 52.985413 283.791455 41.962843 267.705915 34.397521 
C 251.620376 26.832198 234.06023 22.909092 216.282756 22.909092 
L 216.282756 143.620162 
L 309.340888 66.676031 
z
" style="fill:#008000;"/>
   </g>
   <g id="patch_3">
    <path d="M 216.282767 22.909092 
C 202.654538 22.909091 189.124093 25.214609 176.265693 29.727796 
C 163.407292 34.240982 151.405458 40.897072 140.769573 49.413566 
C 130.133688 57.930061 121.01638 68.184745 113.804606 79.742391 
C 106.592833 91.300036 101.390085 103.994786 98.417178 117.287849 
C 95.444271 130.580913 94.743867 144.28153 96.345693 157.808219 
C 97.947518 171.334908 101.828587 184.493556 107.824178 196.725683 
C 113.819769 208.957811 121.843844 220.087882 131.555845 229.643515 
C 141.267845 239.199148 152.528401 247.043216 164.859591 252.842801 
C 177.190782 258.642385 190.415649 262.314261 203.972905 263.702585 
C 217.53016 265.090909 231.225252 264.175759 244.476932 260.995976 
C 257.728612 257.816193 270.346715 252.417408 281.795703 245.028755 
C 293.244691 237.640103 303.360266 228.367614 311.713105 217.60483 
C 320.065943 206.842047 326.536177 194.743419 330.849198 181.822437 
C 335.162219 168.901456 337.256133 155.34354 337.04207 141.724117 
C 336.828008 128.104693 334.30904 114.619205 329.592078 101.840003 
C 324.875115 89.060801 318.027848 77.171272 309.340888 66.676031 
L 216.282756 143.620162 
L 216.282767 22.909092 
z
" style="fill:#ffffff;"/>
   </g>
   <g id="patch_4">
    <path clip-path="url(#p1c88ca62ec)" d="M 216.282756 252.260125 
C 245.109482 252.260125 272.759421 240.813133 293.142995 220.440216 
C 313.526569 200.0673 324.979549 172.431817 324.979549 143.620162 
C 324.979549 114.808507 313.526569 87.173024 293.142995 66.800108 
C 272.759421 46.427191 245.109482 34.980199 216.282756 34.980199 
C 187.45603 34.980199 159.80609 46.427191 139.422517 66.800108 
C 119.038943 87.173024 107.585963 114.808507 107.585963 143.620162 
C 107.585963 172.431817 119.038943 200.0673 139.422517 220.440216 
C 159.80609 240.813133 187.45603 252.260125 216.282756 252.260125 
z
" style="fill:#ffffff;stroke:#ffffff;stroke-linejoin:miter;"/>
   </g>
   <g id="matplotlib.axis_1">
    <g id="text_1">
     <!-- 14 -->
     <g transform="translate(146.421875 178.184375)scale(1 -1)">
      <defs>
       <path d="M 11.71875 12.984375 
L 28.328125 12.984375 
L 28.328125 60.109375 
L 11.28125 56.59375 
L 11.28125 69.390625 
L 28.21875 72.90625 
L 46.09375 72.90625 
L 46.09375 12.984375 
L 62.703125 12.984375 
L 62.703125 0 
L 11.71875 0 
z
" id="DejaVuSans-Bold-49"/>
       <path d="M 36.8125 57.421875 
L 16.21875 26.90625 
L 36.8125 26.90625 
z
M 33.6875 72.90625 
L 54.59375 72.90625 
L 54.59375 26.90625 
L 64.984375 26.90625 
L 64.984375 13.28125 
L 54.59375 13.28125 
L 54.59375 0 
L 36.8125 0 
L 36.8125 13.28125 
L 4.5 13.28125 
L 4.5 29.390625 
z
" id="DejaVuSans-Bold-52"/>
      </defs>
      <use xlink:href="#DejaVuSans-Bold-49"/>
      <use x="69.580078" xlink:href="#DejaVuSans-Bold-52"/>
     </g>
    </g>
   </g>
   <g id="matplotlib.axis_2"/>
  </g>
 </g>
 <defs>
  <clipPath id="p1c88ca62ec">
   <rect height="266.4" width="410.4" x="10.8" y="10.8"/>
  </clipPath>
 </defs>
</svg>
