<?xml version="1.0" encoding="utf-8" standalone="no"?>
<!DOCTYPE svg PUBLIC "-//W3C//DTD SVG 1.1//EN"
  "http://www.w3.org/Graphics/SVG/1.1/DTD/svg11.dtd">
<!-- Created with matplotlib (https://matplotlib.org/) -->
<svg height="288pt" version="1.1" viewBox="0 0 432 288" width="432pt" xmlns="http://www.w3.org/2000/svg" xmlns:xlink="http://www.w3.org/1999/xlink">
 <metadata>
  <rdf:RDF xmlns:cc="http://creativecommons.org/ns#" xmlns:dc="http://purl.org/dc/elements/1.1/" xmlns:rdf="http://www.w3.org/1999/02/22-rdf-syntax-ns#">
   <cc:Work>
    <dc:type rdf:resource="http://purl.org/dc/dcmitype/StillImage"/>
    <dc:date>2021-01-16T13:34:11.599975</dc:date>
    <dc:format>image/svg+xml</dc:format>
    <dc:creator>
     <cc:Agent>
      <dc:title>Matplotlib v3.3.2, https://matplotlib.org/</dc:title>
     </cc:Agent>
    </dc:creator>
   </cc:Work>
  </rdf:RDF>
 </metadata>
 <defs>
  <style type="text/css">*{stroke-linecap:butt;stroke-linejoin:round;}</style>
 </defs>
 <g id="figure_1">
  <g id="patch_1">
   <path d="M 0 288 
L 432 288 
L 432 0 
L 0 0 
z
" style="fill:none;"/>
  </g>
  <g id="axes_1">
   <g id="patch_2">
    <path d="M 313.881537 72.678996 
C 302.676752 57.264996 287.979004 44.718495 270.993997 36.068726 
C 254.008991 27.418958 235.21423 22.909093 216.151511 22.909093 
L 216.151511 143.646887 
L 313.881537 72.678996 
z
" style="fill:#008000;"/>
   </g>
   <g id="patch_3">
    <path d="M 216.151534 22.909093 
C 202.679525 22.909091 189.30193 25.161556 176.573494 29.573083 
C 163.845058 33.984609 151.944187 40.493364 141.364389 48.829441 
C 130.784591 57.165518 121.674156 67.212074 114.410878 78.552499 
C 107.1476 89.892924 101.833283 102.368264 98.688303 115.461191 
C 95.543323 128.554118 94.611761 142.081115 95.932247 155.481243 
C 97.252733 168.881371 100.806759 181.966808 106.446945 194.194925 
C 112.087131 206.423042 119.734422 217.622445 129.0717 227.328715 
C 138.408978 237.034985 149.305367 245.112074 161.309015 251.225042 
C 173.312662 257.33801 186.255319 261.401173 199.600277 263.246041 
C 212.945236 265.090909 226.505448 264.691623 239.718596 262.064739 
C 252.931745 259.437856 265.612628 254.620196 277.235394 247.811538 
C 288.85816 241.00288 299.259899 232.298657 308.009269 222.059818 
C 316.75864 211.820978 323.733008 200.191035 328.643158 187.652258 
C 333.553309 175.113481 336.33042 161.841621 336.859329 148.387037 
C 337.388239 134.932453 335.661533 121.483729 331.750816 108.598561 
C 327.840099 95.713392 321.800184 83.572382 313.881537 72.678996 
L 216.151511 143.646887 
L 216.151534 22.909093 
z
" style="fill:#ffffff;"/>
   </g>
   <g id="patch_4">
    <path clip-path="url(#p0afca58de8)" d="M 216.151511 252.310901 
C 244.984619 252.310901 272.64068 240.861375 293.028766 220.483948 
C 313.416852 200.106521 324.872368 172.46492 324.872368 143.646887 
C 324.872368 114.828853 313.416852 87.187252 293.028766 66.809826 
C 272.64068 46.432399 244.984619 34.982873 216.151511 34.982873 
C 187.318403 34.982873 159.662342 46.432399 139.274256 66.809826 
C 118.88617 87.187252 107.430655 114.828853 107.430655 143.646887 
C 107.430655 172.46492 118.88617 200.106521 139.274256 220.483948 
C 159.662342 240.861375 187.318403 252.310901 216.151511 252.310901 
z
" style="fill:#ffffff;stroke:#ffffff;stroke-linejoin:miter;"/>
   </g>
   <g id="matplotlib.axis_1">
    <g id="text_1">
     <!-- 15 -->
     <g transform="translate(146.421875 178.184375)scale(1 -1)">
      <defs>
       <path d="M 11.71875 12.984375 
L 28.328125 12.984375 
L 28.328125 60.109375 
L 11.28125 56.59375 
L 11.28125 69.390625 
L 28.21875 72.90625 
L 46.09375 72.90625 
L 46.09375 12.984375 
L 62.703125 12.984375 
L 62.703125 0 
L 11.71875 0 
z
" id="DejaVuSans-Bold-49"/>
       <path d="M 10.59375 72.90625 
L 57.328125 72.90625 
L 57.328125 59.078125 
L 25.59375 59.078125 
L 25.59375 47.796875 
Q 27.734375 48.390625 29.90625 48.703125 
Q 32.078125 49.03125 34.421875 49.03125 
Q 47.75 49.03125 55.171875 42.359375 
Q 62.59375 35.6875 62.59375 23.78125 
Q 62.59375 11.96875 54.515625 5.265625 
Q 46.4375 -1.421875 32.078125 -1.421875 
Q 25.875 -1.421875 19.796875 -0.21875 
Q 13.71875 0.984375 7.71875 3.421875 
L 7.71875 18.21875 
Q 13.671875 14.796875 19.015625 13.078125 
Q 24.359375 11.375 29.109375 11.375 
Q 35.9375 11.375 39.859375 14.71875 
Q 43.796875 18.0625 43.796875 23.78125 
Q 43.796875 29.546875 39.859375 32.859375 
Q 35.9375 36.1875 29.109375 36.1875 
Q 25.046875 36.1875 20.453125 35.125 
Q 15.875 34.078125 10.59375 31.890625 
z
" id="DejaVuSans-Bold-53"/>
      </defs>
      <use xlink:href="#DejaVuSans-Bold-49"/>
      <use x="69.580078" xlink:href="#DejaVuSans-Bold-53"/>
     </g>
    </g>
   </g>
   <g id="matplotlib.axis_2"/>
  </g>
 </g>
 <defs>
  <clipPath id="p0afca58de8">
   <rect height="266.4" width="410.4" x="10.8" y="10.8"/>
  </clipPath>
 </defs>
</svg>
