<?xml version="1.0" encoding="utf-8" standalone="no"?>
<!DOCTYPE svg PUBLIC "-//W3C//DTD SVG 1.1//EN"
  "http://www.w3.org/Graphics/SVG/1.1/DTD/svg11.dtd">
<!-- Created with matplotlib (https://matplotlib.org/) -->
<svg height="288pt" version="1.1" viewBox="0 0 432 288" width="432pt" xmlns="http://www.w3.org/2000/svg" xmlns:xlink="http://www.w3.org/1999/xlink">
 <metadata>
  <rdf:RDF xmlns:cc="http://creativecommons.org/ns#" xmlns:dc="http://purl.org/dc/elements/1.1/" xmlns:rdf="http://www.w3.org/1999/02/22-rdf-syntax-ns#">
   <cc:Work>
    <dc:type rdf:resource="http://purl.org/dc/dcmitype/StillImage"/>
    <dc:date>2021-01-16T13:34:11.716356</dc:date>
    <dc:format>image/svg+xml</dc:format>
    <dc:creator>
     <cc:Agent>
      <dc:title>Matplotlib v3.3.2, https://matplotlib.org/</dc:title>
     </cc:Agent>
    </dc:creator>
   </cc:Work>
  </rdf:RDF>
 </metadata>
 <defs>
  <style type="text/css">*{stroke-linecap:butt;stroke-linejoin:round;}</style>
 </defs>
 <g id="figure_1">
  <g id="patch_1">
   <path d="M 0 288 
L 432 288 
L 432 0 
L 0 0 
z
" style="fill:none;"/>
  </g>
  <g id="axes_1">
   <g id="patch_2">
    <path d="M 318.020167 78.978087 
C 307.11305 61.800208 292.038542 47.651705 274.200728 37.850411 
C 256.362914 28.049117 236.333363 22.909091 215.977688 22.909091 
L 215.977688 143.702359 
L 318.020167 78.978087 
z
" style="fill:#008000;"/>
   </g>
   <g id="patch_3">
    <path d="M 215.977665 22.909091 
C 202.658752 22.909093 189.430984 25.109649 176.830156 29.421624 
C 164.229328 33.733598 152.427902 40.097976 141.903897 48.256965 
C 131.379893 56.415955 122.277347 66.257888 114.964962 77.384114 
C 107.652576 88.510341 102.230432 100.768581 98.918155 113.662312 
C 95.605878 126.556043 94.448802 139.908793 95.493793 153.179706 
C 96.538785 166.450619 99.771543 179.458062 105.061122 191.675165 
C 110.350702 203.892267 117.624708 215.15182 126.588504 224.997751 
C 135.552301 234.843681 146.083204 243.141234 157.754657 249.554313 
C 169.42611 255.967393 182.078371 260.408226 195.198957 262.696936 
C 208.319543 264.985647 221.728878 265.090909 234.883813 263.00846 
C 248.038748 260.926011 260.759237 256.684353 272.530034 250.455294 
C 284.300831 244.226235 294.960835 236.09503 304.078257 226.391036 
C 313.19568 216.687042 320.645737 205.543072 326.12666 193.410518 
C 331.607583 181.277963 335.044359 168.322875 336.297779 155.070005 
C 337.551198 141.817134 336.604108 128.447866 333.494869 115.503727 
C 330.38563 102.559588 325.156797 90.217738 318.020167 78.978087 
L 215.977688 143.702359 
L 215.977665 22.909091 
z
" style="fill:#ffffff;"/>
   </g>
   <g id="patch_4">
    <path clip-path="url(#p3a8e4afbd3)" d="M 215.977688 252.416301 
C 244.824044 252.416301 272.492811 240.961514 292.890265 220.574724 
C 313.287719 200.187935 324.748498 172.533633 324.748498 143.702359 
C 324.748498 114.871085 313.287719 87.216784 292.890265 66.829994 
C 272.492811 46.443204 244.824044 34.988418 215.977688 34.988418 
C 187.131332 34.988418 159.462564 46.443204 139.06511 66.829994 
C 118.667656 87.216784 107.206877 114.871085 107.206877 143.702359 
C 107.206877 172.533633 118.667656 200.187935 139.06511 220.574724 
C 159.462564 240.961514 187.131332 252.416301 215.977688 252.416301 
z
" style="fill:#ffffff;stroke:#ffffff;stroke-linejoin:miter;"/>
   </g>
   <g id="matplotlib.axis_1">
    <g id="text_1">
     <!-- 16 -->
     <g transform="translate(146.421875 178.184375)scale(1 -1)">
      <defs>
       <path d="M 11.71875 12.984375 
L 28.328125 12.984375 
L 28.328125 60.109375 
L 11.28125 56.59375 
L 11.28125 69.390625 
L 28.21875 72.90625 
L 46.09375 72.90625 
L 46.09375 12.984375 
L 62.703125 12.984375 
L 62.703125 0 
L 11.71875 0 
z
" id="DejaVuSans-Bold-49"/>
       <path d="M 36.1875 35.984375 
Q 31.25 35.984375 28.78125 32.78125 
Q 26.3125 29.59375 26.3125 23.1875 
Q 26.3125 16.796875 28.78125 13.59375 
Q 31.25 10.40625 36.1875 10.40625 
Q 41.15625 10.40625 43.625 13.59375 
Q 46.09375 16.796875 46.09375 23.1875 
Q 46.09375 29.59375 43.625 32.78125 
Q 41.15625 35.984375 36.1875 35.984375 
z
M 59.421875 71 
L 59.421875 57.515625 
Q 54.78125 59.71875 50.671875 60.765625 
Q 46.578125 61.8125 42.671875 61.8125 
Q 34.28125 61.8125 29.59375 57.140625 
Q 24.90625 52.484375 24.125 43.3125 
Q 27.34375 45.703125 31.09375 46.890625 
Q 34.859375 48.09375 39.3125 48.09375 
Q 50.484375 48.09375 57.34375 41.546875 
Q 64.203125 35.015625 64.203125 24.421875 
Q 64.203125 12.703125 56.53125 5.640625 
Q 48.875 -1.421875 35.984375 -1.421875 
Q 21.78125 -1.421875 13.984375 8.171875 
Q 6.203125 17.78125 6.203125 35.40625 
Q 6.203125 53.46875 15.3125 63.796875 
Q 24.421875 74.125 40.28125 74.125 
Q 45.3125 74.125 50.046875 73.34375 
Q 54.78125 72.5625 59.421875 71 
z
" id="DejaVuSans-Bold-54"/>
      </defs>
      <use xlink:href="#DejaVuSans-Bold-49"/>
      <use x="69.580078" xlink:href="#DejaVuSans-Bold-54"/>
     </g>
    </g>
   </g>
   <g id="matplotlib.axis_2"/>
  </g>
 </g>
 <defs>
  <clipPath id="p3a8e4afbd3">
   <rect height="266.4" width="410.4" x="10.8" y="10.8"/>
  </clipPath>
 </defs>
</svg>
