<?xml version="1.0" encoding="utf-8" standalone="no"?>
<!DOCTYPE svg PUBLIC "-//W3C//DTD SVG 1.1//EN"
  "http://www.w3.org/Graphics/SVG/1.1/DTD/svg11.dtd">
<!-- Created with matplotlib (https://matplotlib.org/) -->
<svg height="288pt" version="1.1" viewBox="0 0 432 288" width="432pt" xmlns="http://www.w3.org/2000/svg" xmlns:xlink="http://www.w3.org/1999/xlink">
 <metadata>
  <rdf:RDF xmlns:cc="http://creativecommons.org/ns#" xmlns:dc="http://purl.org/dc/elements/1.1/" xmlns:rdf="http://www.w3.org/1999/02/22-rdf-syntax-ns#">
   <cc:Work>
    <dc:type rdf:resource="http://purl.org/dc/dcmitype/StillImage"/>
    <dc:date>2021-01-16T13:34:11.827113</dc:date>
    <dc:format>image/svg+xml</dc:format>
    <dc:creator>
     <cc:Agent>
      <dc:title>Matplotlib v3.3.2, https://matplotlib.org/</dc:title>
     </cc:Agent>
    </dc:creator>
   </cc:Work>
  </rdf:RDF>
 </metadata>
 <defs>
  <style type="text/css">*{stroke-linecap:butt;stroke-linejoin:round;}</style>
 </defs>
 <g id="figure_1">
  <g id="patch_1">
   <path d="M 0 288 
L 432 288 
L 432 0 
L 0 0 
z
" style="fill:none;"/>
  </g>
  <g id="axes_1">
   <g id="patch_2">
    <path d="M 321.833658 85.480467 
C 311.412268 66.533939 296.08779 50.728572 277.46805 39.722646 
C 258.848309 28.716719 237.608092 22.909091 215.975895 22.909091 
L 215.975895 143.645836 
L 321.833658 85.480467 
z
" style="fill:#008000;"/>
   </g>
   <g id="patch_3">
    <path d="M 215.975884 22.909091 
C 202.822388 22.909092 189.756762 25.05633 177.295797 29.265874 
C 164.834832 33.475418 153.145015 39.691026 142.688718 47.666848 
C 132.232422 55.642671 123.149349 65.272146 115.798767 76.174394 
C 108.448185 87.076642 102.928303 99.106002 99.45745 111.786671 
C 95.986598 124.46734 94.611149 137.629896 95.385507 150.753713 
C 96.159864 163.87753 99.073683 176.787267 104.011711 188.972297 
C 108.949739 201.157327 115.846 212.454851 124.427725 222.418012 
C 133.009449 232.381173 143.161979 240.876857 154.483746 247.56903 
C 165.805513 254.261203 178.145251 259.060453 191.01488 261.776953 
C 203.884509 264.493453 217.112083 265.090909 230.174405 263.545689 
C 243.236727 262.00047 255.959275 258.333219 267.838829 252.688991 
C 279.718383 247.044763 290.596224 239.498967 300.042095 230.350067 
C 309.487966 221.201167 317.375665 210.571397 323.393204 198.881202 
C 329.410744 187.191007 333.477727 174.596576 335.433289 161.596062 
C 337.388851 148.595548 337.206865 135.362647 334.89453 122.420766 
C 332.582194 109.478885 328.170403 97.000937 321.833658 85.480467 
L 215.975895 143.645836 
L 215.975884 22.909091 
z
" style="fill:#ffffff;"/>
   </g>
   <g id="patch_4">
    <path clip-path="url(#pbe1b9262af)" d="M 215.975895 252.308907 
C 244.808753 252.308907 272.464574 240.859481 292.852483 220.482231 
C 313.240392 200.104981 324.695808 172.46362 324.695808 143.645836 
C 324.695808 114.828053 313.240392 87.186692 292.852483 66.809442 
C 272.464574 46.432192 244.808753 34.982765 215.975895 34.982765 
C 187.143037 34.982765 159.487217 46.432192 139.099308 66.809442 
C 118.711398 87.186692 107.255982 114.828053 107.255982 143.645836 
C 107.255982 172.46362 118.711398 200.104981 139.099308 220.482231 
C 159.487217 240.859481 187.143037 252.308907 215.975895 252.308907 
z
" style="fill:#ffffff;stroke:#ffffff;stroke-linejoin:miter;"/>
   </g>
   <g id="matplotlib.axis_1">
    <g id="text_1">
     <!-- 17 -->
     <g transform="translate(146.421875 178.184375)scale(1 -1)">
      <defs>
       <path d="M 11.71875 12.984375 
L 28.328125 12.984375 
L 28.328125 60.109375 
L 11.28125 56.59375 
L 11.28125 69.390625 
L 28.21875 72.90625 
L 46.09375 72.90625 
L 46.09375 12.984375 
L 62.703125 12.984375 
L 62.703125 0 
L 11.71875 0 
z
" id="DejaVuSans-Bold-49"/>
       <path d="M 6.6875 72.90625 
L 61.625 72.90625 
L 61.625 62.3125 
L 33.203125 0 
L 14.890625 0 
L 41.796875 59.078125 
L 6.6875 59.078125 
z
" id="DejaVuSans-Bold-55"/>
      </defs>
      <use xlink:href="#DejaVuSans-Bold-49"/>
      <use x="69.580078" xlink:href="#DejaVuSans-Bold-55"/>
     </g>
    </g>
   </g>
   <g id="matplotlib.axis_2"/>
  </g>
 </g>
 <defs>
  <clipPath id="pbe1b9262af">
   <rect height="266.4" width="410.4" x="10.8" y="10.8"/>
  </clipPath>
 </defs>
</svg>
