<?xml version="1.0" encoding="utf-8" standalone="no"?>
<!DOCTYPE svg PUBLIC "-//W3C//DTD SVG 1.1//EN"
  "http://www.w3.org/Graphics/SVG/1.1/DTD/svg11.dtd">
<!-- Created with matplotlib (https://matplotlib.org/) -->
<svg height="288pt" version="1.1" viewBox="0 0 432 288" width="432pt" xmlns="http://www.w3.org/2000/svg" xmlns:xlink="http://www.w3.org/1999/xlink">
 <metadata>
  <rdf:RDF xmlns:cc="http://creativecommons.org/ns#" xmlns:dc="http://purl.org/dc/elements/1.1/" xmlns:rdf="http://www.w3.org/1999/02/22-rdf-syntax-ns#">
   <cc:Work>
    <dc:type rdf:resource="http://purl.org/dc/dcmitype/StillImage"/>
    <dc:date>2021-01-16T13:34:11.978598</dc:date>
    <dc:format>image/svg+xml</dc:format>
    <dc:creator>
     <cc:Agent>
      <dc:title>Matplotlib v3.3.2, https://matplotlib.org/</dc:title>
     </cc:Agent>
    </dc:creator>
   </cc:Work>
  </rdf:RDF>
 </metadata>
 <defs>
  <style type="text/css">*{stroke-linecap:butt;stroke-linejoin:round;}</style>
 </defs>
 <g id="figure_1">
  <g id="patch_1">
   <path d="M 0 288 
L 432 288 
L 432 0 
L 0 0 
z
" style="fill:none;"/>
  </g>
  <g id="axes_1">
   <g id="patch_2">
    <path d="M 325.19428 92.256253 
C 315.432584 71.522436 299.965377 53.987505 280.607757 41.709208 
C 261.250137 29.430911 238.790143 22.909091 215.863481 22.909091 
L 215.863481 143.676518 
L 325.19428 92.256253 
z
" style="fill:#008000;"/>
   </g>
   <g id="patch_3">
    <path d="M 215.863481 22.909091 
C 202.865843 22.909091 189.952942 25.005211 177.62338 29.116513 
C 165.293817 33.227815 153.708357 39.300694 143.314345 47.100659 
C 132.920333 54.900623 123.853295 64.325972 116.463334 75.012765 
C 109.073372 85.699559 103.456844 97.508455 99.830619 109.983479 
C 96.204393 122.458503 94.615752 135.436996 95.126036 148.417823 
C 95.636321 161.39865 98.238878 174.212557 102.833216 186.364764 
C 107.427554 198.51697 113.953768 209.849026 122.159863 219.923369 
C 130.365958 229.997712 140.144937 238.682986 151.119205 245.643828 
C 162.093474 252.60467 174.119942 257.750319 186.734234 260.882087 
C 199.348526 264.013856 212.386167 265.090909 225.343738 264.07166 
C 238.301308 263.05241 251.009858 259.950148 262.978675 254.884659 
C 274.947491 249.81917 286.020516 242.856503 295.770188 234.265505 
C 305.519861 225.674507 313.819058 215.567194 320.347324 204.333838 
C 326.87559 193.100482 331.547805 180.887552 334.183561 168.166623 
C 336.819317 155.445693 337.384248 142.38263 335.85654 129.481834 
C 334.328832 116.581038 330.728405 104.010719 325.19428 92.256253 
L 215.863481 143.676518 
L 215.863481 22.909091 
z
" style="fill:#ffffff;"/>
   </g>
   <g id="patch_4">
    <path clip-path="url(#pdd04c0c727)" d="M 215.863481 252.367202 
C 244.703666 252.367202 272.366515 240.914866 292.759605 220.532438 
C 313.152695 200.15001 324.611022 172.501624 324.611022 143.676518 
C 324.611022 114.851412 313.152695 87.203026 292.759605 66.820598 
C 272.366515 46.43817 244.703666 34.985834 215.863481 34.985834 
C 187.023296 34.985834 159.360448 46.43817 138.967358 66.820598 
C 118.574267 87.203026 107.11594 114.851412 107.11594 143.676518 
C 107.11594 172.501624 118.574267 200.15001 138.967358 220.532438 
C 159.360448 240.914866 187.023296 252.367202 215.863481 252.367202 
z
" style="fill:#ffffff;stroke:#ffffff;stroke-linejoin:miter;"/>
   </g>
   <g id="matplotlib.axis_1">
    <g id="text_1">
     <!-- 18 -->
     <g transform="translate(146.421875 178.184375)scale(1 -1)">
      <defs>
       <path d="M 11.71875 12.984375 
L 28.328125 12.984375 
L 28.328125 60.109375 
L 11.28125 56.59375 
L 11.28125 69.390625 
L 28.21875 72.90625 
L 46.09375 72.90625 
L 46.09375 12.984375 
L 62.703125 12.984375 
L 62.703125 0 
L 11.71875 0 
z
" id="DejaVuSans-Bold-49"/>
       <path d="M 34.8125 32.625 
Q 29.546875 32.625 26.703125 29.734375 
Q 23.875 26.859375 23.875 21.484375 
Q 23.875 16.109375 26.703125 13.25 
Q 29.546875 10.40625 34.8125 10.40625 
Q 40.046875 10.40625 42.828125 13.25 
Q 45.609375 16.109375 45.609375 21.484375 
Q 45.609375 26.90625 42.828125 29.765625 
Q 40.046875 32.625 34.8125 32.625 
z
M 21.09375 38.8125 
Q 14.453125 40.828125 11.078125 44.96875 
Q 7.71875 49.125 7.71875 55.328125 
Q 7.71875 64.546875 14.59375 69.375 
Q 21.484375 74.21875 34.8125 74.21875 
Q 48.046875 74.21875 54.921875 69.40625 
Q 61.8125 64.59375 61.8125 55.328125 
Q 61.8125 49.125 58.421875 44.96875 
Q 55.03125 40.828125 48.390625 38.8125 
Q 55.8125 36.765625 59.59375 32.15625 
Q 63.375 27.546875 63.375 20.515625 
Q 63.375 9.671875 56.171875 4.125 
Q 48.96875 -1.421875 34.8125 -1.421875 
Q 20.609375 -1.421875 13.359375 4.125 
Q 6.109375 9.671875 6.109375 20.515625 
Q 6.109375 27.546875 9.890625 32.15625 
Q 13.671875 36.765625 21.09375 38.8125 
z
M 25.484375 53.421875 
Q 25.484375 49.078125 27.90625 46.734375 
Q 30.328125 44.390625 34.8125 44.390625 
Q 39.203125 44.390625 41.59375 46.734375 
Q 44 49.078125 44 53.421875 
Q 44 57.765625 41.59375 60.078125 
Q 39.203125 62.40625 34.8125 62.40625 
Q 30.328125 62.40625 27.90625 60.0625 
Q 25.484375 57.71875 25.484375 53.421875 
z
" id="DejaVuSans-Bold-56"/>
      </defs>
      <use xlink:href="#DejaVuSans-Bold-49"/>
      <use x="69.580078" xlink:href="#DejaVuSans-Bold-56"/>
     </g>
    </g>
   </g>
   <g id="matplotlib.axis_2"/>
  </g>
 </g>
 <defs>
  <clipPath id="pdd04c0c727">
   <rect height="266.4" width="410.4" x="10.8" y="10.8"/>
  </clipPath>
 </defs>
</svg>
