<?xml version="1.0" encoding="utf-8" standalone="no"?>
<!DOCTYPE svg PUBLIC "-//W3C//DTD SVG 1.1//EN"
  "http://www.w3.org/Graphics/SVG/1.1/DTD/svg11.dtd">
<!-- Created with matplotlib (https://matplotlib.org/) -->
<svg height="288pt" version="1.1" viewBox="0 0 432 288" width="432pt" xmlns="http://www.w3.org/2000/svg" xmlns:xlink="http://www.w3.org/1999/xlink">
 <metadata>
  <rdf:RDF xmlns:cc="http://creativecommons.org/ns#" xmlns:dc="http://purl.org/dc/elements/1.1/" xmlns:rdf="http://www.w3.org/1999/02/22-rdf-syntax-ns#">
   <cc:Work>
    <dc:type rdf:resource="http://purl.org/dc/dcmitype/StillImage"/>
    <dc:date>2021-01-16T13:34:12.085059</dc:date>
    <dc:format>image/svg+xml</dc:format>
    <dc:creator>
     <cc:Agent>
      <dc:title>Matplotlib v3.3.2, https://matplotlib.org/</dc:title>
     </cc:Agent>
    </dc:creator>
   </cc:Work>
  </rdf:RDF>
 </metadata>
 <defs>
  <style type="text/css">*{stroke-linecap:butt;stroke-linejoin:round;}</style>
 </defs>
 <g id="figure_1">
  <g id="patch_1">
   <path d="M 0 288 
L 432 288 
L 432 0 
L 0 0 
z
" style="fill:none;"/>
  </g>
  <g id="axes_1">
   <g id="patch_2">
    <path d="M 328.296285 99.29359 
C 319.372203 76.765716 303.874417 57.431432 283.824314 43.81252 
C 263.774212 30.193609 240.08313 22.909091 215.841111 22.909091 
L 215.841111 143.794467 
L 328.296285 99.29359 
z
" style="fill:#008000;"/>
   </g>
   <g id="patch_3">
    <path d="M 215.841111 22.909091 
C 202.990109 22.909091 190.220846 24.956182 178.014506 28.973224 
C 165.808166 32.990265 154.320025 38.926157 143.982993 46.557216 
C 133.645961 54.188275 124.591532 63.417427 117.160907 73.89689 
C 109.730283 84.376352 104.017985 95.972817 100.239273 108.249292 
C 96.46056 120.525768 94.663501 133.326087 94.915813 146.167894 
C 95.168126 159.009701 97.466601 171.729636 101.724625 183.848373 
C 105.982649 195.96711 112.146055 207.330487 119.982588 217.510298 
C 127.819122 227.690108 137.229094 236.556856 147.857907 243.776414 
C 158.486721 250.995971 170.199169 256.4765 182.553889 260.011477 
C 194.908609 263.546453 207.748438 265.090909 220.589532 264.586645 
C 233.430626 264.082381 246.109635 261.535811 258.148773 257.042898 
C 270.187911 252.549985 281.434031 246.167883 291.463343 238.137089 
C 301.492655 230.106296 310.177579 220.528969 317.190838 209.766014 
C 324.204097 199.003058 329.456477 187.191388 332.750052 174.776103 
C 336.043627 162.360818 337.336499 149.499852 336.57995 136.677846 
C 335.823401 123.85584 333.027055 111.235902 328.296285 99.29359 
L 215.841111 143.794467 
L 215.841111 22.909091 
z
" style="fill:#ffffff;"/>
   </g>
   <g id="patch_4">
    <path clip-path="url(#p0aa80e5898)" d="M 215.841111 252.591305 
C 244.709463 252.591305 272.399329 241.127784 292.812336 220.725449 
C 313.225344 200.323114 324.694861 172.647726 324.694861 143.794467 
C 324.694861 114.941208 313.225344 87.26582 292.812336 66.863485 
C 272.399329 46.46115 244.709463 34.997629 215.841111 34.997629 
C 186.972759 34.997629 159.282893 46.46115 138.869886 66.863485 
C 118.456878 87.26582 106.98736 114.941208 106.98736 143.794467 
C 106.98736 172.647726 118.456878 200.323114 138.869886 220.725449 
C 159.282893 241.127784 186.972759 252.591305 215.841111 252.591305 
z
" style="fill:#ffffff;stroke:#ffffff;stroke-linejoin:miter;"/>
   </g>
   <g id="matplotlib.axis_1">
    <g id="text_1">
     <!-- 19 -->
     <g transform="translate(146.421875 178.184375)scale(1 -1)">
      <defs>
       <path d="M 11.71875 12.984375 
L 28.328125 12.984375 
L 28.328125 60.109375 
L 11.28125 56.59375 
L 11.28125 69.390625 
L 28.21875 72.90625 
L 46.09375 72.90625 
L 46.09375 12.984375 
L 62.703125 12.984375 
L 62.703125 0 
L 11.71875 0 
z
" id="DejaVuSans-Bold-49"/>
       <path d="M 10.015625 1.609375 
L 10.015625 15.09375 
Q 14.5 12.984375 18.59375 11.9375 
Q 22.703125 10.890625 26.703125 10.890625 
Q 35.109375 10.890625 39.796875 15.546875 
Q 44.484375 20.21875 45.3125 29.390625 
Q 42 26.953125 38.234375 25.734375 
Q 34.46875 24.515625 30.078125 24.515625 
Q 18.890625 24.515625 12.03125 31.03125 
Q 5.171875 37.546875 5.171875 48.1875 
Q 5.171875 59.96875 12.8125 67.046875 
Q 20.453125 74.125 33.296875 74.125 
Q 47.5625 74.125 55.375 64.5 
Q 63.1875 54.890625 63.1875 37.3125 
Q 63.1875 19.234375 54.046875 8.90625 
Q 44.921875 -1.421875 29 -1.421875 
Q 23.875 -1.421875 19.1875 -0.65625 
Q 14.5 0.09375 10.015625 1.609375 
z
M 33.203125 36.71875 
Q 38.140625 36.71875 40.625 39.90625 
Q 43.109375 43.109375 43.109375 49.515625 
Q 43.109375 55.859375 40.625 59.078125 
Q 38.140625 62.3125 33.203125 62.3125 
Q 28.265625 62.3125 25.78125 59.078125 
Q 23.296875 55.859375 23.296875 49.515625 
Q 23.296875 43.109375 25.78125 39.90625 
Q 28.265625 36.71875 33.203125 36.71875 
z
" id="DejaVuSans-Bold-57"/>
      </defs>
      <use xlink:href="#DejaVuSans-Bold-49"/>
      <use x="69.580078" xlink:href="#DejaVuSans-Bold-57"/>
     </g>
    </g>
   </g>
   <g id="matplotlib.axis_2"/>
  </g>
 </g>
 <defs>
  <clipPath id="p0aa80e5898">
   <rect height="266.4" width="410.4" x="10.8" y="10.8"/>
  </clipPath>
 </defs>
</svg>
