<?xml version="1.0" encoding="utf-8" standalone="no"?>
<!DOCTYPE svg PUBLIC "-//W3C//DTD SVG 1.1//EN"
  "http://www.w3.org/Graphics/SVG/1.1/DTD/svg11.dtd">
<!-- Created with matplotlib (https://matplotlib.org/) -->
<svg height="288pt" version="1.1" viewBox="0 0 432 288" width="432pt" xmlns="http://www.w3.org/2000/svg" xmlns:xlink="http://www.w3.org/1999/xlink">
 <metadata>
  <rdf:RDF xmlns:cc="http://creativecommons.org/ns#" xmlns:dc="http://purl.org/dc/elements/1.1/" xmlns:rdf="http://www.w3.org/1999/02/22-rdf-syntax-ns#">
   <cc:Work>
    <dc:type rdf:resource="http://purl.org/dc/dcmitype/StillImage"/>
    <dc:date>2021-01-16T13:34:09.591044</dc:date>
    <dc:format>image/svg+xml</dc:format>
    <dc:creator>
     <cc:Agent>
      <dc:title>Matplotlib v3.3.2, https://matplotlib.org/</dc:title>
     </cc:Agent>
    </dc:creator>
   </cc:Work>
  </rdf:RDF>
 </metadata>
 <defs>
  <style type="text/css">*{stroke-linecap:butt;stroke-linejoin:round;}</style>
 </defs>
 <g id="figure_1">
  <g id="patch_1">
   <path d="M 0 288 
L 432 288 
L 432 0 
L 0 0 
z
" style="fill:none;"/>
  </g>
  <g id="axes_1">
   <g id="patch_2">
    <path d="M 230.889429 23.861024 
C 228.379445 23.544105 225.860119 23.306083 223.335178 23.147311 
C 220.810237 22.988538 218.280929 22.909093 215.750996 22.909093 
L 215.750996 143.631413 
L 230.889429 23.861024 
z
" style="fill:#008000;"/>
   </g>
   <g id="patch_3">
    <path d="M 215.75101 22.909093 
C 200.208793 22.909091 184.811669 25.907391 170.406262 31.739129 
C 156.000855 37.570867 142.856126 46.12716 131.69485 56.937531 
C 120.533574 67.747903 111.564142 80.610515 105.279744 94.818105 
C 98.995347 109.025696 95.51332 124.312997 95.025126 139.839423 
C 94.536932 155.365848 97.051685 170.841508 102.431111 185.415458 
C 107.810536 199.989408 115.954195 213.389541 126.4143 224.879038 
C 136.874406 236.368536 149.45566 245.73288 163.46627 252.457163 
C 177.476881 259.181446 192.655259 263.14012 208.166807 264.115515 
C 223.678355 265.090909 239.233459 263.064812 253.97681 258.148631 
C 268.72016 253.23245 282.376485 245.517973 294.19488 235.429389 
C 306.013275 225.340804 315.77308 213.066474 322.937645 199.281313 
C 330.102209 185.496151 334.537764 170.45754 336.000416 154.99239 
C 337.463068 139.52724 335.925509 123.924298 331.472282 109.041506 
C 327.019056 94.158715 319.733308 80.273947 310.015651 68.15067 
C 300.297994 56.027393 288.329865 45.891958 274.769343 38.301671 
C 261.208821 30.711384 246.309091 25.807962 230.889429 23.861024 
L 215.750996 143.631413 
L 215.75101 22.909093 
z
" style="fill:#ffffff;"/>
   </g>
   <g id="patch_4">
    <path clip-path="url(#p82129ec9b7)" d="M 215.750996 252.281501 
C 244.580409 252.281501 272.232925 240.833442 292.618399 220.458627 
C 313.003872 200.083812 324.457919 172.445753 324.457919 143.631413 
C 324.457919 114.817073 313.003872 87.179014 292.618399 66.804199 
C 272.232925 46.429383 244.580409 34.981325 215.750996 34.981325 
C 186.921583 34.981325 159.269067 46.429383 138.883593 66.804199 
C 118.49812 87.179014 107.044073 114.817073 107.044073 143.631413 
C 107.044073 172.445753 118.49812 200.083812 138.883593 220.458627 
C 159.269067 240.833442 186.921583 252.281501 215.750996 252.281501 
z
" style="fill:#ffffff;stroke:#ffffff;stroke-linejoin:miter;"/>
   </g>
   <g id="matplotlib.axis_1">
    <g id="text_1">
     <!-- 2 -->
     <g transform="translate(181.210938 178.184375)scale(1 -1)">
      <defs>
       <path d="M 28.8125 13.8125 
L 60.890625 13.8125 
L 60.890625 0 
L 7.90625 0 
L 7.90625 13.8125 
L 34.515625 37.3125 
Q 38.09375 40.53125 39.796875 43.609375 
Q 41.5 46.6875 41.5 50 
Q 41.5 55.125 38.0625 58.25 
Q 34.625 61.375 28.90625 61.375 
Q 24.515625 61.375 19.28125 59.5 
Q 14.0625 57.625 8.109375 53.90625 
L 8.109375 69.921875 
Q 14.453125 72.015625 20.65625 73.109375 
Q 26.859375 74.21875 32.8125 74.21875 
Q 45.90625 74.21875 53.15625 68.453125 
Q 60.40625 62.703125 60.40625 52.390625 
Q 60.40625 46.4375 57.328125 41.28125 
Q 54.25 36.140625 44.390625 27.484375 
z
" id="DejaVuSans-Bold-50"/>
      </defs>
      <use xlink:href="#DejaVuSans-Bold-50"/>
     </g>
    </g>
   </g>
   <g id="matplotlib.axis_2"/>
  </g>
 </g>
 <defs>
  <clipPath id="p82129ec9b7">
   <rect height="266.4" width="410.4" x="10.8" y="10.8"/>
  </clipPath>
 </defs>
</svg>
