<?xml version="1.0" encoding="utf-8" standalone="no"?>
<!DOCTYPE svg PUBLIC "-//W3C//DTD SVG 1.1//EN"
  "http://www.w3.org/Graphics/SVG/1.1/DTD/svg11.dtd">
<!-- Created with matplotlib (https://matplotlib.org/) -->
<svg height="288pt" version="1.1" viewBox="0 0 432 288" width="432pt" xmlns="http://www.w3.org/2000/svg" xmlns:xlink="http://www.w3.org/1999/xlink">
 <metadata>
  <rdf:RDF xmlns:cc="http://creativecommons.org/ns#" xmlns:dc="http://purl.org/dc/elements/1.1/" xmlns:rdf="http://www.w3.org/1999/02/22-rdf-syntax-ns#">
   <cc:Work>
    <dc:type rdf:resource="http://purl.org/dc/dcmitype/StillImage"/>
    <dc:date>2021-01-16T13:34:12.192366</dc:date>
    <dc:format>image/svg+xml</dc:format>
    <dc:creator>
     <cc:Agent>
      <dc:title>Matplotlib v3.3.2, https://matplotlib.org/</dc:title>
     </cc:Agent>
    </dc:creator>
   </cc:Work>
  </rdf:RDF>
 </metadata>
 <defs>
  <style type="text/css">*{stroke-linecap:butt;stroke-linejoin:round;}</style>
 </defs>
 <g id="figure_1">
  <g id="patch_1">
   <path d="M 0 288 
L 432 288 
L 432 0 
L 0 0 
z
" style="fill:none;"/>
  </g>
  <g id="axes_1">
   <g id="patch_2">
    <path d="M 331.224541 106.580854 
C 323.319488 82.264321 307.908382 61.063842 287.212683 46.035398 
C 266.516985 31.006954 241.581291 22.909092 216 22.909092 
L 216 144 
L 331.224541 106.580854 
z
" style="fill:#008000;"/>
   </g>
   <g id="patch_3">
    <path d="M 216.000012 22.909092 
C 203.286738 22.909091 190.65233 24.909137 178.561288 28.8357 
C 166.470246 32.762262 155.072582 38.566625 144.787326 46.035392 
C 134.502071 53.504159 125.456833 62.544666 117.984158 72.824542 
C 110.511482 83.104419 104.704081 94.496123 100.775463 106.580843 
C 96.846844 118.665563 94.84575 131.293365 94.845749 143.999992 
C 94.845748 156.706619 96.846841 169.334421 100.775458 181.419141 
C 104.704075 193.503862 110.511474 204.895567 117.984148 215.175444 
C 125.456822 225.455322 134.502058 234.49583 144.787313 241.964599 
C 155.072567 249.433367 166.47023 255.237731 178.561272 259.164296 
C 190.652313 263.09086 203.286721 265.090908 215.999995 265.090908 
C 228.713268 265.090909 241.347676 263.090862 253.438718 259.164299 
C 265.52976 255.237736 276.927424 249.433373 287.212679 241.964606 
C 297.497934 234.495838 306.543171 225.45533 314.015846 215.175454 
C 321.488521 204.895577 327.295921 193.503872 331.224539 181.419152 
C 335.153157 169.334432 337.154251 156.70663 337.154252 144.000003 
C 337.154252 131.293376 335.153159 118.665574 331.224541 106.580854 
L 216 144 
L 216.000012 22.909092 
z
" style="fill:#ffffff;"/>
   </g>
   <g id="patch_4">
    <path clip-path="url(#p3b4abfbaa4)" d="M 216 252.981818 
C 244.917435 252.981818 272.65438 241.498806 293.102094 221.061782 
C 313.549808 200.624759 325.038826 172.902316 325.038826 144 
C 325.038826 115.097684 313.549808 87.375242 293.102094 66.938218 
C 272.65438 46.501195 244.917435 35.018183 216 35.018183 
C 187.082566 35.018183 159.345621 46.501195 138.897907 66.938218 
C 118.450193 87.375242 106.961174 115.097684 106.961174 144 
C 106.961174 172.902316 118.450193 200.624759 138.897907 221.061782 
C 159.345621 241.498806 187.082566 252.981818 216 252.981818 
z
" style="fill:#ffffff;stroke:#ffffff;stroke-linejoin:miter;"/>
   </g>
   <g id="matplotlib.axis_1">
    <g id="text_1">
     <!-- 20 -->
     <g transform="translate(146.421875 178.184375)scale(1 -1)">
      <defs>
       <path d="M 28.8125 13.8125 
L 60.890625 13.8125 
L 60.890625 0 
L 7.90625 0 
L 7.90625 13.8125 
L 34.515625 37.3125 
Q 38.09375 40.53125 39.796875 43.609375 
Q 41.5 46.6875 41.5 50 
Q 41.5 55.125 38.0625 58.25 
Q 34.625 61.375 28.90625 61.375 
Q 24.515625 61.375 19.28125 59.5 
Q 14.0625 57.625 8.109375 53.90625 
L 8.109375 69.921875 
Q 14.453125 72.015625 20.65625 73.109375 
Q 26.859375 74.21875 32.8125 74.21875 
Q 45.90625 74.21875 53.15625 68.453125 
Q 60.40625 62.703125 60.40625 52.390625 
Q 60.40625 46.4375 57.328125 41.28125 
Q 54.25 36.140625 44.390625 27.484375 
z
" id="DejaVuSans-Bold-50"/>
       <path d="M 46 36.53125 
Q 46 50.203125 43.4375 55.78125 
Q 40.875 61.375 34.8125 61.375 
Q 28.765625 61.375 26.171875 55.78125 
Q 23.578125 50.203125 23.578125 36.53125 
Q 23.578125 22.703125 26.171875 17.03125 
Q 28.765625 11.375 34.8125 11.375 
Q 40.828125 11.375 43.40625 17.03125 
Q 46 22.703125 46 36.53125 
z
M 64.796875 36.375 
Q 64.796875 18.265625 56.984375 8.421875 
Q 49.171875 -1.421875 34.8125 -1.421875 
Q 20.40625 -1.421875 12.59375 8.421875 
Q 4.78125 18.265625 4.78125 36.375 
Q 4.78125 54.546875 12.59375 64.375 
Q 20.40625 74.21875 34.8125 74.21875 
Q 49.171875 74.21875 56.984375 64.375 
Q 64.796875 54.546875 64.796875 36.375 
z
" id="DejaVuSans-Bold-48"/>
      </defs>
      <use xlink:href="#DejaVuSans-Bold-50"/>
      <use x="69.580078" xlink:href="#DejaVuSans-Bold-48"/>
     </g>
    </g>
   </g>
   <g id="matplotlib.axis_2"/>
  </g>
 </g>
 <defs>
  <clipPath id="p3b4abfbaa4">
   <rect height="266.4" width="410.4" x="10.8" y="10.8"/>
  </clipPath>
 </defs>
</svg>
