<?xml version="1.0" encoding="utf-8" standalone="no"?>
<!DOCTYPE svg PUBLIC "-//W3C//DTD SVG 1.1//EN"
  "http://www.w3.org/Graphics/SVG/1.1/DTD/svg11.dtd">
<!-- Created with matplotlib (https://matplotlib.org/) -->
<svg height="288pt" version="1.1" viewBox="0 0 432 288" width="432pt" xmlns="http://www.w3.org/2000/svg" xmlns:xlink="http://www.w3.org/1999/xlink">
 <metadata>
  <rdf:RDF xmlns:cc="http://creativecommons.org/ns#" xmlns:dc="http://purl.org/dc/elements/1.1/" xmlns:rdf="http://www.w3.org/1999/02/22-rdf-syntax-ns#">
   <cc:Work>
    <dc:type rdf:resource="http://purl.org/dc/dcmitype/StillImage"/>
    <dc:date>2021-01-16T13:34:12.298703</dc:date>
    <dc:format>image/svg+xml</dc:format>
    <dc:creator>
     <cc:Agent>
      <dc:title>Matplotlib v3.3.2, https://matplotlib.org/</dc:title>
     </cc:Agent>
    </dc:creator>
   </cc:Work>
  </rdf:RDF>
 </metadata>
 <defs>
  <style type="text/css">*{stroke-linecap:butt;stroke-linejoin:round;}</style>
 </defs>
 <g id="figure_1">
  <g id="patch_1">
   <path d="M 0 288 
L 432 288 
L 432 0 
L 0 0 
z
" style="fill:none;"/>
  </g>
  <g id="axes_1">
   <g id="patch_2">
    <path d="M 333.002188 113.736181 
C 326.327815 87.75481 311.187719 64.718269 289.981435 48.27759 
C 268.775151 31.836911 242.685485 22.909092 215.847354 22.909092 
L 215.847354 143.800708 
L 333.002188 113.736181 
z
" style="fill:#008000;"/>
   </g>
   <g id="patch_3">
    <path d="M 215.847365 22.909092 
C 203.314305 22.909091 190.857051 24.856041 178.922286 28.68013 
C 166.98752 32.504219 155.719618 38.159187 145.522614 45.442262 
C 135.32561 52.725338 126.322858 61.548418 118.837171 71.595131 
C 111.351484 81.641845 105.473416 92.790656 101.413739 104.641801 
C 97.354062 116.492946 95.161885 128.90306 94.915814 141.427153 
C 94.669743 153.951245 96.372755 166.437812 99.963784 178.439119 
C 103.554813 190.440426 108.990418 201.811294 116.075694 212.143996 
C 123.160971 222.476697 131.810208 231.646237 141.713268 239.323822 
C 151.616327 247.001407 162.653413 253.094161 174.428765 257.383614 
C 186.204117 261.673068 198.57529 264.107332 211.098687 264.599121 
C 223.622084 265.090909 236.146211 263.634273 248.221986 260.281443 
C 260.297762 256.928613 271.779106 251.720148 282.25433 244.84281 
C 292.729553 237.965472 302.071938 229.502455 309.946491 219.757219 
C 317.821045 210.011984 324.132509 199.102418 328.654572 187.419709 
C 333.176636 175.736999 335.854595 163.422472 336.592426 150.917691 
C 337.330257 138.412909 336.119034 125.869145 333.002188 113.736181 
L 215.847354 143.800708 
L 215.847365 22.909092 
z
" style="fill:#ffffff;"/>
   </g>
   <g id="patch_4">
    <path clip-path="url(#p4240207369)" d="M 215.847354 252.603162 
C 244.717196 252.603162 272.408491 241.139049 292.822552 220.735661 
C 313.236613 200.332273 324.706723 172.655456 324.706723 143.800708 
C 324.706723 114.94596 313.236613 87.269143 292.822552 66.865755 
C 272.408491 46.462367 244.717196 34.998254 215.847354 34.998254 
C 186.977511 34.998254 159.286217 46.462367 138.872155 66.865755 
C 118.458094 87.269143 106.987984 114.94596 106.987984 143.800708 
C 106.987984 172.655456 118.458094 200.332273 138.872155 220.735661 
C 159.286217 241.139049 186.977511 252.603162 215.847354 252.603162 
z
" style="fill:#ffffff;stroke:#ffffff;stroke-linejoin:miter;"/>
   </g>
   <g id="matplotlib.axis_1">
    <g id="text_1">
     <!-- 21 -->
     <g transform="translate(146.421875 178.184375)scale(1 -1)">
      <defs>
       <path d="M 28.8125 13.8125 
L 60.890625 13.8125 
L 60.890625 0 
L 7.90625 0 
L 7.90625 13.8125 
L 34.515625 37.3125 
Q 38.09375 40.53125 39.796875 43.609375 
Q 41.5 46.6875 41.5 50 
Q 41.5 55.125 38.0625 58.25 
Q 34.625 61.375 28.90625 61.375 
Q 24.515625 61.375 19.28125 59.5 
Q 14.0625 57.625 8.109375 53.90625 
L 8.109375 69.921875 
Q 14.453125 72.015625 20.65625 73.109375 
Q 26.859375 74.21875 32.8125 74.21875 
Q 45.90625 74.21875 53.15625 68.453125 
Q 60.40625 62.703125 60.40625 52.390625 
Q 60.40625 46.4375 57.328125 41.28125 
Q 54.25 36.140625 44.390625 27.484375 
z
" id="DejaVuSans-Bold-50"/>
       <path d="M 11.71875 12.984375 
L 28.328125 12.984375 
L 28.328125 60.109375 
L 11.28125 56.59375 
L 11.28125 69.390625 
L 28.21875 72.90625 
L 46.09375 72.90625 
L 46.09375 12.984375 
L 62.703125 12.984375 
L 62.703125 0 
L 11.71875 0 
z
" id="DejaVuSans-Bold-49"/>
      </defs>
      <use xlink:href="#DejaVuSans-Bold-50"/>
      <use x="69.580078" xlink:href="#DejaVuSans-Bold-49"/>
     </g>
    </g>
   </g>
   <g id="matplotlib.axis_2"/>
  </g>
 </g>
 <defs>
  <clipPath id="p4240207369">
   <rect height="266.4" width="410.4" x="10.8" y="10.8"/>
  </clipPath>
 </defs>
</svg>
