<?xml version="1.0" encoding="utf-8" standalone="no"?>
<!DOCTYPE svg PUBLIC "-//W3C//DTD SVG 1.1//EN"
  "http://www.w3.org/Graphics/SVG/1.1/DTD/svg11.dtd">
<!-- Created with matplotlib (https://matplotlib.org/) -->
<svg height="288pt" version="1.1" viewBox="0 0 432 288" width="432pt" xmlns="http://www.w3.org/2000/svg" xmlns:xlink="http://www.w3.org/1999/xlink">
 <metadata>
  <rdf:RDF xmlns:cc="http://creativecommons.org/ns#" xmlns:dc="http://purl.org/dc/elements/1.1/" xmlns:rdf="http://www.w3.org/1999/02/22-rdf-syntax-ns#">
   <cc:Work>
    <dc:type rdf:resource="http://purl.org/dc/dcmitype/StillImage"/>
    <dc:date>2021-01-16T13:34:12.403911</dc:date>
    <dc:format>image/svg+xml</dc:format>
    <dc:creator>
     <cc:Agent>
      <dc:title>Matplotlib v3.3.2, https://matplotlib.org/</dc:title>
     </cc:Agent>
    </dc:creator>
   </cc:Work>
  </rdf:RDF>
 </metadata>
 <defs>
  <style type="text/css">*{stroke-linecap:butt;stroke-linejoin:round;}</style>
 </defs>
 <g id="figure_1">
  <g id="patch_1">
   <path d="M 0 288 
L 432 288 
L 432 0 
L 0 0 
z
" style="fill:none;"/>
  </g>
  <g id="axes_1">
   <g id="patch_2">
    <path d="M 334.6032 121.06719 
C 329.334575 93.462534 314.589193 68.542491 292.924574 50.629329 
C 271.259954 32.716168 244.0055 22.909091 215.888372 22.909091 
L 215.888372 143.701415 
L 334.6032 121.06719 
z
" style="fill:#008000;"/>
   </g>
   <g id="patch_3">
    <path d="M 215.888349 22.909091 
C 203.52472 22.909093 191.233981 24.80532 179.445827 28.531476 
C 167.657674 32.257633 156.511101 37.769784 146.395802 44.875221 
C 136.280503 51.980657 127.315749 60.595599 119.814954 70.418859 
C 112.31416 80.242119 106.365768 91.157871 102.17774 102.784491 
C 97.989711 114.411111 95.611427 126.611508 95.126035 138.959147 
C 94.640643 151.306785 96.053866 163.656073 99.316296 175.575268 
C 102.578726 187.494463 107.651896 198.843026 114.358443 209.2242 
C 121.06499 219.605375 129.325838 228.896756 138.852179 236.773508 
C 148.37852 244.650261 159.058029 251.01951 170.517341 255.658582 
C 181.976653 260.297653 194.08065 263.151847 206.406167 264.121378 
C 218.731683 265.090909 231.133388 264.164346 243.177707 261.374081 
C 255.222026 258.583817 266.766943 253.962752 277.408838 247.672442 
C 288.050733 241.382133 297.664127 233.496748 305.912927 224.291969 
C 314.161727 215.087189 320.948672 204.671549 326.036482 193.409188 
C 331.124293 182.146827 334.45298 170.17054 335.906168 157.899029 
C 337.359357 145.627517 336.919913 133.205476 334.6032 121.06719 
L 215.888372 143.701415 
L 215.888349 22.909091 
z
" style="fill:#ffffff;"/>
   </g>
   <g id="patch_4">
    <path clip-path="url(#p5332779611)" d="M 215.888372 252.414507 
C 244.734503 252.414507 272.403054 240.95981 292.800348 220.57318 
C 313.197643 200.18655 324.658332 172.532464 324.658332 143.701415 
C 324.658332 114.870366 313.197643 87.216281 292.800348 66.829651 
C 272.403054 46.443021 244.734503 34.988323 215.888372 34.988323 
C 187.042241 34.988323 159.37369 46.443021 138.976396 66.829651 
C 118.579101 87.216281 107.118412 114.870366 107.118412 143.701415 
C 107.118412 172.532464 118.579101 200.18655 138.976396 220.57318 
C 159.37369 240.95981 187.042241 252.414507 215.888372 252.414507 
z
" style="fill:#ffffff;stroke:#ffffff;stroke-linejoin:miter;"/>
   </g>
   <g id="matplotlib.axis_1">
    <g id="text_1">
     <!-- 22 -->
     <g transform="translate(146.421875 178.184375)scale(1 -1)">
      <defs>
       <path d="M 28.8125 13.8125 
L 60.890625 13.8125 
L 60.890625 0 
L 7.90625 0 
L 7.90625 13.8125 
L 34.515625 37.3125 
Q 38.09375 40.53125 39.796875 43.609375 
Q 41.5 46.6875 41.5 50 
Q 41.5 55.125 38.0625 58.25 
Q 34.625 61.375 28.90625 61.375 
Q 24.515625 61.375 19.28125 59.5 
Q 14.0625 57.625 8.109375 53.90625 
L 8.109375 69.921875 
Q 14.453125 72.015625 20.65625 73.109375 
Q 26.859375 74.21875 32.8125 74.21875 
Q 45.90625 74.21875 53.15625 68.453125 
Q 60.40625 62.703125 60.40625 52.390625 
Q 60.40625 46.4375 57.328125 41.28125 
Q 54.25 36.140625 44.390625 27.484375 
z
" id="DejaVuSans-Bold-50"/>
      </defs>
      <use xlink:href="#DejaVuSans-Bold-50"/>
      <use x="69.580078" xlink:href="#DejaVuSans-Bold-50"/>
     </g>
    </g>
   </g>
   <g id="matplotlib.axis_2"/>
  </g>
 </g>
 <defs>
  <clipPath id="p5332779611">
   <rect height="266.4" width="410.4" x="10.8" y="10.8"/>
  </clipPath>
 </defs>
</svg>
