<?xml version="1.0" encoding="utf-8" standalone="no"?>
<!DOCTYPE svg PUBLIC "-//W3C//DTD SVG 1.1//EN"
  "http://www.w3.org/Graphics/SVG/1.1/DTD/svg11.dtd">
<!-- Created with matplotlib (https://matplotlib.org/) -->
<svg height="288pt" version="1.1" viewBox="0 0 432 288" width="432pt" xmlns="http://www.w3.org/2000/svg" xmlns:xlink="http://www.w3.org/1999/xlink">
 <metadata>
  <rdf:RDF xmlns:cc="http://creativecommons.org/ns#" xmlns:dc="http://purl.org/dc/elements/1.1/" xmlns:rdf="http://www.w3.org/1999/02/22-rdf-syntax-ns#">
   <cc:Work>
    <dc:type rdf:resource="http://purl.org/dc/dcmitype/StillImage"/>
    <dc:date>2021-01-16T13:34:12.514580</dc:date>
    <dc:format>image/svg+xml</dc:format>
    <dc:creator>
     <cc:Agent>
      <dc:title>Matplotlib v3.3.2, https://matplotlib.org/</dc:title>
     </cc:Agent>
    </dc:creator>
   </cc:Work>
  </rdf:RDF>
 </metadata>
 <defs>
  <style type="text/css">*{stroke-linecap:butt;stroke-linejoin:round;}</style>
 </defs>
 <g id="figure_1">
  <g id="patch_1">
   <path d="M 0 288 
L 432 288 
L 432 0 
L 0 0 
z
" style="fill:none;"/>
  </g>
  <g id="axes_1">
   <g id="patch_2">
    <path d="M 335.868995 128.562435 
C 332.181498 99.388141 317.958966 72.540495 295.889533 53.093845 
C 273.820101 33.647195 245.387668 22.909091 215.966114 22.909091 
L 215.966114 143.701769 
L 335.868995 128.562435 
z
" style="fill:#008000;"/>
   </g>
   <g id="patch_3">
    <path d="M 215.966103 22.909091 
C 203.76155 22.909092 191.627106 24.75683 179.976262 28.389343 
C 168.325419 32.021855 157.292032 37.397407 147.252072 44.332823 
C 137.212113 51.268239 128.280931 59.683838 120.762863 69.292852 
C 113.244794 78.901866 107.226216 89.593896 102.912214 101.004603 
C 98.598212 112.415311 96.038351 124.413598 95.31986 136.590614 
C 94.601369 148.76763 95.732502 160.983472 98.674716 172.821877 
C 101.61693 184.660282 106.336421 195.985237 112.67237 206.410837 
C 119.008318 216.836437 126.887929 226.242901 136.0427 234.309697 
C 145.19747 242.376493 155.522221 249.01094 166.665128 253.986966 
C 177.808034 258.962992 189.641076 262.223427 201.761033 263.657168 
C 213.88099 265.090909 226.148615 264.681485 238.14588 262.442846 
C 250.143145 260.204208 261.732213 256.162075 272.518177 250.454186 
C 283.304142 244.746298 293.163083 237.438232 301.759049 228.779016 
C 310.355015 220.119801 317.589247 210.208922 323.215234 199.3841 
C 328.84122 188.559278 332.794323 176.94488 334.939839 164.936675 
C 337.085354 152.92847 337.398631 140.664421 335.868995 128.562435 
L 215.966114 143.701769 
L 215.966103 22.909091 
z
" style="fill:#ffffff;"/>
   </g>
   <g id="patch_4">
    <path clip-path="url(#pa4086782fc)" d="M 215.966114 252.415179 
C 244.81233 252.415179 272.480962 240.960449 292.878316 220.573759 
C 313.27567 200.187069 324.736393 172.532903 324.736393 143.701769 
C 324.736393 114.870636 313.27567 87.216469 292.878316 66.829779 
C 272.480962 46.443089 244.81233 34.988359 215.966114 34.988359 
C 187.119899 34.988359 159.451267 46.443089 139.053913 66.829779 
C 118.656558 87.216469 107.195836 114.870636 107.195836 143.701769 
C 107.195836 172.532903 118.656558 200.187069 139.053913 220.573759 
C 159.451267 240.960449 187.119899 252.415179 215.966114 252.415179 
z
" style="fill:#ffffff;stroke:#ffffff;stroke-linejoin:miter;"/>
   </g>
   <g id="matplotlib.axis_1">
    <g id="text_1">
     <!-- 23 -->
     <g transform="translate(146.421875 178.184375)scale(1 -1)">
      <defs>
       <path d="M 28.8125 13.8125 
L 60.890625 13.8125 
L 60.890625 0 
L 7.90625 0 
L 7.90625 13.8125 
L 34.515625 37.3125 
Q 38.09375 40.53125 39.796875 43.609375 
Q 41.5 46.6875 41.5 50 
Q 41.5 55.125 38.0625 58.25 
Q 34.625 61.375 28.90625 61.375 
Q 24.515625 61.375 19.28125 59.5 
Q 14.0625 57.625 8.109375 53.90625 
L 8.109375 69.921875 
Q 14.453125 72.015625 20.65625 73.109375 
Q 26.859375 74.21875 32.8125 74.21875 
Q 45.90625 74.21875 53.15625 68.453125 
Q 60.40625 62.703125 60.40625 52.390625 
Q 60.40625 46.4375 57.328125 41.28125 
Q 54.25 36.140625 44.390625 27.484375 
z
" id="DejaVuSans-Bold-50"/>
       <path d="M 46.578125 39.3125 
Q 53.953125 37.40625 57.78125 32.6875 
Q 61.625 27.984375 61.625 20.703125 
Q 61.625 9.859375 53.3125 4.21875 
Q 45.015625 -1.421875 29.109375 -1.421875 
Q 23.484375 -1.421875 17.84375 -0.515625 
Q 12.203125 0.390625 6.6875 2.203125 
L 6.6875 16.703125 
Q 11.96875 14.0625 17.15625 12.71875 
Q 22.359375 11.375 27.390625 11.375 
Q 34.859375 11.375 38.84375 13.953125 
Q 42.828125 16.546875 42.828125 21.390625 
Q 42.828125 26.375 38.75 28.9375 
Q 34.671875 31.5 26.703125 31.5 
L 19.1875 31.5 
L 19.1875 43.609375 
L 27.09375 43.609375 
Q 34.1875 43.609375 37.640625 45.828125 
Q 41.109375 48.046875 41.109375 52.59375 
Q 41.109375 56.78125 37.734375 59.078125 
Q 34.375 61.375 28.21875 61.375 
Q 23.6875 61.375 19.046875 60.34375 
Q 14.40625 59.328125 9.8125 57.328125 
L 9.8125 71.09375 
Q 15.375 72.65625 20.84375 73.4375 
Q 26.3125 74.21875 31.59375 74.21875 
Q 45.796875 74.21875 52.84375 69.546875 
Q 59.90625 64.890625 59.90625 55.515625 
Q 59.90625 49.125 56.53125 45.046875 
Q 53.171875 40.96875 46.578125 39.3125 
z
" id="DejaVuSans-Bold-51"/>
      </defs>
      <use xlink:href="#DejaVuSans-Bold-50"/>
      <use x="69.580078" xlink:href="#DejaVuSans-Bold-51"/>
     </g>
    </g>
   </g>
   <g id="matplotlib.axis_2"/>
  </g>
 </g>
 <defs>
  <clipPath id="pa4086782fc">
   <rect height="266.4" width="410.4" x="10.8" y="10.8"/>
  </clipPath>
 </defs>
</svg>
