<?xml version="1.0" encoding="utf-8" standalone="no"?>
<!DOCTYPE svg PUBLIC "-//W3C//DTD SVG 1.1//EN"
  "http://www.w3.org/Graphics/SVG/1.1/DTD/svg11.dtd">
<!-- Created with matplotlib (https://matplotlib.org/) -->
<svg height="288pt" version="1.1" viewBox="0 0 432 288" width="432pt" xmlns="http://www.w3.org/2000/svg" xmlns:xlink="http://www.w3.org/1999/xlink">
 <metadata>
  <rdf:RDF xmlns:cc="http://creativecommons.org/ns#" xmlns:dc="http://purl.org/dc/elements/1.1/" xmlns:rdf="http://www.w3.org/1999/02/22-rdf-syntax-ns#">
   <cc:Work>
    <dc:type rdf:resource="http://purl.org/dc/dcmitype/StillImage"/>
    <dc:date>2021-01-16T13:34:12.630811</dc:date>
    <dc:format>image/svg+xml</dc:format>
    <dc:creator>
     <cc:Agent>
      <dc:title>Matplotlib v3.3.2, https://matplotlib.org/</dc:title>
     </cc:Agent>
    </dc:creator>
   </cc:Work>
  </rdf:RDF>
 </metadata>
 <defs>
  <style type="text/css">*{stroke-linecap:butt;stroke-linejoin:round;}</style>
 </defs>
 <g id="figure_1">
  <g id="patch_1">
   <path d="M 0 288 
L 432 288 
L 432 0 
L 0 0 
z
" style="fill:none;"/>
  </g>
  <g id="axes_1">
   <g id="patch_2">
    <path d="M 336.69714 136.166326 
C 334.76679 105.500348 321.205277 76.695734 298.794824 55.661922 
C 276.384372 34.62811 246.770024 22.909091 216.027341 22.909091 
L 216.027341 143.754261 
L 336.69714 136.166326 
z
" style="fill:#008000;"/>
   </g>
   <g id="patch_3">
    <path d="M 216.02733 22.909091 
C 203.976631 22.909092 191.993363 24.709755 180.47539 28.251295 
C 168.957417 31.792835 158.033637 37.035617 148.066739 43.805574 
C 138.099841 50.575531 129.201365 58.796899 121.666755 68.196714 
C 114.132145 77.596529 108.045721 88.069597 103.609564 99.268196 
C 99.173407 110.466794 96.437161 122.265598 95.491675 134.272867 
C 94.546189 146.280137 95.402044 158.361497 98.030823 170.115827 
C 100.659603 181.870157 105.031888 193.165912 111.002511 203.628056 
C 116.973135 214.090199 124.47528 223.601647 133.259862 231.846604 
C 142.044443 240.091562 152.013153 246.977758 162.835013 252.27656 
C 173.656873 257.575362 185.210775 261.22747 197.113109 263.111628 
C 209.015444 264.995786 221.133011 265.090909 233.063488 263.393838 
C 244.993964 261.696767 256.603835 258.226494 267.507633 253.098238 
C 278.411431 247.969982 288.48713 241.241134 297.400201 233.135103 
C 306.313272 225.029072 313.963968 215.636573 320.098272 205.269454 
C 326.232576 194.902334 330.781839 183.676612 333.595019 171.965002 
C 336.408198 160.253391 337.453811 148.186957 336.69714 136.166326 
L 216.027341 143.754261 
L 216.02733 22.909091 
z
" style="fill:#ffffff;"/>
   </g>
   <g id="patch_4">
    <path clip-path="url(#pf97fba32fe)" d="M 216.027341 252.514915 
C 244.886092 252.514915 272.566748 241.055206 292.972966 220.659657 
C 313.379184 200.264107 324.844887 172.597924 324.844887 143.754261 
C 324.844887 114.910599 313.379184 87.244415 292.972966 66.848866 
C 272.566748 46.453316 244.886092 34.993608 216.027341 34.993608 
C 187.16859 34.993608 159.487934 46.453316 139.081716 66.848866 
C 118.675498 87.244415 107.209794 114.910599 107.209794 143.754261 
C 107.209794 172.597924 118.675498 200.264107 139.081716 220.659657 
C 159.487934 241.055206 187.16859 252.514915 216.027341 252.514915 
z
" style="fill:#ffffff;stroke:#ffffff;stroke-linejoin:miter;"/>
   </g>
   <g id="matplotlib.axis_1">
    <g id="text_1">
     <!-- 24 -->
     <g transform="translate(146.421875 178.184375)scale(1 -1)">
      <defs>
       <path d="M 28.8125 13.8125 
L 60.890625 13.8125 
L 60.890625 0 
L 7.90625 0 
L 7.90625 13.8125 
L 34.515625 37.3125 
Q 38.09375 40.53125 39.796875 43.609375 
Q 41.5 46.6875 41.5 50 
Q 41.5 55.125 38.0625 58.25 
Q 34.625 61.375 28.90625 61.375 
Q 24.515625 61.375 19.28125 59.5 
Q 14.0625 57.625 8.109375 53.90625 
L 8.109375 69.921875 
Q 14.453125 72.015625 20.65625 73.109375 
Q 26.859375 74.21875 32.8125 74.21875 
Q 45.90625 74.21875 53.15625 68.453125 
Q 60.40625 62.703125 60.40625 52.390625 
Q 60.40625 46.4375 57.328125 41.28125 
Q 54.25 36.140625 44.390625 27.484375 
z
" id="DejaVuSans-Bold-50"/>
       <path d="M 36.8125 57.421875 
L 16.21875 26.90625 
L 36.8125 26.90625 
z
M 33.6875 72.90625 
L 54.59375 72.90625 
L 54.59375 26.90625 
L 64.984375 26.90625 
L 64.984375 13.28125 
L 54.59375 13.28125 
L 54.59375 0 
L 36.8125 0 
L 36.8125 13.28125 
L 4.5 13.28125 
L 4.5 29.390625 
z
" id="DejaVuSans-Bold-52"/>
      </defs>
      <use xlink:href="#DejaVuSans-Bold-50"/>
      <use x="69.580078" xlink:href="#DejaVuSans-Bold-52"/>
     </g>
    </g>
   </g>
   <g id="matplotlib.axis_2"/>
  </g>
 </g>
 <defs>
  <clipPath id="pf97fba32fe">
   <rect height="266.4" width="410.4" x="10.8" y="10.8"/>
  </clipPath>
 </defs>
</svg>
