<?xml version="1.0" encoding="utf-8" standalone="no"?>
<!DOCTYPE svg PUBLIC "-//W3C//DTD SVG 1.1//EN"
  "http://www.w3.org/Graphics/SVG/1.1/DTD/svg11.dtd">
<!-- Created with matplotlib (https://matplotlib.org/) -->
<svg height="288pt" version="1.1" viewBox="0 0 432 288" width="432pt" xmlns="http://www.w3.org/2000/svg" xmlns:xlink="http://www.w3.org/1999/xlink">
 <metadata>
  <rdf:RDF xmlns:cc="http://creativecommons.org/ns#" xmlns:dc="http://purl.org/dc/elements/1.1/" xmlns:rdf="http://www.w3.org/1999/02/22-rdf-syntax-ns#">
   <cc:Work>
    <dc:type rdf:resource="http://purl.org/dc/dcmitype/StillImage"/>
    <dc:date>2021-01-16T13:34:12.990370</dc:date>
    <dc:format>image/svg+xml</dc:format>
    <dc:creator>
     <cc:Agent>
      <dc:title>Matplotlib v3.3.2, https://matplotlib.org/</dc:title>
     </cc:Agent>
    </dc:creator>
   </cc:Work>
  </rdf:RDF>
 </metadata>
 <defs>
  <style type="text/css">*{stroke-linecap:butt;stroke-linejoin:round;}</style>
 </defs>
 <g id="figure_1">
  <g id="patch_1">
   <path d="M 0 288 
L 432 288 
L 432 0 
L 0 0 
z
" style="fill:none;"/>
  </g>
  <g id="axes_1">
   <g id="patch_2">
    <path d="M 335.779498 158.183555 
C 337.918487 141.260576 336.429258 124.074772 331.411047 107.771349 
C 326.392837 91.467926 317.959643 76.417247 306.673427 63.62224 
C 295.387211 50.827233 281.50436 40.578561 265.949983 33.559162 
C 250.395605 26.539763 233.523047 22.909095 216.456642 22.909095 
L 216.456642 143.117446 
L 335.779498 158.183555 
z
" style="fill:#008000;"/>
   </g>
   <g id="patch_3">
    <path d="M 216.456664 22.909095 
C 193.314969 22.909091 170.657739 29.584724 151.216547 42.131174 
C 131.775356 54.677624 116.364198 72.569578 106.841055 93.649966 
C 97.317911 114.730355 94.081513 138.116551 97.522042 160.989097 
C 100.962571 183.861643 110.935974 205.262875 126.239849 222.612643 
C 141.543725 239.962411 161.537306 252.534288 183.810152 258.812599 
C 206.082997 265.090909 229.702551 264.812783 251.821223 258.011751 
C 273.939894 251.210719 293.631584 238.171538 308.522245 220.466222 
C 323.412906 202.760905 332.879073 181.130767 335.779498 158.183555 
L 216.456642 143.117446 
L 216.456664 22.909095 
z
" style="fill:#ffffff;"/>
   </g>
   <g id="patch_4">
    <path clip-path="url(#p8398436304)" d="M 216.456642 251.304961 
C 245.163315 251.304961 272.698102 239.905642 292.996785 219.617572 
C 313.295468 199.329501 324.700751 171.80911 324.700751 143.117446 
C 324.700751 114.425781 313.295468 86.90539 292.996785 66.61732 
C 272.698102 46.329249 245.163315 34.92993 216.456642 34.92993 
C 187.749969 34.92993 160.215182 46.329249 139.916498 66.61732 
C 119.617815 86.90539 108.212533 114.425781 108.212533 143.117446 
C 108.212533 171.80911 119.617815 199.329501 139.916498 219.617572 
C 160.215182 239.905642 187.749969 251.304961 216.456642 251.304961 
z
" style="fill:#ffffff;stroke:#ffffff;stroke-linejoin:miter;"/>
   </g>
   <g id="matplotlib.axis_1">
    <g id="text_1">
     <!-- 27 -->
     <g transform="translate(146.421875 178.184375)scale(1 -1)">
      <defs>
       <path d="M 28.8125 13.8125 
L 60.890625 13.8125 
L 60.890625 0 
L 7.90625 0 
L 7.90625 13.8125 
L 34.515625 37.3125 
Q 38.09375 40.53125 39.796875 43.609375 
Q 41.5 46.6875 41.5 50 
Q 41.5 55.125 38.0625 58.25 
Q 34.625 61.375 28.90625 61.375 
Q 24.515625 61.375 19.28125 59.5 
Q 14.0625 57.625 8.109375 53.90625 
L 8.109375 69.921875 
Q 14.453125 72.015625 20.65625 73.109375 
Q 26.859375 74.21875 32.8125 74.21875 
Q 45.90625 74.21875 53.15625 68.453125 
Q 60.40625 62.703125 60.40625 52.390625 
Q 60.40625 46.4375 57.328125 41.28125 
Q 54.25 36.140625 44.390625 27.484375 
z
" id="DejaVuSans-Bold-50"/>
       <path d="M 6.6875 72.90625 
L 61.625 72.90625 
L 61.625 62.3125 
L 33.203125 0 
L 14.890625 0 
L 41.796875 59.078125 
L 6.6875 59.078125 
z
" id="DejaVuSans-Bold-55"/>
      </defs>
      <use xlink:href="#DejaVuSans-Bold-50"/>
      <use x="69.580078" xlink:href="#DejaVuSans-Bold-55"/>
     </g>
    </g>
   </g>
   <g id="matplotlib.axis_2"/>
  </g>
 </g>
 <defs>
  <clipPath id="p8398436304">
   <rect height="266.4" width="410.4" x="10.8" y="10.8"/>
  </clipPath>
 </defs>
</svg>
