<?xml version="1.0" encoding="utf-8" standalone="no"?>
<!DOCTYPE svg PUBLIC "-//W3C//DTD SVG 1.1//EN"
  "http://www.w3.org/Graphics/SVG/1.1/DTD/svg11.dtd">
<!-- Created with matplotlib (https://matplotlib.org/) -->
<svg height="288pt" version="1.1" viewBox="0 0 432 288" width="432pt" xmlns="http://www.w3.org/2000/svg" xmlns:xlink="http://www.w3.org/1999/xlink">
 <metadata>
  <rdf:RDF xmlns:cc="http://creativecommons.org/ns#" xmlns:dc="http://purl.org/dc/elements/1.1/" xmlns:rdf="http://www.w3.org/1999/02/22-rdf-syntax-ns#">
   <cc:Work>
    <dc:type rdf:resource="http://purl.org/dc/dcmitype/StillImage"/>
    <dc:date>2021-01-16T13:34:09.924260</dc:date>
    <dc:format>image/svg+xml</dc:format>
    <dc:creator>
     <cc:Agent>
      <dc:title>Matplotlib v3.3.2, https://matplotlib.org/</dc:title>
     </cc:Agent>
    </dc:creator>
   </cc:Work>
  </rdf:RDF>
 </metadata>
 <defs>
  <style type="text/css">*{stroke-linecap:butt;stroke-linejoin:round;}</style>
 </defs>
 <g id="figure_1">
  <g id="patch_1">
   <path d="M 0 288 
L 432 288 
L 432 0 
L 0 0 
z
" style="fill:none;"/>
  </g>
  <g id="axes_1">
   <g id="patch_2">
    <path d="M 238.430879 25.045883 
C 234.70549 24.335599 230.948675 23.801204 227.172941 23.444479 
C 223.397207 23.087754 219.606748 22.909094 215.814182 22.909094 
L 215.814182 143.544773 
L 238.430879 25.045883 
z
" style="fill:#008000;"/>
   </g>
   <g id="patch_3">
    <path d="M 215.814203 22.909094 
C 200.442575 22.909091 185.211508 25.84404 170.94166 31.555806 
C 156.671812 37.267571 143.624158 45.651692 132.50171 56.256428 
C 121.379262 66.861165 112.385435 79.492572 106.00482 93.470063 
C 99.624205 107.447555 95.973494 122.515502 95.249389 137.862039 
C 94.525284 153.208575 96.741028 168.553034 101.777236 183.068649 
C 106.813444 197.584264 114.57801 211.005565 124.652577 222.609408 
C 134.727144 234.213251 146.927462 243.787417 160.596172 250.816046 
C 174.264882 257.844675 189.152004 262.199223 204.455413 263.645066 
C 219.758822 265.090909 235.19864 263.601604 249.942963 259.257396 
C 264.687286 254.913188 278.466462 247.793525 290.538063 238.282019 
C 302.609664 228.770513 312.752917 217.041116 320.4213 203.725811 
C 328.089683 190.410506 333.142951 175.752813 335.308834 160.542494 
C 337.474716 145.332174 336.7136 129.847404 333.066497 114.922509 
C 329.419393 99.997614 322.953002 85.905549 314.015734 73.4056 
C 305.078467 60.905652 293.833774 50.226427 280.887523 41.943325 
C 267.941273 33.660224 253.530234 27.924733 238.430879 25.045883 
L 215.814182 143.544773 
L 215.814203 22.909094 
z
" style="fill:#ffffff;"/>
   </g>
   <g id="patch_4">
    <path clip-path="url(#pabf62931d4)" d="M 215.814182 252.116885 
C 244.622905 252.116885 272.255575 240.677042 292.626418 220.316849 
C 312.997261 199.956657 324.443088 172.338434 324.443088 143.544773 
C 324.443088 114.751112 312.997261 87.132889 292.626418 66.772697 
C 272.255575 46.412504 244.622905 34.972662 215.814182 34.972662 
C 187.00546 34.972662 159.372789 46.412504 139.001946 66.772697 
C 118.631103 87.132889 107.185276 114.751112 107.185276 143.544773 
C 107.185276 172.338434 118.631103 199.956657 139.001946 220.316849 
C 159.372789 240.677042 187.00546 252.116885 215.814182 252.116885 
z
" style="fill:#ffffff;stroke:#ffffff;stroke-linejoin:miter;"/>
   </g>
   <g id="matplotlib.axis_1">
    <g id="text_1">
     <!-- 3 -->
     <g transform="translate(181.210938 178.184375)scale(1 -1)">
      <defs>
       <path d="M 46.578125 39.3125 
Q 53.953125 37.40625 57.78125 32.6875 
Q 61.625 27.984375 61.625 20.703125 
Q 61.625 9.859375 53.3125 4.21875 
Q 45.015625 -1.421875 29.109375 -1.421875 
Q 23.484375 -1.421875 17.84375 -0.515625 
Q 12.203125 0.390625 6.6875 2.203125 
L 6.6875 16.703125 
Q 11.96875 14.0625 17.15625 12.71875 
Q 22.359375 11.375 27.390625 11.375 
Q 34.859375 11.375 38.84375 13.953125 
Q 42.828125 16.546875 42.828125 21.390625 
Q 42.828125 26.375 38.75 28.9375 
Q 34.671875 31.5 26.703125 31.5 
L 19.1875 31.5 
L 19.1875 43.609375 
L 27.09375 43.609375 
Q 34.1875 43.609375 37.640625 45.828125 
Q 41.109375 48.046875 41.109375 52.59375 
Q 41.109375 56.78125 37.734375 59.078125 
Q 34.375 61.375 28.21875 61.375 
Q 23.6875 61.375 19.046875 60.34375 
Q 14.40625 59.328125 9.8125 57.328125 
L 9.8125 71.09375 
Q 15.375 72.65625 20.84375 73.4375 
Q 26.3125 74.21875 31.59375 74.21875 
Q 45.796875 74.21875 52.84375 69.546875 
Q 59.90625 64.890625 59.90625 55.515625 
Q 59.90625 49.125 56.53125 45.046875 
Q 53.171875 40.96875 46.578125 39.3125 
z
" id="DejaVuSans-Bold-51"/>
      </defs>
      <use xlink:href="#DejaVuSans-Bold-51"/>
     </g>
    </g>
   </g>
   <g id="matplotlib.axis_2"/>
  </g>
 </g>
 <defs>
  <clipPath id="pabf62931d4">
   <rect height="266.4" width="410.4" x="10.8" y="10.8"/>
  </clipPath>
 </defs>
</svg>
