<?xml version="1.0" encoding="utf-8" standalone="no"?>
<!DOCTYPE svg PUBLIC "-//W3C//DTD SVG 1.1//EN"
  "http://www.w3.org/Graphics/SVG/1.1/DTD/svg11.dtd">
<!-- Created with matplotlib (https://matplotlib.org/) -->
<svg height="288pt" version="1.1" viewBox="0 0 432 288" width="432pt" xmlns="http://www.w3.org/2000/svg" xmlns:xlink="http://www.w3.org/1999/xlink">
 <metadata>
  <rdf:RDF xmlns:cc="http://creativecommons.org/ns#" xmlns:dc="http://purl.org/dc/elements/1.1/" xmlns:rdf="http://www.w3.org/1999/02/22-rdf-syntax-ns#">
   <cc:Work>
    <dc:type rdf:resource="http://purl.org/dc/dcmitype/StillImage"/>
    <dc:date>2021-01-16T13:34:13.467502</dc:date>
    <dc:format>image/svg+xml</dc:format>
    <dc:creator>
     <cc:Agent>
      <dc:title>Matplotlib v3.3.2, https://matplotlib.org/</dc:title>
     </cc:Agent>
    </dc:creator>
   </cc:Work>
  </rdf:RDF>
 </metadata>
 <defs>
  <style type="text/css">*{stroke-linecap:butt;stroke-linejoin:round;}</style>
 </defs>
 <g id="figure_1">
  <g id="patch_1">
   <path d="M 0 288 
L 432 288 
L 432 0 
L 0 0 
z
" style="fill:none;"/>
  </g>
  <g id="axes_1">
   <g id="patch_2">
    <path d="M 327.665064 187.432769 
C 334.889662 169.195058 337.54118 149.464601 335.387599 129.967901 
C 333.234017 110.4712 326.34004 91.794025 315.308919 75.57071 
C 304.277798 59.347394 289.440958 46.06536 272.096688 36.886843 
C 254.752419 27.708326 235.421819 22.909091 215.796401 22.909091 
L 215.796401 143.163988 
L 327.665064 187.432769 
z
" style="fill:#008000;"/>
   </g>
   <g id="patch_3">
    <path d="M 215.796401 22.909091 
C 193.92991 22.909091 172.471581 28.86698 153.738175 40.139511 
C 135.00477 51.412041 119.695646 67.578387 109.463663 86.893136 
C 99.23168 106.207885 94.45882 127.949978 95.660387 149.772015 
C 96.861954 171.594052 103.993093 192.681371 116.283883 210.757265 
C 128.574674 228.833159 145.566276 243.222817 165.42418 252.372651 
C 185.282084 261.522484 207.264953 265.090909 228.999391 262.69266 
C 250.733829 260.29441 271.408444 252.019017 288.791087 238.75994 
C 306.17373 225.500862 319.615471 207.753088 327.665064 187.432769 
L 215.796401 143.163988 
L 215.796401 22.909091 
z
" style="fill:#ffffff;"/>
   </g>
   <g id="patch_4">
    <path clip-path="url(#p602ed10b63)" d="M 215.796401 251.393394 
C 244.51419 251.393394 272.059638 239.989661 292.366182 219.693735 
C 312.672725 199.397809 324.082423 171.866762 324.082423 143.163988 
C 324.082423 114.461213 312.672725 86.930166 292.366182 66.63424 
C 272.059638 46.338314 244.51419 34.934581 215.796401 34.934581 
C 187.078612 34.934581 159.533164 46.338314 139.22662 66.63424 
C 118.920077 86.930166 107.510379 114.461213 107.510379 143.163988 
C 107.510379 171.866762 118.920077 199.397809 139.22662 219.693735 
C 159.533164 239.989661 187.078612 251.393394 215.796401 251.393394 
z
" style="fill:#ffffff;stroke:#ffffff;stroke-linejoin:miter;"/>
   </g>
   <g id="matplotlib.axis_1">
    <g id="text_1">
     <!-- 31 -->
     <g transform="translate(146.421875 178.184375)scale(1 -1)">
      <defs>
       <path d="M 46.578125 39.3125 
Q 53.953125 37.40625 57.78125 32.6875 
Q 61.625 27.984375 61.625 20.703125 
Q 61.625 9.859375 53.3125 4.21875 
Q 45.015625 -1.421875 29.109375 -1.421875 
Q 23.484375 -1.421875 17.84375 -0.515625 
Q 12.203125 0.390625 6.6875 2.203125 
L 6.6875 16.703125 
Q 11.96875 14.0625 17.15625 12.71875 
Q 22.359375 11.375 27.390625 11.375 
Q 34.859375 11.375 38.84375 13.953125 
Q 42.828125 16.546875 42.828125 21.390625 
Q 42.828125 26.375 38.75 28.9375 
Q 34.671875 31.5 26.703125 31.5 
L 19.1875 31.5 
L 19.1875 43.609375 
L 27.09375 43.609375 
Q 34.1875 43.609375 37.640625 45.828125 
Q 41.109375 48.046875 41.109375 52.59375 
Q 41.109375 56.78125 37.734375 59.078125 
Q 34.375 61.375 28.21875 61.375 
Q 23.6875 61.375 19.046875 60.34375 
Q 14.40625 59.328125 9.8125 57.328125 
L 9.8125 71.09375 
Q 15.375 72.65625 20.84375 73.4375 
Q 26.3125 74.21875 31.59375 74.21875 
Q 45.796875 74.21875 52.84375 69.546875 
Q 59.90625 64.890625 59.90625 55.515625 
Q 59.90625 49.125 56.53125 45.046875 
Q 53.171875 40.96875 46.578125 39.3125 
z
" id="DejaVuSans-Bold-51"/>
       <path d="M 11.71875 12.984375 
L 28.328125 12.984375 
L 28.328125 60.109375 
L 11.28125 56.59375 
L 11.28125 69.390625 
L 28.21875 72.90625 
L 46.09375 72.90625 
L 46.09375 12.984375 
L 62.703125 12.984375 
L 62.703125 0 
L 11.71875 0 
z
" id="DejaVuSans-Bold-49"/>
      </defs>
      <use xlink:href="#DejaVuSans-Bold-51"/>
      <use x="69.580078" xlink:href="#DejaVuSans-Bold-49"/>
     </g>
    </g>
   </g>
   <g id="matplotlib.axis_2"/>
  </g>
 </g>
 <defs>
  <clipPath id="p602ed10b63">
   <rect height="266.4" width="410.4" x="10.8" y="10.8"/>
  </clipPath>
 </defs>
</svg>
