<?xml version="1.0" encoding="utf-8" standalone="no"?>
<!DOCTYPE svg PUBLIC "-//W3C//DTD SVG 1.1//EN"
  "http://www.w3.org/Graphics/SVG/1.1/DTD/svg11.dtd">
<!-- Created with matplotlib (https://matplotlib.org/) -->
<svg height="288pt" version="1.1" viewBox="0 0 432 288" width="432pt" xmlns="http://www.w3.org/2000/svg" xmlns:xlink="http://www.w3.org/1999/xlink">
 <metadata>
  <rdf:RDF xmlns:cc="http://creativecommons.org/ns#" xmlns:dc="http://purl.org/dc/elements/1.1/" xmlns:rdf="http://www.w3.org/1999/02/22-rdf-syntax-ns#">
   <cc:Work>
    <dc:type rdf:resource="http://purl.org/dc/dcmitype/StillImage"/>
    <dc:date>2021-01-16T13:34:13.717054</dc:date>
    <dc:format>image/svg+xml</dc:format>
    <dc:creator>
     <cc:Agent>
      <dc:title>Matplotlib v3.3.2, https://matplotlib.org/</dc:title>
     </cc:Agent>
    </dc:creator>
   </cc:Work>
  </rdf:RDF>
 </metadata>
 <defs>
  <style type="text/css">*{stroke-linecap:butt;stroke-linejoin:round;}</style>
 </defs>
 <g id="figure_1">
  <g id="patch_1">
   <path d="M 0 288 
L 432 288 
L 432 0 
L 0 0 
z
" style="fill:none;"/>
  </g>
  <g id="axes_1">
   <g id="patch_2">
    <path d="M 321.952228 202.098792 
C 332.079943 183.686183 337.233673 162.949439 336.903466 141.940425 
C 336.573259 120.931411 330.770376 100.366697 320.069005 82.281124 
C 309.367633 64.195551 294.13277 49.205978 275.87188 38.795595 
C 257.61099 28.385212 236.946909 22.909095 215.924312 22.909095 
L 215.924312 143.839916 
L 321.952228 202.098792 
z
" style="fill:#008000;"/>
   </g>
   <g id="patch_3">
    <path d="M 215.924335 22.909095 
C 194.579632 22.909091 173.610227 28.554299 155.153174 39.269399 
C 136.69612 49.984499 121.400471 65.392689 110.82505 83.923676 
C 100.249629 102.454662 94.766327 123.456792 94.933963 144.789677 
C 95.101599 166.122562 100.914278 187.03602 111.779613 205.398699 
C 122.644949 223.761377 138.180854 238.927543 156.804021 249.351568 
C 175.427188 259.775592 196.482721 265.090909 217.824791 264.755819 
C 239.166861 264.420728 260.044961 258.447014 278.331343 247.443475 
C 296.617724 236.439936 311.669338 220.793518 321.952228 202.098792 
L 215.924312 143.839916 
L 215.924335 22.909095 
z
" style="fill:#ffffff;"/>
   </g>
   <g id="patch_4">
    <path clip-path="url(#paff5cfa40f)" d="M 215.924312 252.677655 
C 244.803517 252.677655 272.503792 241.209824 292.924473 220.79982 
C 313.345155 200.389815 324.818984 172.704022 324.818984 143.839916 
C 324.818984 114.97581 313.345155 87.290018 292.924473 66.880013 
C 272.503792 46.470008 244.803517 35.002177 215.924312 35.002177 
C 187.045107 35.002177 159.344832 46.470008 138.92415 66.880013 
C 118.503469 87.290018 107.029639 114.97581 107.029639 143.839916 
C 107.029639 172.704022 118.503469 200.389815 138.92415 220.79982 
C 159.344832 241.209824 187.045107 252.677655 215.924312 252.677655 
z
" style="fill:#ffffff;stroke:#ffffff;stroke-linejoin:miter;"/>
   </g>
   <g id="matplotlib.axis_1">
    <g id="text_1">
     <!-- 33 -->
     <g transform="translate(146.421875 178.184375)scale(1 -1)">
      <defs>
       <path d="M 46.578125 39.3125 
Q 53.953125 37.40625 57.78125 32.6875 
Q 61.625 27.984375 61.625 20.703125 
Q 61.625 9.859375 53.3125 4.21875 
Q 45.015625 -1.421875 29.109375 -1.421875 
Q 23.484375 -1.421875 17.84375 -0.515625 
Q 12.203125 0.390625 6.6875 2.203125 
L 6.6875 16.703125 
Q 11.96875 14.0625 17.15625 12.71875 
Q 22.359375 11.375 27.390625 11.375 
Q 34.859375 11.375 38.84375 13.953125 
Q 42.828125 16.546875 42.828125 21.390625 
Q 42.828125 26.375 38.75 28.9375 
Q 34.671875 31.5 26.703125 31.5 
L 19.1875 31.5 
L 19.1875 43.609375 
L 27.09375 43.609375 
Q 34.1875 43.609375 37.640625 45.828125 
Q 41.109375 48.046875 41.109375 52.59375 
Q 41.109375 56.78125 37.734375 59.078125 
Q 34.375 61.375 28.21875 61.375 
Q 23.6875 61.375 19.046875 60.34375 
Q 14.40625 59.328125 9.8125 57.328125 
L 9.8125 71.09375 
Q 15.375 72.65625 20.84375 73.4375 
Q 26.3125 74.21875 31.59375 74.21875 
Q 45.796875 74.21875 52.84375 69.546875 
Q 59.90625 64.890625 59.90625 55.515625 
Q 59.90625 49.125 56.53125 45.046875 
Q 53.171875 40.96875 46.578125 39.3125 
z
" id="DejaVuSans-Bold-51"/>
      </defs>
      <use xlink:href="#DejaVuSans-Bold-51"/>
      <use x="69.580078" xlink:href="#DejaVuSans-Bold-51"/>
     </g>
    </g>
   </g>
   <g id="matplotlib.axis_2"/>
  </g>
 </g>
 <defs>
  <clipPath id="paff5cfa40f">
   <rect height="266.4" width="410.4" x="10.8" y="10.8"/>
  </clipPath>
 </defs>
</svg>
