<?xml version="1.0" encoding="utf-8" standalone="no"?>
<!DOCTYPE svg PUBLIC "-//W3C//DTD SVG 1.1//EN"
  "http://www.w3.org/Graphics/SVG/1.1/DTD/svg11.dtd">
<!-- Created with matplotlib (https://matplotlib.org/) -->
<svg height="288pt" version="1.1" viewBox="0 0 432 288" width="432pt" xmlns="http://www.w3.org/2000/svg" xmlns:xlink="http://www.w3.org/1999/xlink">
 <metadata>
  <rdf:RDF xmlns:cc="http://creativecommons.org/ns#" xmlns:dc="http://purl.org/dc/elements/1.1/" xmlns:rdf="http://www.w3.org/1999/02/22-rdf-syntax-ns#">
   <cc:Work>
    <dc:type rdf:resource="http://purl.org/dc/dcmitype/StillImage"/>
    <dc:date>2021-01-16T13:34:14.285334</dc:date>
    <dc:format>image/svg+xml</dc:format>
    <dc:creator>
     <cc:Agent>
      <dc:title>Matplotlib v3.3.2, https://matplotlib.org/</dc:title>
     </cc:Agent>
    </dc:creator>
   </cc:Work>
  </rdf:RDF>
 </metadata>
 <defs>
  <style type="text/css">*{stroke-linecap:butt;stroke-linejoin:round;}</style>
 </defs>
 <g id="figure_1">
  <g id="patch_1">
   <path d="M 0 288 
L 432 288 
L 432 0 
L 0 0 
z
" style="fill:none;"/>
  </g>
  <g id="axes_1">
   <g id="patch_2">
    <path d="M 303.234795 225.513704 
C 319.304915 208.409713 330.021452 186.973772 334.057582 163.85988 
C 338.093713 140.745988 335.275696 116.949124 325.952431 95.415594 
C 316.629166 73.882064 301.201991 55.538817 281.580954 42.656943 
C 261.959917 29.775069 238.98964 22.909091 215.514091 22.909091 
L 215.514091 143.181543 
L 303.234795 225.513704 
z
" style="fill:#008000;"/>
   </g>
   <g id="patch_3">
    <path d="M 215.514091 22.909091 
C 195.56607 22.909091 175.927594 27.866679 158.372073 37.334172 
C 140.816552 46.801664 125.888824 60.485236 114.936906 77.149222 
C 103.984987 93.813207 97.348772 112.940437 95.627529 132.803669 
C 93.906287 152.6669 97.153436 172.649675 105.07575 190.947492 
C 112.998064 209.245309 125.349673 225.290292 141.015191 237.633534 
C 156.680709 249.976777 175.173955 258.235204 194.824937 261.663057 
C 214.475918 265.090909 234.674763 263.581803 253.59746 257.272015 
C 272.520156 250.962227 289.579435 240.047583 303.234795 225.513704 
L 215.514091 143.181543 
L 215.514091 22.909091 
z
" style="fill:#ffffff;"/>
   </g>
   <g id="patch_4">
    <path clip-path="url(#p1472cbdaee)" d="M 215.514091 251.42675 
C 244.236072 251.42675 271.785542 240.021352 292.095049 219.722463 
C 312.404557 199.423573 323.815921 171.888507 323.815921 143.181543 
C 323.815921 114.474578 312.404557 86.939512 292.095049 66.640623 
C 271.785542 46.341734 244.236072 34.936336 215.514091 34.936336 
C 186.792109 34.936336 159.24264 46.341734 138.933132 66.640623 
C 118.623624 86.939512 107.21226 114.474578 107.21226 143.181543 
C 107.21226 171.888507 118.623624 199.423573 138.933132 219.722463 
C 159.24264 240.021352 186.792109 251.42675 215.514091 251.42675 
z
" style="fill:#ffffff;stroke:#ffffff;stroke-linejoin:miter;"/>
   </g>
   <g id="matplotlib.axis_1">
    <g id="text_1">
     <!-- 37 -->
     <g transform="translate(146.421875 178.184375)scale(1 -1)">
      <defs>
       <path d="M 46.578125 39.3125 
Q 53.953125 37.40625 57.78125 32.6875 
Q 61.625 27.984375 61.625 20.703125 
Q 61.625 9.859375 53.3125 4.21875 
Q 45.015625 -1.421875 29.109375 -1.421875 
Q 23.484375 -1.421875 17.84375 -0.515625 
Q 12.203125 0.390625 6.6875 2.203125 
L 6.6875 16.703125 
Q 11.96875 14.0625 17.15625 12.71875 
Q 22.359375 11.375 27.390625 11.375 
Q 34.859375 11.375 38.84375 13.953125 
Q 42.828125 16.546875 42.828125 21.390625 
Q 42.828125 26.375 38.75 28.9375 
Q 34.671875 31.5 26.703125 31.5 
L 19.1875 31.5 
L 19.1875 43.609375 
L 27.09375 43.609375 
Q 34.1875 43.609375 37.640625 45.828125 
Q 41.109375 48.046875 41.109375 52.59375 
Q 41.109375 56.78125 37.734375 59.078125 
Q 34.375 61.375 28.21875 61.375 
Q 23.6875 61.375 19.046875 60.34375 
Q 14.40625 59.328125 9.8125 57.328125 
L 9.8125 71.09375 
Q 15.375 72.65625 20.84375 73.4375 
Q 26.3125 74.21875 31.59375 74.21875 
Q 45.796875 74.21875 52.84375 69.546875 
Q 59.90625 64.890625 59.90625 55.515625 
Q 59.90625 49.125 56.53125 45.046875 
Q 53.171875 40.96875 46.578125 39.3125 
z
" id="DejaVuSans-Bold-51"/>
       <path d="M 6.6875 72.90625 
L 61.625 72.90625 
L 61.625 62.3125 
L 33.203125 0 
L 14.890625 0 
L 41.796875 59.078125 
L 6.6875 59.078125 
z
" id="DejaVuSans-Bold-55"/>
      </defs>
      <use xlink:href="#DejaVuSans-Bold-51"/>
      <use x="69.580078" xlink:href="#DejaVuSans-Bold-55"/>
     </g>
    </g>
   </g>
   <g id="matplotlib.axis_2"/>
  </g>
 </g>
 <defs>
  <clipPath id="p1472cbdaee">
   <rect height="266.4" width="410.4" x="10.8" y="10.8"/>
  </clipPath>
 </defs>
</svg>
