<?xml version="1.0" encoding="utf-8" standalone="no"?>
<!DOCTYPE svg PUBLIC "-//W3C//DTD SVG 1.1//EN"
  "http://www.w3.org/Graphics/SVG/1.1/DTD/svg11.dtd">
<!-- Created with matplotlib (https://matplotlib.org/) -->
<svg height="288pt" version="1.1" viewBox="0 0 432 288" width="432pt" xmlns="http://www.w3.org/2000/svg" xmlns:xlink="http://www.w3.org/1999/xlink">
 <metadata>
  <rdf:RDF xmlns:cc="http://creativecommons.org/ns#" xmlns:dc="http://purl.org/dc/elements/1.1/" xmlns:rdf="http://www.w3.org/1999/02/22-rdf-syntax-ns#">
   <cc:Work>
    <dc:type rdf:resource="http://purl.org/dc/dcmitype/StillImage"/>
    <dc:date>2021-01-16T13:34:14.491372</dc:date>
    <dc:format>image/svg+xml</dc:format>
    <dc:creator>
     <cc:Agent>
      <dc:title>Matplotlib v3.3.2, https://matplotlib.org/</dc:title>
     </cc:Agent>
    </dc:creator>
   </cc:Work>
  </rdf:RDF>
 </metadata>
 <defs>
  <style type="text/css">*{stroke-linecap:butt;stroke-linejoin:round;}</style>
 </defs>
 <g id="figure_1">
  <g id="patch_1">
   <path d="M 0 288 
L 432 288 
L 432 0 
L 0 0 
z
" style="fill:none;"/>
  </g>
  <g id="axes_1">
   <g id="patch_2">
    <path d="M 292.404587 236.09003 
C 311.506329 220.295954 325.272453 198.987138 331.814111 175.087359 
C 338.355769 151.18758 337.359428 125.842324 328.961798 102.529205 
C 320.564167 79.216087 305.167733 59.052473 284.885036 44.805009 
C 264.602339 30.557544 240.405502 22.909091 215.614567 22.909091 
L 215.614567 143.31539 
L 292.404587 236.09003 
z
" style="fill:#008000;"/>
   </g>
   <g id="patch_3">
    <path d="M 215.614567 22.909091 
C 196.284387 22.909091 177.235175 27.559162 160.081313 36.465222 
C 142.927451 45.371281 128.16761 58.274424 117.052655 74.081138 
C 105.9377 89.887851 98.790749 108.138625 96.21749 127.286746 
C 93.644231 146.434867 95.719471 165.923688 102.267337 184.101574 
C 108.815203 202.27946 119.645345 218.61797 133.839933 231.73245 
C 148.03452 244.846929 165.180908 254.356135 183.825978 259.45418 
C 202.471047 264.552226 222.072776 265.090909 240.969959 261.024578 
C 259.867142 256.958246 277.510428 248.40511 292.404587 236.09003 
L 215.614567 143.31539 
L 215.614567 22.909091 
z
" style="fill:#ffffff;"/>
   </g>
   <g id="patch_4">
    <path clip-path="url(#p9ab5093c6a)" d="M 215.614567 251.681058 
C 244.368512 251.681058 271.948641 240.262968 292.28075 219.941489 
C 312.612859 199.62001 324.036923 172.054301 324.036923 143.31539 
C 324.036923 114.576478 312.612859 87.010769 292.28075 66.68929 
C 271.948641 46.367811 244.368512 34.949721 215.614567 34.949721 
C 186.860623 34.949721 159.280494 46.367811 138.948385 66.68929 
C 118.616275 87.010769 107.192212 114.576478 107.192212 143.31539 
C 107.192212 172.054301 118.616275 199.62001 138.948385 219.941489 
C 159.280494 240.262968 186.860623 251.681058 215.614567 251.681058 
z
" style="fill:#ffffff;stroke:#ffffff;stroke-linejoin:miter;"/>
   </g>
   <g id="matplotlib.axis_1">
    <g id="text_1">
     <!-- 39 -->
     <g transform="translate(146.421875 178.184375)scale(1 -1)">
      <defs>
       <path d="M 46.578125 39.3125 
Q 53.953125 37.40625 57.78125 32.6875 
Q 61.625 27.984375 61.625 20.703125 
Q 61.625 9.859375 53.3125 4.21875 
Q 45.015625 -1.421875 29.109375 -1.421875 
Q 23.484375 -1.421875 17.84375 -0.515625 
Q 12.203125 0.390625 6.6875 2.203125 
L 6.6875 16.703125 
Q 11.96875 14.0625 17.15625 12.71875 
Q 22.359375 11.375 27.390625 11.375 
Q 34.859375 11.375 38.84375 13.953125 
Q 42.828125 16.546875 42.828125 21.390625 
Q 42.828125 26.375 38.75 28.9375 
Q 34.671875 31.5 26.703125 31.5 
L 19.1875 31.5 
L 19.1875 43.609375 
L 27.09375 43.609375 
Q 34.1875 43.609375 37.640625 45.828125 
Q 41.109375 48.046875 41.109375 52.59375 
Q 41.109375 56.78125 37.734375 59.078125 
Q 34.375 61.375 28.21875 61.375 
Q 23.6875 61.375 19.046875 60.34375 
Q 14.40625 59.328125 9.8125 57.328125 
L 9.8125 71.09375 
Q 15.375 72.65625 20.84375 73.4375 
Q 26.3125 74.21875 31.59375 74.21875 
Q 45.796875 74.21875 52.84375 69.546875 
Q 59.90625 64.890625 59.90625 55.515625 
Q 59.90625 49.125 56.53125 45.046875 
Q 53.171875 40.96875 46.578125 39.3125 
z
" id="DejaVuSans-Bold-51"/>
       <path d="M 10.015625 1.609375 
L 10.015625 15.09375 
Q 14.5 12.984375 18.59375 11.9375 
Q 22.703125 10.890625 26.703125 10.890625 
Q 35.109375 10.890625 39.796875 15.546875 
Q 44.484375 20.21875 45.3125 29.390625 
Q 42 26.953125 38.234375 25.734375 
Q 34.46875 24.515625 30.078125 24.515625 
Q 18.890625 24.515625 12.03125 31.03125 
Q 5.171875 37.546875 5.171875 48.1875 
Q 5.171875 59.96875 12.8125 67.046875 
Q 20.453125 74.125 33.296875 74.125 
Q 47.5625 74.125 55.375 64.5 
Q 63.1875 54.890625 63.1875 37.3125 
Q 63.1875 19.234375 54.046875 8.90625 
Q 44.921875 -1.421875 29 -1.421875 
Q 23.875 -1.421875 19.1875 -0.65625 
Q 14.5 0.09375 10.015625 1.609375 
z
M 33.203125 36.71875 
Q 38.140625 36.71875 40.625 39.90625 
Q 43.109375 43.109375 43.109375 49.515625 
Q 43.109375 55.859375 40.625 59.078125 
Q 38.140625 62.3125 33.203125 62.3125 
Q 28.265625 62.3125 25.78125 59.078125 
Q 23.296875 55.859375 23.296875 49.515625 
Q 23.296875 43.109375 25.78125 39.90625 
Q 28.265625 36.71875 33.203125 36.71875 
z
" id="DejaVuSans-Bold-57"/>
      </defs>
      <use xlink:href="#DejaVuSans-Bold-51"/>
      <use x="69.580078" xlink:href="#DejaVuSans-Bold-57"/>
     </g>
    </g>
   </g>
   <g id="matplotlib.axis_2"/>
  </g>
 </g>
 <defs>
  <clipPath id="p9ab5093c6a">
   <rect height="266.4" width="410.4" x="10.8" y="10.8"/>
  </clipPath>
 </defs>
</svg>
