<?xml version="1.0" encoding="utf-8" standalone="no"?>
<!DOCTYPE svg PUBLIC "-//W3C//DTD SVG 1.1//EN"
  "http://www.w3.org/Graphics/SVG/1.1/DTD/svg11.dtd">
<!-- Created with matplotlib (https://matplotlib.org/) -->
<svg height="288pt" version="1.1" viewBox="0 0 432 288" width="432pt" xmlns="http://www.w3.org/2000/svg" xmlns:xlink="http://www.w3.org/1999/xlink">
 <metadata>
  <rdf:RDF xmlns:cc="http://creativecommons.org/ns#" xmlns:dc="http://purl.org/dc/elements/1.1/" xmlns:rdf="http://www.w3.org/1999/02/22-rdf-syntax-ns#">
   <cc:Work>
    <dc:type rdf:resource="http://purl.org/dc/dcmitype/StillImage"/>
    <dc:date>2021-01-16T13:34:10.129061</dc:date>
    <dc:format>image/svg+xml</dc:format>
    <dc:creator>
     <cc:Agent>
      <dc:title>Matplotlib v3.3.2, https://matplotlib.org/</dc:title>
     </cc:Agent>
    </dc:creator>
   </cc:Work>
  </rdf:RDF>
 </metadata>
 <defs>
  <style type="text/css">*{stroke-linecap:butt;stroke-linejoin:round;}</style>
 </defs>
 <g id="figure_1">
  <g id="patch_1">
   <path d="M 0 288 
L 432 288 
L 432 0 
L 0 0 
z
" style="fill:none;"/>
  </g>
  <g id="axes_1">
   <g id="patch_2">
    <path d="M 246.013343 26.698396 
C 241.115639 25.441537 236.143735 24.493591 231.127043 23.860167 
C 226.11035 23.226743 221.05878 22.909091 216.002215 22.909091 
L 216.002215 143.522911 
L 246.013343 26.698396 
z
" style="fill:#008000;"/>
   </g>
   <g id="patch_3">
    <path d="M 216.002199 22.909091 
C 200.792732 22.909093 185.71947 25.78297 171.578066 31.379023 
C 157.436662 36.975076 144.480396 45.193076 133.393173 55.59923 
C 122.30595 66.005384 113.286348 78.413314 106.810474 92.168056 
C 100.3346 105.922799 96.518439 120.778001 95.56343 135.949519 
C 94.608421 151.121037 96.531669 166.337143 101.231655 180.794642 
C 105.93164 195.252141 113.324183 208.692094 123.019063 220.405061 
C 132.713943 232.118028 144.53752 241.894227 157.865678 249.217611 
C 171.193836 256.540995 185.787861 261.280401 200.877396 263.185655 
C 215.966932 265.090909 231.281718 264.127887 246.013351 260.347423 
C 260.744984 256.566959 274.629614 250.036763 286.934331 241.101536 
C 299.239047 232.16631 309.743467 220.986086 317.893106 208.151022 
C 326.042745 195.315958 331.69164 181.055936 334.54161 166.123682 
C 337.391579 151.191428 337.391578 135.854385 334.541608 120.922131 
C 331.691638 105.989877 326.042742 91.729855 317.893102 78.894792 
C 309.743462 66.059729 299.239041 54.879506 286.934324 45.94428 
C 274.629607 37.009054 260.744976 30.478859 246.013343 26.698396 
L 216.002215 143.522911 
L 216.002199 22.909091 
z
" style="fill:#ffffff;"/>
   </g>
   <g id="patch_4">
    <path clip-path="url(#pda24262757)" d="M 216.002215 252.075348 
C 244.805718 252.075348 272.433381 240.637579 292.800533 220.281075 
C 313.167685 199.924572 324.611437 172.311353 324.611437 143.522911 
C 324.611437 114.734468 313.167685 87.121249 292.800533 66.764746 
C 272.433381 46.408242 244.805718 34.970473 216.002215 34.970473 
C 187.198713 34.970473 159.57105 46.408242 139.203898 66.764746 
C 118.836746 87.121249 107.392994 114.734468 107.392994 143.522911 
C 107.392994 172.311353 118.836746 199.924572 139.203898 220.281075 
C 159.57105 240.637579 187.198713 252.075348 216.002215 252.075348 
z
" style="fill:#ffffff;stroke:#ffffff;stroke-linejoin:miter;"/>
   </g>
   <g id="matplotlib.axis_1">
    <g id="text_1">
     <!-- 4 -->
     <g transform="translate(181.210938 178.184375)scale(1 -1)">
      <defs>
       <path d="M 36.8125 57.421875 
L 16.21875 26.90625 
L 36.8125 26.90625 
z
M 33.6875 72.90625 
L 54.59375 72.90625 
L 54.59375 26.90625 
L 64.984375 26.90625 
L 64.984375 13.28125 
L 54.59375 13.28125 
L 54.59375 0 
L 36.8125 0 
L 36.8125 13.28125 
L 4.5 13.28125 
L 4.5 29.390625 
z
" id="DejaVuSans-Bold-52"/>
      </defs>
      <use xlink:href="#DejaVuSans-Bold-52"/>
     </g>
    </g>
   </g>
   <g id="matplotlib.axis_2"/>
  </g>
 </g>
 <defs>
  <clipPath id="pda24262757">
   <rect height="266.4" width="410.4" x="10.8" y="10.8"/>
  </clipPath>
 </defs>
</svg>
