<?xml version="1.0" encoding="utf-8" standalone="no"?>
<!DOCTYPE svg PUBLIC "-//W3C//DTD SVG 1.1//EN"
  "http://www.w3.org/Graphics/SVG/1.1/DTD/svg11.dtd">
<!-- Created with matplotlib (https://matplotlib.org/) -->
<svg height="288pt" version="1.1" viewBox="0 0 432 288" width="432pt" xmlns="http://www.w3.org/2000/svg" xmlns:xlink="http://www.w3.org/1999/xlink">
 <metadata>
  <rdf:RDF xmlns:cc="http://creativecommons.org/ns#" xmlns:dc="http://purl.org/dc/elements/1.1/" xmlns:rdf="http://www.w3.org/1999/02/22-rdf-syntax-ns#">
   <cc:Work>
    <dc:type rdf:resource="http://purl.org/dc/dcmitype/StillImage"/>
    <dc:date>2021-01-16T13:34:14.631080</dc:date>
    <dc:format>image/svg+xml</dc:format>
    <dc:creator>
     <cc:Agent>
      <dc:title>Matplotlib v3.3.2, https://matplotlib.org/</dc:title>
     </cc:Agent>
    </dc:creator>
   </cc:Work>
  </rdf:RDF>
 </metadata>
 <defs>
  <style type="text/css">*{stroke-linecap:butt;stroke-linejoin:round;}</style>
 </defs>
 <g id="figure_1">
  <g id="patch_1">
   <path d="M 0 288 
L 432 288 
L 432 0 
L 0 0 
z
" style="fill:none;"/>
  </g>
  <g id="axes_1">
   <g id="patch_2">
    <path d="M 286.538171 240.61763 
C 307.106612 225.681597 322.422956 204.611482 330.279402 180.444472 
C 338.135848 156.277462 338.135849 130.233367 330.279404 106.066357 
C 322.422959 81.899346 307.106616 60.82923 286.538176 45.893196 
C 265.969736 30.957163 241.187372 22.909094 215.763382 22.909094 
L 215.763382 143.255412 
L 286.538171 240.61763 
z
" style="fill:#ffff00;"/>
   </g>
   <g id="patch_3">
    <path d="M 215.763404 22.909094 
C 196.762494 22.909091 178.028671 27.404329 161.098735 36.026049 
C 144.168798 44.647768 129.518703 57.153586 118.350246 72.517607 
C 107.181789 87.881627 99.808951 105.671919 96.836551 124.429084 
C 93.864151 143.186249 95.375754 162.382964 101.247356 180.444456 
C 107.118958 198.505948 117.18549 214.924451 130.621162 228.353101 
C 144.056833 241.78175 160.483923 251.843022 178.554862 257.711558 
C 196.625801 263.580094 215.832557 265.090909 234.599535 262.120067 
C 253.366512 259.149225 271.166112 251.780245 286.538171 240.61763 
L 215.763382 143.255412 
L 215.763404 22.909094 
z
" style="fill:#ffffff;"/>
   </g>
   <g id="patch_4">
    <path clip-path="url(#pd2dbc6e00a)" d="M 215.763382 251.567097 
C 244.503002 251.567097 272.069392 240.154695 292.391372 219.843339 
C 312.713353 199.531983 324.131725 171.980006 324.131725 143.255412 
C 324.131725 114.530817 312.713353 86.97884 292.391372 66.667484 
C 272.069392 46.356129 244.503002 34.943726 215.763382 34.943726 
C 187.023761 34.943726 159.457372 46.356129 139.135391 66.667484 
C 118.81341 86.97884 107.395038 114.530817 107.395038 143.255412 
C 107.395038 171.980006 118.81341 199.531983 139.135391 219.843339 
C 159.457372 240.154695 187.023761 251.567097 215.763382 251.567097 
z
" style="fill:#ffffff;stroke:#ffffff;stroke-linejoin:miter;"/>
   </g>
   <g id="matplotlib.axis_1">
    <g id="text_1">
     <!-- 40 -->
     <g transform="translate(146.421875 178.184375)scale(1 -1)">
      <defs>
       <path d="M 36.8125 57.421875 
L 16.21875 26.90625 
L 36.8125 26.90625 
z
M 33.6875 72.90625 
L 54.59375 72.90625 
L 54.59375 26.90625 
L 64.984375 26.90625 
L 64.984375 13.28125 
L 54.59375 13.28125 
L 54.59375 0 
L 36.8125 0 
L 36.8125 13.28125 
L 4.5 13.28125 
L 4.5 29.390625 
z
" id="DejaVuSans-Bold-52"/>
       <path d="M 46 36.53125 
Q 46 50.203125 43.4375 55.78125 
Q 40.875 61.375 34.8125 61.375 
Q 28.765625 61.375 26.171875 55.78125 
Q 23.578125 50.203125 23.578125 36.53125 
Q 23.578125 22.703125 26.171875 17.03125 
Q 28.765625 11.375 34.8125 11.375 
Q 40.828125 11.375 43.40625 17.03125 
Q 46 22.703125 46 36.53125 
z
M 64.796875 36.375 
Q 64.796875 18.265625 56.984375 8.421875 
Q 49.171875 -1.421875 34.8125 -1.421875 
Q 20.40625 -1.421875 12.59375 8.421875 
Q 4.78125 18.265625 4.78125 36.375 
Q 4.78125 54.546875 12.59375 64.375 
Q 20.40625 74.21875 34.8125 74.21875 
Q 49.171875 74.21875 56.984375 64.375 
Q 64.796875 54.546875 64.796875 36.375 
z
" id="DejaVuSans-Bold-48"/>
      </defs>
      <use xlink:href="#DejaVuSans-Bold-52"/>
      <use x="69.580078" xlink:href="#DejaVuSans-Bold-48"/>
     </g>
    </g>
   </g>
   <g id="matplotlib.axis_2"/>
  </g>
 </g>
 <defs>
  <clipPath id="pd2dbc6e00a">
   <rect height="266.4" width="410.4" x="10.8" y="10.8"/>
  </clipPath>
 </defs>
</svg>
