<?xml version="1.0" encoding="utf-8" standalone="no"?>
<!DOCTYPE svg PUBLIC "-//W3C//DTD SVG 1.1//EN"
  "http://www.w3.org/Graphics/SVG/1.1/DTD/svg11.dtd">
<!-- Created with matplotlib (https://matplotlib.org/) -->
<svg height="288pt" version="1.1" viewBox="0 0 432 288" width="432pt" xmlns="http://www.w3.org/2000/svg" xmlns:xlink="http://www.w3.org/1999/xlink">
 <metadata>
  <rdf:RDF xmlns:cc="http://creativecommons.org/ns#" xmlns:dc="http://purl.org/dc/elements/1.1/" xmlns:rdf="http://www.w3.org/1999/02/22-rdf-syntax-ns#">
   <cc:Work>
    <dc:type rdf:resource="http://purl.org/dc/dcmitype/StillImage"/>
    <dc:date>2021-01-16T13:34:14.749536</dc:date>
    <dc:format>image/svg+xml</dc:format>
    <dc:creator>
     <cc:Agent>
      <dc:title>Matplotlib v3.3.2, https://matplotlib.org/</dc:title>
     </cc:Agent>
    </dc:creator>
   </cc:Work>
  </rdf:RDF>
 </metadata>
 <defs>
  <style type="text/css">*{stroke-linecap:butt;stroke-linejoin:round;}</style>
 </defs>
 <g id="figure_1">
  <g id="patch_1">
   <path d="M 0 288 
L 432 288 
L 432 0 
L 0 0 
z
" style="fill:none;"/>
  </g>
  <g id="axes_1">
   <g id="patch_2">
    <path d="M 280.027165 245.062395 
C 302.058279 231.088334 318.963861 210.333927 328.187107 185.938074 
C 337.410353 161.542221 338.461604 134.800095 331.181867 109.756177 
C 323.90213 84.71226 308.677885 62.696129 287.811651 47.037509 
C 266.945417 31.378888 241.544977 22.909091 215.451899 22.909091 
L 215.451899 143.361263 
L 280.027165 245.062395 
z
" style="fill:#ffff00;"/>
   </g>
   <g id="patch_3">
    <path d="M 215.451877 22.909091 
C 196.754034 22.909094 178.310226 27.258258 161.584172 35.611427 
C 144.858118 43.964596 130.304308 56.094795 119.077747 71.039357 
C 107.851186 85.983919 100.256929 103.336764 96.897663 121.720751 
C 93.538396 140.104738 94.505401 159.020328 99.721935 176.96636 
C 104.938469 194.912392 114.262785 211.401228 126.954896 225.124295 
C 139.647007 238.847362 155.362036 249.431771 172.852822 256.037532 
C 190.343608 262.643292 209.134882 265.090909 227.735349 263.186137 
C 246.335816 261.281365 264.240054 255.075962 280.027165 245.062395 
L 215.451899 143.361263 
L 215.451877 22.909091 
z
" style="fill:#ffffff;"/>
   </g>
   <g id="patch_4">
    <path clip-path="url(#p464f6c50dc)" d="M 215.451899 251.768218 
C 244.216799 251.768218 271.807435 240.345778 292.147291 220.016556 
C 312.487147 199.687335 323.915563 172.111124 323.915563 143.361263 
C 323.915563 114.611403 312.487147 87.035192 292.147291 66.70597 
C 271.807435 46.376749 244.216799 34.954308 215.451899 34.954308 
C 186.687 34.954308 159.096363 46.376749 138.756508 66.70597 
C 118.416652 87.035192 106.988236 114.611403 106.988236 143.361263 
C 106.988236 172.111124 118.416652 199.687335 138.756508 220.016556 
C 159.096363 240.345778 186.687 251.768218 215.451899 251.768218 
z
" style="fill:#ffffff;stroke:#ffffff;stroke-linejoin:miter;"/>
   </g>
   <g id="matplotlib.axis_1">
    <g id="text_1">
     <!-- 41 -->
     <g transform="translate(146.421875 178.184375)scale(1 -1)">
      <defs>
       <path d="M 36.8125 57.421875 
L 16.21875 26.90625 
L 36.8125 26.90625 
z
M 33.6875 72.90625 
L 54.59375 72.90625 
L 54.59375 26.90625 
L 64.984375 26.90625 
L 64.984375 13.28125 
L 54.59375 13.28125 
L 54.59375 0 
L 36.8125 0 
L 36.8125 13.28125 
L 4.5 13.28125 
L 4.5 29.390625 
z
" id="DejaVuSans-Bold-52"/>
       <path d="M 11.71875 12.984375 
L 28.328125 12.984375 
L 28.328125 60.109375 
L 11.28125 56.59375 
L 11.28125 69.390625 
L 28.21875 72.90625 
L 46.09375 72.90625 
L 46.09375 12.984375 
L 62.703125 12.984375 
L 62.703125 0 
L 11.71875 0 
z
" id="DejaVuSans-Bold-49"/>
      </defs>
      <use xlink:href="#DejaVuSans-Bold-52"/>
      <use x="69.580078" xlink:href="#DejaVuSans-Bold-49"/>
     </g>
    </g>
   </g>
   <g id="matplotlib.axis_2"/>
  </g>
 </g>
 <defs>
  <clipPath id="p464f6c50dc">
   <rect height="266.4" width="410.4" x="10.8" y="10.8"/>
  </clipPath>
 </defs>
</svg>
