<?xml version="1.0" encoding="utf-8" standalone="no"?>
<!DOCTYPE svg PUBLIC "-//W3C//DTD SVG 1.1//EN"
  "http://www.w3.org/Graphics/SVG/1.1/DTD/svg11.dtd">
<!-- Created with matplotlib (https://matplotlib.org/) -->
<svg height="288pt" version="1.1" viewBox="0 0 432 288" width="432pt" xmlns="http://www.w3.org/2000/svg" xmlns:xlink="http://www.w3.org/1999/xlink">
 <metadata>
  <rdf:RDF xmlns:cc="http://creativecommons.org/ns#" xmlns:dc="http://purl.org/dc/elements/1.1/" xmlns:rdf="http://www.w3.org/1999/02/22-rdf-syntax-ns#">
   <cc:Work>
    <dc:type rdf:resource="http://purl.org/dc/dcmitype/StillImage"/>
    <dc:date>2021-01-16T13:34:14.851441</dc:date>
    <dc:format>image/svg+xml</dc:format>
    <dc:creator>
     <cc:Agent>
      <dc:title>Matplotlib v3.3.2, https://matplotlib.org/</dc:title>
     </cc:Agent>
    </dc:creator>
   </cc:Work>
  </rdf:RDF>
 </metadata>
 <defs>
  <style type="text/css">*{stroke-linecap:butt;stroke-linejoin:round;}</style>
 </defs>
 <g id="figure_1">
  <g id="patch_1">
   <path d="M 0 288 
L 432 288 
L 432 0 
L 0 0 
z
" style="fill:none;"/>
  </g>
  <g id="axes_1">
   <g id="patch_2">
    <path d="M 273.367452 249.424898 
C 296.853335 236.520173 315.386937 216.162657 326.030891 191.578786 
C 336.674844 166.994916 338.835471 139.555886 332.170336 113.610474 
C 325.5052 87.665062 310.386059 64.660404 289.209124 48.242479 
C 268.03219 31.824554 241.978632 22.909091 215.177645 22.909091 
L 215.177645 143.633392 
L 273.367452 249.424898 
z
" style="fill:#ffff00;"/>
   </g>
   <g id="patch_3">
    <path d="M 215.177622 22.909091 
C 196.757896 22.909094 178.579915 27.120325 162.038494 35.21965 
C 145.497074 43.318975 131.0264 55.0938 119.736822 69.640632 
C 108.447244 84.187463 100.635096 101.124469 96.899813 119.152055 
C 93.164529 137.179641 93.604154 155.824612 98.184956 173.65632 
C 102.765758 191.488028 111.367498 208.038419 123.330155 222.037565 
C 135.292812 236.03671 150.302385 247.117154 167.207175 254.428683 
C 184.111964 261.740211 202.468247 265.090909 220.867524 264.223673 
C 239.266802 263.356437 257.226124 258.294031 273.367452 249.424898 
L 215.177645 143.633392 
L 215.177622 22.909091 
z
" style="fill:#ffffff;"/>
   </g>
   <g id="patch_4">
    <path clip-path="url(#pdad4c65345)" d="M 215.177645 252.285263 
C 244.007531 252.285263 271.660501 240.837016 292.046309 220.461866 
C 312.432116 200.086717 323.886352 172.448205 323.886352 143.633392 
C 323.886352 114.818579 312.432116 87.180067 292.046309 66.804917 
C 271.660501 46.429768 244.007531 34.981521 215.177645 34.981521 
C 186.347759 34.981521 158.694789 46.429768 138.308981 66.804917 
C 117.923173 87.180067 106.468938 114.818579 106.468938 143.633392 
C 106.468938 172.448205 117.923173 200.086717 138.308981 220.461866 
C 158.694789 240.837016 186.347759 252.285263 215.177645 252.285263 
z
" style="fill:#ffffff;stroke:#ffffff;stroke-linejoin:miter;"/>
   </g>
   <g id="matplotlib.axis_1">
    <g id="text_1">
     <!-- 42 -->
     <g transform="translate(146.421875 178.184375)scale(1 -1)">
      <defs>
       <path d="M 36.8125 57.421875 
L 16.21875 26.90625 
L 36.8125 26.90625 
z
M 33.6875 72.90625 
L 54.59375 72.90625 
L 54.59375 26.90625 
L 64.984375 26.90625 
L 64.984375 13.28125 
L 54.59375 13.28125 
L 54.59375 0 
L 36.8125 0 
L 36.8125 13.28125 
L 4.5 13.28125 
L 4.5 29.390625 
z
" id="DejaVuSans-Bold-52"/>
       <path d="M 28.8125 13.8125 
L 60.890625 13.8125 
L 60.890625 0 
L 7.90625 0 
L 7.90625 13.8125 
L 34.515625 37.3125 
Q 38.09375 40.53125 39.796875 43.609375 
Q 41.5 46.6875 41.5 50 
Q 41.5 55.125 38.0625 58.25 
Q 34.625 61.375 28.90625 61.375 
Q 24.515625 61.375 19.28125 59.5 
Q 14.0625 57.625 8.109375 53.90625 
L 8.109375 69.921875 
Q 14.453125 72.015625 20.65625 73.109375 
Q 26.859375 74.21875 32.8125 74.21875 
Q 45.90625 74.21875 53.15625 68.453125 
Q 60.40625 62.703125 60.40625 52.390625 
Q 60.40625 46.4375 57.328125 41.28125 
Q 54.25 36.140625 44.390625 27.484375 
z
" id="DejaVuSans-Bold-50"/>
      </defs>
      <use xlink:href="#DejaVuSans-Bold-52"/>
      <use x="69.580078" xlink:href="#DejaVuSans-Bold-50"/>
     </g>
    </g>
   </g>
   <g id="matplotlib.axis_2"/>
  </g>
 </g>
 <defs>
  <clipPath id="pdad4c65345">
   <rect height="266.4" width="410.4" x="10.8" y="10.8"/>
  </clipPath>
 </defs>
</svg>
