<?xml version="1.0" encoding="utf-8" standalone="no"?>
<!DOCTYPE svg PUBLIC "-//W3C//DTD SVG 1.1//EN"
  "http://www.w3.org/Graphics/SVG/1.1/DTD/svg11.dtd">
<!-- Created with matplotlib (https://matplotlib.org/) -->
<svg height="288pt" version="1.1" viewBox="0 0 432 288" width="432pt" xmlns="http://www.w3.org/2000/svg" xmlns:xlink="http://www.w3.org/1999/xlink">
 <metadata>
  <rdf:RDF xmlns:cc="http://creativecommons.org/ns#" xmlns:dc="http://purl.org/dc/elements/1.1/" xmlns:rdf="http://www.w3.org/1999/02/22-rdf-syntax-ns#">
   <cc:Work>
    <dc:type rdf:resource="http://purl.org/dc/dcmitype/StillImage"/>
    <dc:date>2021-01-16T13:34:15.167771</dc:date>
    <dc:format>image/svg+xml</dc:format>
    <dc:creator>
     <cc:Agent>
      <dc:title>Matplotlib v3.3.2, https://matplotlib.org/</dc:title>
     </cc:Agent>
    </dc:creator>
   </cc:Work>
  </rdf:RDF>
 </metadata>
 <defs>
  <style type="text/css">*{stroke-linecap:butt;stroke-linejoin:round;}</style>
 </defs>
 <g id="figure_1">
  <g id="patch_1">
   <path d="M 0 288 
L 432 288 
L 432 0 
L 0 0 
z
" style="fill:none;"/>
  </g>
  <g id="axes_1">
   <g id="patch_2">
    <path d="M 252.369819 257.982096 
C 279.661029 249.119279 302.909056 230.801592 317.902505 206.347297 
C 332.895953 181.893002 338.671283 152.873631 334.182289 124.546064 
C 329.693295 96.218498 315.228458 70.403179 293.408094 51.776572 
C 271.587731 33.149965 243.814104 22.909091 215.118428 22.909091 
L 215.118428 143.394072 
L 252.369819 257.982096 
z
" style="fill:#ffff00;"/>
   </g>
   <g id="patch_3">
    <path d="M 215.118428 22.909091 
C 197.693566 22.909091 180.474099 26.685185 164.64983 33.976459 
C 148.82556 41.267734 134.769545 51.902296 123.453002 65.145338 
C 112.13646 78.38838 103.826178 93.927696 99.096366 110.689578 
C 94.366554 127.45146 93.328717 145.040745 96.054567 162.242081 
C 98.780417 179.443416 105.20569 195.851278 114.886426 210.331946 
C 124.567161 224.812615 137.275135 237.024706 152.132273 246.12441 
C 166.989411 255.224115 183.645455 260.996907 200.949537 263.043908 
C 218.253618 265.090909 235.797791 263.363861 252.369819 257.982096 
L 215.118428 143.394072 
L 215.118428 22.909091 
z
" style="fill:#ffffff;"/>
   </g>
   <g id="patch_4">
    <path clip-path="url(#pac493923d1)" d="M 215.118428 251.830556 
C 243.891163 251.830556 271.489314 240.405004 291.83471 220.070245 
C 312.180106 199.735486 323.611635 172.151764 323.611635 143.394072 
C 323.611635 114.636381 312.180106 87.052658 291.83471 66.7179 
C 271.489314 46.383141 243.891163 34.957589 215.118428 34.957589 
C 186.345693 34.957589 158.747541 46.383141 138.402146 66.7179 
C 118.05675 87.052658 106.625221 114.636381 106.625221 143.394072 
C 106.625221 172.151764 118.05675 199.735486 138.402146 220.070245 
C 158.747541 240.405004 186.345693 251.830556 215.118428 251.830556 
z
" style="fill:#ffffff;stroke:#ffffff;stroke-linejoin:miter;"/>
   </g>
   <g id="matplotlib.axis_1">
    <g id="text_1">
     <!-- 45 -->
     <g transform="translate(146.421875 178.184375)scale(1 -1)">
      <defs>
       <path d="M 36.8125 57.421875 
L 16.21875 26.90625 
L 36.8125 26.90625 
z
M 33.6875 72.90625 
L 54.59375 72.90625 
L 54.59375 26.90625 
L 64.984375 26.90625 
L 64.984375 13.28125 
L 54.59375 13.28125 
L 54.59375 0 
L 36.8125 0 
L 36.8125 13.28125 
L 4.5 13.28125 
L 4.5 29.390625 
z
" id="DejaVuSans-Bold-52"/>
       <path d="M 10.59375 72.90625 
L 57.328125 72.90625 
L 57.328125 59.078125 
L 25.59375 59.078125 
L 25.59375 47.796875 
Q 27.734375 48.390625 29.90625 48.703125 
Q 32.078125 49.03125 34.421875 49.03125 
Q 47.75 49.03125 55.171875 42.359375 
Q 62.59375 35.6875 62.59375 23.78125 
Q 62.59375 11.96875 54.515625 5.265625 
Q 46.4375 -1.421875 32.078125 -1.421875 
Q 25.875 -1.421875 19.796875 -0.21875 
Q 13.71875 0.984375 7.71875 3.421875 
L 7.71875 18.21875 
Q 13.671875 14.796875 19.015625 13.078125 
Q 24.359375 11.375 29.109375 11.375 
Q 35.9375 11.375 39.859375 14.71875 
Q 43.796875 18.0625 43.796875 23.78125 
Q 43.796875 29.546875 39.859375 32.859375 
Q 35.9375 36.1875 29.109375 36.1875 
Q 25.046875 36.1875 20.453125 35.125 
Q 15.875 34.078125 10.59375 31.890625 
z
" id="DejaVuSans-Bold-53"/>
      </defs>
      <use xlink:href="#DejaVuSans-Bold-52"/>
      <use x="69.580078" xlink:href="#DejaVuSans-Bold-53"/>
     </g>
    </g>
   </g>
   <g id="matplotlib.axis_2"/>
  </g>
 </g>
 <defs>
  <clipPath id="pac493923d1">
   <rect height="266.4" width="410.4" x="10.8" y="10.8"/>
  </clipPath>
 </defs>
</svg>
