<?xml version="1.0" encoding="utf-8" standalone="no"?>
<!DOCTYPE svg PUBLIC "-//W3C//DTD SVG 1.1//EN"
  "http://www.w3.org/Graphics/SVG/1.1/DTD/svg11.dtd">
<!-- Created with matplotlib (https://matplotlib.org/) -->
<svg height="288pt" version="1.1" viewBox="0 0 432 288" width="432pt" xmlns="http://www.w3.org/2000/svg" xmlns:xlink="http://www.w3.org/1999/xlink">
 <metadata>
  <rdf:RDF xmlns:cc="http://creativecommons.org/ns#" xmlns:dc="http://purl.org/dc/elements/1.1/" xmlns:rdf="http://www.w3.org/1999/02/22-rdf-syntax-ns#">
   <cc:Work>
    <dc:type rdf:resource="http://purl.org/dc/dcmitype/StillImage"/>
    <dc:date>2021-01-16T13:34:15.282701</dc:date>
    <dc:format>image/svg+xml</dc:format>
    <dc:creator>
     <cc:Agent>
      <dc:title>Matplotlib v3.3.2, https://matplotlib.org/</dc:title>
     </cc:Agent>
    </dc:creator>
   </cc:Work>
  </rdf:RDF>
 </metadata>
 <defs>
  <style type="text/css">*{stroke-linecap:butt;stroke-linejoin:round;}</style>
 </defs>
 <g id="figure_1">
  <g id="patch_1">
   <path d="M 0 288 
L 432 288 
L 432 0 
L 0 0 
z
" style="fill:none;"/>
  </g>
  <g id="axes_1">
   <g id="patch_2">
    <path d="M 245.219994 260.158975 
C 273.652435 252.862583 298.463227 235.434385 314.963001 211.168401 
C 331.462775 186.902416 338.542121 157.430239 334.863006 128.322264 
C 331.183891 99.214289 316.99369 72.427675 294.974426 53.025231 
C 272.955162 33.622788 244.587363 22.909094 215.232692 22.909094 
L 215.232692 143.427182 
L 245.219994 260.158975 
z
" style="fill:#ffff00;"/>
   </g>
   <g id="patch_3">
    <path d="M 215.232714 22.909094 
C 198.122334 22.909091 181.206301 26.54911 165.611843 33.586593 
C 150.017386 40.624076 136.098761 50.899154 124.783462 63.727127 
C 113.468163 76.5551 105.013237 91.644558 99.982093 107.989989 
C 94.950949 124.335419 93.457879 141.565505 95.602376 158.53209 
C 97.746874 175.498674 103.480222 191.81633 112.420369 206.3977 
C 121.360517 220.97907 133.304371 233.492913 147.456033 243.105346 
C 161.607695 252.717779 177.645683 259.210438 194.501278 262.150674 
C 211.356873 265.090909 228.647168 264.411928 245.219994 260.158975 
L 215.232692 143.427182 
L 215.232714 22.909094 
z
" style="fill:#ffffff;"/>
   </g>
   <g id="patch_4">
    <path clip-path="url(#p4e137684aa)" d="M 215.232692 251.893462 
C 244.013333 251.893462 271.619068 240.46477 291.970054 220.124424 
C 312.32104 199.784078 323.75571 172.192776 323.75571 143.427182 
C 323.75571 114.661589 312.32104 87.070287 291.970054 66.729941 
C 271.619068 46.389594 244.013333 34.960903 215.232692 34.960903 
C 186.452051 34.960903 158.846316 46.389594 138.495329 66.729941 
C 118.144343 87.070287 106.709673 114.661589 106.709673 143.427182 
C 106.709673 172.192776 118.144343 199.784078 138.495329 220.124424 
C 158.846316 240.46477 186.452051 251.893462 215.232692 251.893462 
z
" style="fill:#ffffff;stroke:#ffffff;stroke-linejoin:miter;"/>
   </g>
   <g id="matplotlib.axis_1">
    <g id="text_1">
     <!-- 46 -->
     <g transform="translate(146.421875 178.184375)scale(1 -1)">
      <defs>
       <path d="M 36.8125 57.421875 
L 16.21875 26.90625 
L 36.8125 26.90625 
z
M 33.6875 72.90625 
L 54.59375 72.90625 
L 54.59375 26.90625 
L 64.984375 26.90625 
L 64.984375 13.28125 
L 54.59375 13.28125 
L 54.59375 0 
L 36.8125 0 
L 36.8125 13.28125 
L 4.5 13.28125 
L 4.5 29.390625 
z
" id="DejaVuSans-Bold-52"/>
       <path d="M 36.1875 35.984375 
Q 31.25 35.984375 28.78125 32.78125 
Q 26.3125 29.59375 26.3125 23.1875 
Q 26.3125 16.796875 28.78125 13.59375 
Q 31.25 10.40625 36.1875 10.40625 
Q 41.15625 10.40625 43.625 13.59375 
Q 46.09375 16.796875 46.09375 23.1875 
Q 46.09375 29.59375 43.625 32.78125 
Q 41.15625 35.984375 36.1875 35.984375 
z
M 59.421875 71 
L 59.421875 57.515625 
Q 54.78125 59.71875 50.671875 60.765625 
Q 46.578125 61.8125 42.671875 61.8125 
Q 34.28125 61.8125 29.59375 57.140625 
Q 24.90625 52.484375 24.125 43.3125 
Q 27.34375 45.703125 31.09375 46.890625 
Q 34.859375 48.09375 39.3125 48.09375 
Q 50.484375 48.09375 57.34375 41.546875 
Q 64.203125 35.015625 64.203125 24.421875 
Q 64.203125 12.703125 56.53125 5.640625 
Q 48.875 -1.421875 35.984375 -1.421875 
Q 21.78125 -1.421875 13.984375 8.171875 
Q 6.203125 17.78125 6.203125 35.40625 
Q 6.203125 53.46875 15.3125 63.796875 
Q 24.421875 74.125 40.28125 74.125 
Q 45.3125 74.125 50.046875 73.34375 
Q 54.78125 72.5625 59.421875 71 
z
" id="DejaVuSans-Bold-54"/>
      </defs>
      <use xlink:href="#DejaVuSans-Bold-52"/>
      <use x="69.580078" xlink:href="#DejaVuSans-Bold-54"/>
     </g>
    </g>
   </g>
   <g id="matplotlib.axis_2"/>
  </g>
 </g>
 <defs>
  <clipPath id="p4e137684aa">
   <rect height="266.4" width="410.4" x="10.8" y="10.8"/>
  </clipPath>
 </defs>
</svg>
