<?xml version="1.0" encoding="utf-8" standalone="no"?>
<!DOCTYPE svg PUBLIC "-//W3C//DTD SVG 1.1//EN"
  "http://www.w3.org/Graphics/SVG/1.1/DTD/svg11.dtd">
<!-- Created with matplotlib (https://matplotlib.org/) -->
<svg height="288pt" version="1.1" viewBox="0 0 432 288" width="432pt" xmlns="http://www.w3.org/2000/svg" xmlns:xlink="http://www.w3.org/1999/xlink">
 <metadata>
  <rdf:RDF xmlns:cc="http://creativecommons.org/ns#" xmlns:dc="http://purl.org/dc/elements/1.1/" xmlns:rdf="http://www.w3.org/1999/02/22-rdf-syntax-ns#">
   <cc:Work>
    <dc:type rdf:resource="http://purl.org/dc/dcmitype/StillImage"/>
    <dc:date>2021-01-16T13:34:10.332050</dc:date>
    <dc:format>image/svg+xml</dc:format>
    <dc:creator>
     <cc:Agent>
      <dc:title>Matplotlib v3.3.2, https://matplotlib.org/</dc:title>
     </cc:Agent>
    </dc:creator>
   </cc:Work>
  </rdf:RDF>
 </metadata>
 <defs>
  <style type="text/css">*{stroke-linecap:butt;stroke-linejoin:round;}</style>
 </defs>
 <g id="figure_1">
  <g id="patch_1">
   <path d="M 0 288 
L 432 288 
L 432 0 
L 0 0 
z
" style="fill:none;"/>
  </g>
  <g id="axes_1">
   <g id="patch_2">
    <path d="M 253.246857 28.814449 
C 247.23226 26.86121 241.073387 25.383368 234.827126 24.394575 
C 228.580866 23.405782 222.266512 22.909091 215.942391 22.909091 
L 215.942391 143.565761 
L 253.246857 28.814449 
z
" style="fill:#008000;"/>
   </g>
   <g id="patch_3">
    <path d="M 215.942382 22.909091 
C 200.886916 22.909092 185.963458 25.724065 171.943583 31.208471 
C 157.923708 36.692876 145.053272 44.750538 133.997705 54.964857 
C 122.942138 65.179177 113.895312 77.371033 107.324968 90.910081 
C 100.754624 104.449129 96.775981 119.097945 95.594744 134.099154 
C 94.413506 149.100362 96.050388 164.190898 100.42076 178.590548 
C 104.791132 192.990199 111.818354 206.446448 121.139102 218.263579 
C 130.459851 230.08071 141.910676 240.051494 154.899545 247.660421 
C 167.888414 255.269348 182.187551 260.382985 197.05766 262.736947 
C 211.927769 265.090909 227.108083 264.643916 241.813749 261.419078 
C 256.519415 258.19424 270.49255 252.24811 283.010713 243.888113 
C 295.528875 235.528117 306.372544 224.900859 314.981079 212.55579 
C 323.589613 200.210721 329.812051 186.364328 333.32668 171.732499 
C 336.841308 157.10067 337.586494 141.939993 335.523709 127.034307 
C 333.460924 112.12862 328.626342 97.739315 321.269922 84.610348 
C 313.913501 71.481382 304.164245 59.842987 292.526212 50.296894 
C 280.888179 40.7508 267.565456 33.464412 253.246857 28.814449 
L 215.942391 143.565761 
L 215.942382 22.909091 
z
" style="fill:#ffffff;"/>
   </g>
   <g id="patch_4">
    <path clip-path="url(#pf67e118bdb)" d="M 215.942391 252.156763 
C 244.756126 252.156763 272.393604 240.71493 292.767992 220.351195 
C 313.14238 199.98746 324.590198 172.364431 324.590198 143.565761 
C 324.590198 114.76709 313.14238 87.144061 292.767992 66.780326 
C 272.393604 46.416591 244.756126 34.974758 215.942391 34.974758 
C 187.128656 34.974758 159.491177 46.416591 139.11679 66.780326 
C 118.742402 87.144061 107.294584 114.76709 107.294584 143.565761 
C 107.294584 172.364431 118.742402 199.98746 139.11679 220.351195 
C 159.491177 240.71493 187.128656 252.156763 215.942391 252.156763 
z
" style="fill:#ffffff;stroke:#ffffff;stroke-linejoin:miter;"/>
   </g>
   <g id="matplotlib.axis_1">
    <g id="text_1">
     <!-- 5 -->
     <g transform="translate(181.210938 178.184375)scale(1 -1)">
      <defs>
       <path d="M 10.59375 72.90625 
L 57.328125 72.90625 
L 57.328125 59.078125 
L 25.59375 59.078125 
L 25.59375 47.796875 
Q 27.734375 48.390625 29.90625 48.703125 
Q 32.078125 49.03125 34.421875 49.03125 
Q 47.75 49.03125 55.171875 42.359375 
Q 62.59375 35.6875 62.59375 23.78125 
Q 62.59375 11.96875 54.515625 5.265625 
Q 46.4375 -1.421875 32.078125 -1.421875 
Q 25.875 -1.421875 19.796875 -0.21875 
Q 13.71875 0.984375 7.71875 3.421875 
L 7.71875 18.21875 
Q 13.671875 14.796875 19.015625 13.078125 
Q 24.359375 11.375 29.109375 11.375 
Q 35.9375 11.375 39.859375 14.71875 
Q 43.796875 18.0625 43.796875 23.78125 
Q 43.796875 29.546875 39.859375 32.859375 
Q 35.9375 36.1875 29.109375 36.1875 
Q 25.046875 36.1875 20.453125 35.125 
Q 15.875 34.078125 10.59375 31.890625 
z
" id="DejaVuSans-Bold-53"/>
      </defs>
      <use xlink:href="#DejaVuSans-Bold-53"/>
     </g>
    </g>
   </g>
   <g id="matplotlib.axis_2"/>
  </g>
 </g>
 <defs>
  <clipPath id="pf67e118bdb">
   <rect height="266.4" width="410.4" x="10.8" y="10.8"/>
  </clipPath>
 </defs>
</svg>
