<?xml version="1.0" encoding="utf-8" standalone="no"?>
<!DOCTYPE svg PUBLIC "-//W3C//DTD SVG 1.1//EN"
  "http://www.w3.org/Graphics/SVG/1.1/DTD/svg11.dtd">
<!-- Created with matplotlib (https://matplotlib.org/) -->
<svg height="288pt" version="1.1" viewBox="0 0 432 288" width="432pt" xmlns="http://www.w3.org/2000/svg" xmlns:xlink="http://www.w3.org/1999/xlink">
 <metadata>
  <rdf:RDF xmlns:cc="http://creativecommons.org/ns#" xmlns:dc="http://purl.org/dc/elements/1.1/" xmlns:rdf="http://www.w3.org/1999/02/22-rdf-syntax-ns#">
   <cc:Work>
    <dc:type rdf:resource="http://purl.org/dc/dcmitype/StillImage"/>
    <dc:date>2021-01-16T13:34:15.834461</dc:date>
    <dc:format>image/svg+xml</dc:format>
    <dc:creator>
     <cc:Agent>
      <dc:title>Matplotlib v3.3.2, https://matplotlib.org/</dc:title>
     </cc:Agent>
    </dc:creator>
   </cc:Work>
  </rdf:RDF>
 </metadata>
 <defs>
  <style type="text/css">*{stroke-linecap:butt;stroke-linejoin:round;}</style>
 </defs>
 <g id="figure_1">
  <g id="patch_1">
   <path d="M 0 288 
L 432 288 
L 432 0 
L 0 0 
z
" style="fill:none;"/>
  </g>
  <g id="axes_1">
   <g id="patch_2">
    <path d="M 208.655535 264.075614 
C 224.801643 265.090909 240.988474 262.853169 256.252644 257.495575 
C 271.516814 252.137982 285.54937 243.768976 297.515146 232.88665 
C 309.480921 222.004324 319.137723 208.82894 325.910813 194.144652 
C 332.683903 179.460364 336.436192 163.564386 336.944355 147.40279 
C 337.452519 131.241195 334.706273 115.1411 328.869063 100.060724 
C 323.031854 84.980349 314.221828 71.224926 302.963329 59.61313 
C 291.704829 48.001334 278.225731 38.768192 263.328263 32.463227 
C 248.430795 26.158263 232.416488 22.909091 216.238455 22.909091 
L 216.238455 143.611442 
L 208.655535 264.075614 
z
" style="fill:#ffff00;"/>
   </g>
   <g id="patch_3">
    <path d="M 216.238455 22.909091 
C 184.877375 22.909091 154.71742 35.118744 132.196204 56.931911 
C 109.674988 78.745077 96.51763 108.490876 95.532555 139.820093 
C 94.547481 171.14931 105.810146 201.662136 126.916547 224.845638 
C 148.022947 248.02914 177.356338 262.107467 208.655535 264.075614 
L 216.238455 143.611442 
L 216.238455 22.909091 
z
" style="fill:#ffffff;"/>
   </g>
   <g id="patch_4">
    <path clip-path="url(#p28f291b0a0)" d="M 216.238455 252.243557 
C 245.0631 252.243557 272.711041 240.797392 293.093143 220.425947 
C 313.475244 200.054502 324.927397 172.421015 324.927397 143.611442 
C 324.927397 114.801868 313.475244 87.168381 293.093143 66.796936 
C 272.711041 46.425491 245.0631 34.979326 216.238455 34.979326 
C 187.413811 34.979326 159.765869 46.425491 139.383768 66.796936 
C 119.001666 87.168381 107.549514 114.801868 107.549514 143.611442 
C 107.549514 172.421015 119.001666 200.054502 139.383768 220.425947 
C 159.765869 240.797392 187.413811 252.243557 216.238455 252.243557 
z
" style="fill:#ffffff;stroke:#ffffff;stroke-linejoin:miter;"/>
   </g>
   <g id="matplotlib.axis_1">
    <g id="text_1">
     <!-- 51 -->
     <g transform="translate(146.421875 178.184375)scale(1 -1)">
      <defs>
       <path d="M 10.59375 72.90625 
L 57.328125 72.90625 
L 57.328125 59.078125 
L 25.59375 59.078125 
L 25.59375 47.796875 
Q 27.734375 48.390625 29.90625 48.703125 
Q 32.078125 49.03125 34.421875 49.03125 
Q 47.75 49.03125 55.171875 42.359375 
Q 62.59375 35.6875 62.59375 23.78125 
Q 62.59375 11.96875 54.515625 5.265625 
Q 46.4375 -1.421875 32.078125 -1.421875 
Q 25.875 -1.421875 19.796875 -0.21875 
Q 13.71875 0.984375 7.71875 3.421875 
L 7.71875 18.21875 
Q 13.671875 14.796875 19.015625 13.078125 
Q 24.359375 11.375 29.109375 11.375 
Q 35.9375 11.375 39.859375 14.71875 
Q 43.796875 18.0625 43.796875 23.78125 
Q 43.796875 29.546875 39.859375 32.859375 
Q 35.9375 36.1875 29.109375 36.1875 
Q 25.046875 36.1875 20.453125 35.125 
Q 15.875 34.078125 10.59375 31.890625 
z
" id="DejaVuSans-Bold-53"/>
       <path d="M 11.71875 12.984375 
L 28.328125 12.984375 
L 28.328125 60.109375 
L 11.28125 56.59375 
L 11.28125 69.390625 
L 28.21875 72.90625 
L 46.09375 72.90625 
L 46.09375 12.984375 
L 62.703125 12.984375 
L 62.703125 0 
L 11.71875 0 
z
" id="DejaVuSans-Bold-49"/>
      </defs>
      <use xlink:href="#DejaVuSans-Bold-53"/>
      <use x="69.580078" xlink:href="#DejaVuSans-Bold-49"/>
     </g>
    </g>
   </g>
   <g id="matplotlib.axis_2"/>
  </g>
 </g>
 <defs>
  <clipPath id="p28f291b0a0">
   <rect height="266.4" width="410.4" x="10.8" y="10.8"/>
  </clipPath>
 </defs>
</svg>
