<?xml version="1.0" encoding="utf-8" standalone="no"?>
<!DOCTYPE svg PUBLIC "-//W3C//DTD SVG 1.1//EN"
  "http://www.w3.org/Graphics/SVG/1.1/DTD/svg11.dtd">
<!-- Created with matplotlib (https://matplotlib.org/) -->
<svg height="288pt" version="1.1" viewBox="0 0 432 288" width="432pt" xmlns="http://www.w3.org/2000/svg" xmlns:xlink="http://www.w3.org/1999/xlink">
 <metadata>
  <rdf:RDF xmlns:cc="http://creativecommons.org/ns#" xmlns:dc="http://purl.org/dc/elements/1.1/" xmlns:rdf="http://www.w3.org/1999/02/22-rdf-syntax-ns#">
   <cc:Work>
    <dc:type rdf:resource="http://purl.org/dc/dcmitype/StillImage"/>
    <dc:date>2021-01-16T13:34:16.222446</dc:date>
    <dc:format>image/svg+xml</dc:format>
    <dc:creator>
     <cc:Agent>
      <dc:title>Matplotlib v3.3.2, https://matplotlib.org/</dc:title>
     </cc:Agent>
    </dc:creator>
   </cc:Work>
  </rdf:RDF>
 </metadata>
 <defs>
  <style type="text/css">*{stroke-linecap:butt;stroke-linejoin:round;}</style>
 </defs>
 <g id="figure_1">
  <g id="patch_1">
   <path d="M 0 288 
L 432 288 
L 432 0 
L 0 0 
z
" style="fill:none;"/>
  </g>
  <g id="axes_1">
   <g id="patch_2">
    <path d="M 186.779986 260.158969 
C 203.352811 264.411925 220.643106 265.090909 237.498701 262.150677 
C 254.354296 259.210445 270.392285 252.717789 284.543948 243.105359 
C 298.695612 233.492928 310.639469 220.979088 319.579619 206.397719 
C 328.519769 191.816351 334.25312 175.498697 336.39762 158.532113 
C 338.542121 141.565529 337.049054 124.335443 332.017913 107.990012 
C 326.986772 91.64458 318.531849 76.555121 307.216553 63.727145 
C 295.901256 50.89917 281.982634 40.624091 266.388178 33.586605 
C 250.793722 26.549119 233.877689 22.909096 216.767309 22.909096 
L 216.767309 143.427183 
L 186.779986 260.158969 
z
" style="fill:#ffff00;"/>
   </g>
   <g id="patch_3">
    <path d="M 216.767332 22.909096 
C 187.412661 22.909091 159.04486 33.622779 137.025593 53.025218 
C 115.006326 72.427657 100.81612 99.214269 97.137 128.322242 
C 93.457879 157.430216 100.53722 186.902395 117.036989 211.168382 
C 133.536758 235.434369 158.347547 252.862572 186.779986 260.158969 
L 216.767309 143.427183 
L 216.767332 22.909096 
z
" style="fill:#ffffff;"/>
   </g>
   <g id="patch_4">
    <path clip-path="url(#p369a6c6809)" d="M 216.767309 251.893461 
C 245.54795 251.893461 273.153685 240.46477 293.504671 220.124424 
C 313.855657 199.784078 325.290327 172.192776 325.290327 143.427183 
C 325.290327 114.66159 313.855657 87.070288 293.504671 66.729942 
C 273.153685 46.389596 245.54795 34.960905 216.767309 34.960905 
C 187.986669 34.960905 160.380934 46.389596 140.029948 66.729942 
C 119.678962 87.070288 108.244292 114.66159 108.244292 143.427183 
C 108.244292 172.192776 119.678962 199.784078 140.029948 220.124424 
C 160.380934 240.46477 187.986669 251.893461 216.767309 251.893461 
z
" style="fill:#ffffff;stroke:#ffffff;stroke-linejoin:miter;"/>
   </g>
   <g id="matplotlib.axis_1">
    <g id="text_1">
     <!-- 54 -->
     <g transform="translate(146.421875 178.184375)scale(1 -1)">
      <defs>
       <path d="M 10.59375 72.90625 
L 57.328125 72.90625 
L 57.328125 59.078125 
L 25.59375 59.078125 
L 25.59375 47.796875 
Q 27.734375 48.390625 29.90625 48.703125 
Q 32.078125 49.03125 34.421875 49.03125 
Q 47.75 49.03125 55.171875 42.359375 
Q 62.59375 35.6875 62.59375 23.78125 
Q 62.59375 11.96875 54.515625 5.265625 
Q 46.4375 -1.421875 32.078125 -1.421875 
Q 25.875 -1.421875 19.796875 -0.21875 
Q 13.71875 0.984375 7.71875 3.421875 
L 7.71875 18.21875 
Q 13.671875 14.796875 19.015625 13.078125 
Q 24.359375 11.375 29.109375 11.375 
Q 35.9375 11.375 39.859375 14.71875 
Q 43.796875 18.0625 43.796875 23.78125 
Q 43.796875 29.546875 39.859375 32.859375 
Q 35.9375 36.1875 29.109375 36.1875 
Q 25.046875 36.1875 20.453125 35.125 
Q 15.875 34.078125 10.59375 31.890625 
z
" id="DejaVuSans-Bold-53"/>
       <path d="M 36.8125 57.421875 
L 16.21875 26.90625 
L 36.8125 26.90625 
z
M 33.6875 72.90625 
L 54.59375 72.90625 
L 54.59375 26.90625 
L 64.984375 26.90625 
L 64.984375 13.28125 
L 54.59375 13.28125 
L 54.59375 0 
L 36.8125 0 
L 36.8125 13.28125 
L 4.5 13.28125 
L 4.5 29.390625 
z
" id="DejaVuSans-Bold-52"/>
      </defs>
      <use xlink:href="#DejaVuSans-Bold-53"/>
      <use x="69.580078" xlink:href="#DejaVuSans-Bold-52"/>
     </g>
    </g>
   </g>
   <g id="matplotlib.axis_2"/>
  </g>
 </g>
 <defs>
  <clipPath id="p369a6c6809">
   <rect height="266.4" width="410.4" x="10.8" y="10.8"/>
  </clipPath>
 </defs>
</svg>
