<?xml version="1.0" encoding="utf-8" standalone="no"?>
<!DOCTYPE svg PUBLIC "-//W3C//DTD SVG 1.1//EN"
  "http://www.w3.org/Graphics/SVG/1.1/DTD/svg11.dtd">
<!-- Created with matplotlib (https://matplotlib.org/) -->
<svg height="288pt" version="1.1" viewBox="0 0 432 288" width="432pt" xmlns="http://www.w3.org/2000/svg" xmlns:xlink="http://www.w3.org/1999/xlink">
 <metadata>
  <rdf:RDF xmlns:cc="http://creativecommons.org/ns#" xmlns:dc="http://purl.org/dc/elements/1.1/" xmlns:rdf="http://www.w3.org/1999/02/22-rdf-syntax-ns#">
   <cc:Work>
    <dc:type rdf:resource="http://purl.org/dc/dcmitype/StillImage"/>
    <dc:date>2021-01-16T13:34:16.318497</dc:date>
    <dc:format>image/svg+xml</dc:format>
    <dc:creator>
     <cc:Agent>
      <dc:title>Matplotlib v3.3.2, https://matplotlib.org/</dc:title>
     </cc:Agent>
    </dc:creator>
   </cc:Work>
  </rdf:RDF>
 </metadata>
 <defs>
  <style type="text/css">*{stroke-linecap:butt;stroke-linejoin:round;}</style>
 </defs>
 <g id="figure_1">
  <g id="patch_1">
   <path d="M 0 288 
L 432 288 
L 432 0 
L 0 0 
z
" style="fill:none;"/>
  </g>
  <g id="axes_1">
   <g id="patch_2">
    <path d="M 179.630181 257.982096 
C 196.202209 263.363861 213.746382 265.090909 231.050463 263.043908 
C 248.354545 260.996907 265.010589 255.224115 279.867727 246.12441 
C 294.724865 237.024706 307.432839 224.812615 317.113574 210.331946 
C 326.79431 195.851278 333.219583 179.443416 335.945433 162.242081 
C 338.671283 145.040745 337.633446 127.45146 332.903634 110.689578 
C 328.173822 93.927696 319.86354 78.38838 308.546998 65.145338 
C 297.230455 51.902296 283.17444 41.267734 267.35017 33.976459 
C 251.525901 26.685185 234.306434 22.909091 216.881572 22.909091 
L 216.881572 143.394072 
L 179.630181 257.982096 
z
" style="fill:#ffff00;"/>
   </g>
   <g id="patch_3">
    <path d="M 216.881572 22.909091 
C 188.185896 22.909091 160.412269 33.149965 138.591906 51.776572 
C 116.771542 70.403179 102.306705 96.218498 97.817711 124.546064 
C 93.328717 152.873631 99.104047 181.893002 114.097495 206.347297 
C 129.090944 230.801592 152.338971 249.119279 179.630181 257.982096 
L 216.881572 143.394072 
L 216.881572 22.909091 
z
" style="fill:#ffffff;"/>
   </g>
   <g id="patch_4">
    <path clip-path="url(#p08e5191e37)" d="M 216.881572 251.830556 
C 245.654307 251.830556 273.252459 240.405004 293.597854 220.070245 
C 313.94325 199.735486 325.374779 172.151764 325.374779 143.394072 
C 325.374779 114.636381 313.94325 87.052658 293.597854 66.7179 
C 273.252459 46.383141 245.654307 34.957589 216.881572 34.957589 
C 188.108837 34.957589 160.510686 46.383141 140.16529 66.7179 
C 119.819894 87.052658 108.388365 114.636381 108.388365 143.394072 
C 108.388365 172.151764 119.819894 199.735486 140.16529 220.070245 
C 160.510686 240.405004 188.108837 251.830556 216.881572 251.830556 
z
" style="fill:#ffffff;stroke:#ffffff;stroke-linejoin:miter;"/>
   </g>
   <g id="matplotlib.axis_1">
    <g id="text_1">
     <!-- 55 -->
     <g transform="translate(146.421875 178.184375)scale(1 -1)">
      <defs>
       <path d="M 10.59375 72.90625 
L 57.328125 72.90625 
L 57.328125 59.078125 
L 25.59375 59.078125 
L 25.59375 47.796875 
Q 27.734375 48.390625 29.90625 48.703125 
Q 32.078125 49.03125 34.421875 49.03125 
Q 47.75 49.03125 55.171875 42.359375 
Q 62.59375 35.6875 62.59375 23.78125 
Q 62.59375 11.96875 54.515625 5.265625 
Q 46.4375 -1.421875 32.078125 -1.421875 
Q 25.875 -1.421875 19.796875 -0.21875 
Q 13.71875 0.984375 7.71875 3.421875 
L 7.71875 18.21875 
Q 13.671875 14.796875 19.015625 13.078125 
Q 24.359375 11.375 29.109375 11.375 
Q 35.9375 11.375 39.859375 14.71875 
Q 43.796875 18.0625 43.796875 23.78125 
Q 43.796875 29.546875 39.859375 32.859375 
Q 35.9375 36.1875 29.109375 36.1875 
Q 25.046875 36.1875 20.453125 35.125 
Q 15.875 34.078125 10.59375 31.890625 
z
" id="DejaVuSans-Bold-53"/>
      </defs>
      <use xlink:href="#DejaVuSans-Bold-53"/>
      <use x="69.580078" xlink:href="#DejaVuSans-Bold-53"/>
     </g>
    </g>
   </g>
   <g id="matplotlib.axis_2"/>
  </g>
 </g>
 <defs>
  <clipPath id="p08e5191e37">
   <rect height="266.4" width="410.4" x="10.8" y="10.8"/>
  </clipPath>
 </defs>
</svg>
