<?xml version="1.0" encoding="utf-8" standalone="no"?>
<!DOCTYPE svg PUBLIC "-//W3C//DTD SVG 1.1//EN"
  "http://www.w3.org/Graphics/SVG/1.1/DTD/svg11.dtd">
<!-- Created with matplotlib (https://matplotlib.org/) -->
<svg height="288pt" version="1.1" viewBox="0 0 432 288" width="432pt" xmlns="http://www.w3.org/2000/svg" xmlns:xlink="http://www.w3.org/1999/xlink">
 <metadata>
  <rdf:RDF xmlns:cc="http://creativecommons.org/ns#" xmlns:dc="http://purl.org/dc/elements/1.1/" xmlns:rdf="http://www.w3.org/1999/02/22-rdf-syntax-ns#">
   <cc:Work>
    <dc:type rdf:resource="http://purl.org/dc/dcmitype/StillImage"/>
    <dc:date>2021-01-16T13:34:16.514458</dc:date>
    <dc:format>image/svg+xml</dc:format>
    <dc:creator>
     <cc:Agent>
      <dc:title>Matplotlib v3.3.2, https://matplotlib.org/</dc:title>
     </cc:Agent>
    </dc:creator>
   </cc:Work>
  </rdf:RDF>
 </metadata>
 <defs>
  <style type="text/css">*{stroke-linecap:butt;stroke-linejoin:round;}</style>
 </defs>
 <g id="figure_1">
  <g id="patch_1">
   <path d="M 0 288 
L 432 288 
L 432 0 
L 0 0 
z
" style="fill:none;"/>
  </g>
  <g id="axes_1">
   <g id="patch_2">
    <path d="M 165.467041 253.434237 
C 181.884289 261.155568 199.829946 265.090909 217.973459 264.948481 
C 236.116971 264.806053 253.998568 260.589465 270.292445 252.61135 
C 286.586322 244.633235 300.87958 233.095764 312.112465 218.854366 
C 323.34535 204.612968 331.233212 188.028532 335.191219 170.330685 
C 339.149225 152.632839 339.077076 134.270059 334.980121 116.603828 
C 330.883166 98.937597 322.865226 82.415591 311.520778 68.262809 
C 300.176329 54.110026 285.792851 42.685111 269.436784 34.835146 
C 253.080717 26.985181 235.166538 22.909091 217.022465 22.909091 
L 217.022465 143.930652 
L 165.467041 253.434237 
z
" style="fill:#ffff00;"/>
   </g>
   <g id="patch_3">
    <path d="M 217.022465 22.909091 
C 189.504135 22.909091 162.791181 32.285108 141.31504 49.481747 
C 119.838898 66.678385 104.856649 90.689061 98.853712 117.530619 
C 92.850775 144.372178 96.178524 172.473483 108.284916 197.172781 
C 120.391308 221.87208 140.567711 241.723629 165.467041 253.434237 
L 217.022465 143.930652 
L 217.022465 22.909091 
z
" style="fill:#ffffff;"/>
   </g>
   <g id="patch_4">
    <path clip-path="url(#p403d874fc9)" d="M 217.022465 252.850058 
C 245.92334 252.850058 273.6444 241.373622 294.080404 220.948302 
C 314.516408 200.522983 325.998847 172.816416 325.998847 143.930652 
C 325.998847 115.044888 314.516408 87.338322 294.080404 66.913002 
C 273.6444 46.487683 245.92334 35.011247 217.022465 35.011247 
C 188.121591 35.011247 160.400531 46.487683 139.964527 66.913002 
C 119.528523 87.338322 108.046084 115.044888 108.046084 143.930652 
C 108.046084 172.816416 119.528523 200.522983 139.964527 220.948302 
C 160.400531 241.373622 188.121591 252.850058 217.022465 252.850058 
z
" style="fill:#ffffff;stroke:#ffffff;stroke-linejoin:miter;"/>
   </g>
   <g id="matplotlib.axis_1">
    <g id="text_1">
     <!-- 57 -->
     <g transform="translate(146.421875 178.184375)scale(1 -1)">
      <defs>
       <path d="M 10.59375 72.90625 
L 57.328125 72.90625 
L 57.328125 59.078125 
L 25.59375 59.078125 
L 25.59375 47.796875 
Q 27.734375 48.390625 29.90625 48.703125 
Q 32.078125 49.03125 34.421875 49.03125 
Q 47.75 49.03125 55.171875 42.359375 
Q 62.59375 35.6875 62.59375 23.78125 
Q 62.59375 11.96875 54.515625 5.265625 
Q 46.4375 -1.421875 32.078125 -1.421875 
Q 25.875 -1.421875 19.796875 -0.21875 
Q 13.71875 0.984375 7.71875 3.421875 
L 7.71875 18.21875 
Q 13.671875 14.796875 19.015625 13.078125 
Q 24.359375 11.375 29.109375 11.375 
Q 35.9375 11.375 39.859375 14.71875 
Q 43.796875 18.0625 43.796875 23.78125 
Q 43.796875 29.546875 39.859375 32.859375 
Q 35.9375 36.1875 29.109375 36.1875 
Q 25.046875 36.1875 20.453125 35.125 
Q 15.875 34.078125 10.59375 31.890625 
z
" id="DejaVuSans-Bold-53"/>
       <path d="M 6.6875 72.90625 
L 61.625 72.90625 
L 61.625 62.3125 
L 33.203125 0 
L 14.890625 0 
L 41.796875 59.078125 
L 6.6875 59.078125 
z
" id="DejaVuSans-Bold-55"/>
      </defs>
      <use xlink:href="#DejaVuSans-Bold-53"/>
      <use x="69.580078" xlink:href="#DejaVuSans-Bold-55"/>
     </g>
    </g>
   </g>
   <g id="matplotlib.axis_2"/>
  </g>
 </g>
 <defs>
  <clipPath id="p403d874fc9">
   <rect height="266.4" width="410.4" x="10.8" y="10.8"/>
  </clipPath>
 </defs>
</svg>
