<?xml version="1.0" encoding="utf-8" standalone="no"?>
<!DOCTYPE svg PUBLIC "-//W3C//DTD SVG 1.1//EN"
  "http://www.w3.org/Graphics/SVG/1.1/DTD/svg11.dtd">
<!-- Created with matplotlib (https://matplotlib.org/) -->
<svg height="288pt" version="1.1" viewBox="0 0 432 288" width="432pt" xmlns="http://www.w3.org/2000/svg" xmlns:xlink="http://www.w3.org/1999/xlink">
 <metadata>
  <rdf:RDF xmlns:cc="http://creativecommons.org/ns#" xmlns:dc="http://purl.org/dc/elements/1.1/" xmlns:rdf="http://www.w3.org/1999/02/22-rdf-syntax-ns#">
   <cc:Work>
    <dc:type rdf:resource="http://purl.org/dc/dcmitype/StillImage"/>
    <dc:date>2021-01-16T13:34:10.468792</dc:date>
    <dc:format>image/svg+xml</dc:format>
    <dc:creator>
     <cc:Agent>
      <dc:title>Matplotlib v3.3.2, https://matplotlib.org/</dc:title>
     </cc:Agent>
    </dc:creator>
   </cc:Work>
  </rdf:RDF>
 </metadata>
 <defs>
  <style type="text/css">*{stroke-linecap:butt;stroke-linejoin:round;}</style>
 </defs>
 <g id="figure_1">
  <g id="patch_1">
   <path d="M 0 288 
L 432 288 
L 432 0 
L 0 0 
z
" style="fill:none;"/>
  </g>
  <g id="axes_1">
   <g id="patch_2">
    <path d="M 260.484231 31.387518 
C 253.422041 28.592861 246.111843 26.470163 238.650803 25.047637 
C 231.189764 23.625112 223.611087 22.909091 216.015509 22.909091 
L 216.015509 143.643972 
L 260.484231 31.387518 
z
" style="fill:#008000;"/>
   </g>
   <g id="patch_3">
    <path d="M 216.015506 22.909091 
C 201.109758 22.909091 186.331948 25.666568 172.430266 31.041911 
C 158.528584 36.417255 145.74167 44.318192 134.716915 54.344702 
C 123.692161 64.371212 114.61882 76.351178 107.95627 89.678064 
C 101.29372 103.004949 97.156331 117.449982 95.753576 132.281819 
C 94.350822 147.113655 95.706782 162.077691 99.752805 176.416305 
C 103.798828 190.754919 110.465459 204.221973 119.415172 216.135639 
C 128.364884 228.049304 139.444046 238.205069 152.091725 246.088753 
C 164.739404 253.972438 178.738489 259.448709 193.380215 262.240307 
C 208.021941 265.031905 223.054966 265.090909 237.718176 262.414331 
C 252.381387 259.737753 266.423073 254.37154 279.132312 246.58738 
C 291.841551 238.80322 303.000174 228.734738 312.043228 216.891693 
C 321.086282 205.048648 327.858531 191.634341 332.017102 177.327929 
C 336.175673 163.021517 337.649178 148.068587 336.363015 133.226197 
C 335.076852 118.383806 331.0531 103.906742 324.495477 90.527968 
C 317.937855 77.149194 308.958932 65.098373 298.013306 54.98563 
C 287.06768 44.872888 274.343245 36.871821 260.484231 31.387518 
L 216.015509 143.643972 
L 216.015506 22.909091 
z
" style="fill:#ffffff;"/>
   </g>
   <g id="patch_4">
    <path clip-path="url(#pcd1e448e4c)" d="M 216.015509 252.305365 
C 244.847921 252.305365 272.503315 240.856116 292.890909 220.47918 
C 313.278504 200.102245 324.733743 172.461311 324.733743 143.643972 
C 324.733743 114.826634 313.278504 87.1857 292.890909 66.808764 
C 272.503315 46.431829 244.847921 34.982579 216.015509 34.982579 
C 187.183096 34.982579 159.527702 46.431829 139.140108 66.808764 
C 118.752513 87.1857 107.297274 114.826634 107.297274 143.643972 
C 107.297274 172.461311 118.752513 200.102245 139.140108 220.47918 
C 159.527702 240.856116 187.183096 252.305365 216.015509 252.305365 
z
" style="fill:#ffffff;stroke:#ffffff;stroke-linejoin:miter;"/>
   </g>
   <g id="matplotlib.axis_1">
    <g id="text_1">
     <!-- 6 -->
     <g transform="translate(181.210938 178.184375)scale(1 -1)">
      <defs>
       <path d="M 36.1875 35.984375 
Q 31.25 35.984375 28.78125 32.78125 
Q 26.3125 29.59375 26.3125 23.1875 
Q 26.3125 16.796875 28.78125 13.59375 
Q 31.25 10.40625 36.1875 10.40625 
Q 41.15625 10.40625 43.625 13.59375 
Q 46.09375 16.796875 46.09375 23.1875 
Q 46.09375 29.59375 43.625 32.78125 
Q 41.15625 35.984375 36.1875 35.984375 
z
M 59.421875 71 
L 59.421875 57.515625 
Q 54.78125 59.71875 50.671875 60.765625 
Q 46.578125 61.8125 42.671875 61.8125 
Q 34.28125 61.8125 29.59375 57.140625 
Q 24.90625 52.484375 24.125 43.3125 
Q 27.34375 45.703125 31.09375 46.890625 
Q 34.859375 48.09375 39.3125 48.09375 
Q 50.484375 48.09375 57.34375 41.546875 
Q 64.203125 35.015625 64.203125 24.421875 
Q 64.203125 12.703125 56.53125 5.640625 
Q 48.875 -1.421875 35.984375 -1.421875 
Q 21.78125 -1.421875 13.984375 8.171875 
Q 6.203125 17.78125 6.203125 35.40625 
Q 6.203125 53.46875 15.3125 63.796875 
Q 24.421875 74.125 40.28125 74.125 
Q 45.3125 74.125 50.046875 73.34375 
Q 54.78125 72.5625 59.421875 71 
z
" id="DejaVuSans-Bold-54"/>
      </defs>
      <use xlink:href="#DejaVuSans-Bold-54"/>
     </g>
    </g>
   </g>
   <g id="matplotlib.axis_2"/>
  </g>
 </g>
 <defs>
  <clipPath id="pcd1e448e4c">
   <rect height="266.4" width="410.4" x="10.8" y="10.8"/>
  </clipPath>
 </defs>
</svg>
