<?xml version="1.0" encoding="utf-8" standalone="no"?>
<!DOCTYPE svg PUBLIC "-//W3C//DTD SVG 1.1//EN"
  "http://www.w3.org/Graphics/SVG/1.1/DTD/svg11.dtd">
<!-- Created with matplotlib (https://matplotlib.org/) -->
<svg height="288pt" version="1.1" viewBox="0 0 432 288" width="432pt" xmlns="http://www.w3.org/2000/svg" xmlns:xlink="http://www.w3.org/1999/xlink">
 <metadata>
  <rdf:RDF xmlns:cc="http://creativecommons.org/ns#" xmlns:dc="http://purl.org/dc/elements/1.1/" xmlns:rdf="http://www.w3.org/1999/02/22-rdf-syntax-ns#">
   <cc:Work>
    <dc:type rdf:resource="http://purl.org/dc/dcmitype/StillImage"/>
    <dc:date>2021-01-16T13:34:17.699397</dc:date>
    <dc:format>image/svg+xml</dc:format>
    <dc:creator>
     <cc:Agent>
      <dc:title>Matplotlib v3.3.2, https://matplotlib.org/</dc:title>
     </cc:Agent>
    </dc:creator>
   </cc:Work>
  </rdf:RDF>
 </metadata>
 <defs>
  <style type="text/css">*{stroke-linecap:butt;stroke-linejoin:round;}</style>
 </defs>
 <g id="figure_1">
  <g id="patch_1">
   <path d="M 0 288 
L 432 288 
L 432 0 
L 0 0 
z
" style="fill:none;"/>
  </g>
  <g id="axes_1">
   <g id="patch_2">
    <path d="M 114.111962 208.42328 
C 125.363415 226.143469 141.0437 240.630602 159.601281 250.451201 
C 178.158862 260.271801 198.960782 265.090909 219.948728 264.431684 
C 240.936674 263.772458 261.394795 257.657384 279.298796 246.691537 
C 297.202798 235.72569 311.942015 220.283089 322.058028 201.891754 
C 332.174041 183.500418 337.321816 162.787634 336.991991 141.802894 
C 336.662165 120.818154 330.865987 100.277201 320.17698 82.212525 
C 309.487973 64.147848 294.270713 49.175594 276.030922 38.77724 
C 257.79113 28.378885 237.150925 22.909095 216.152618 22.909095 
L 216.152618 143.700191 
L 114.111962 208.42328 
z
" style="fill:#ffa500;"/>
   </g>
   <g id="patch_3">
    <path d="M 216.152641 22.909095 
C 194.510706 22.909091 173.260926 28.719329 154.632802 39.730207 
C 136.004678 50.741085 120.673298 66.553564 110.247214 85.508618 
C 99.821129 104.463672 94.678184 125.874364 95.35797 147.49431 
C 96.037755 169.114256 102.515637 190.159942 114.111962 208.42328 
L 216.152618 143.700191 
L 216.152641 22.909095 
z
" style="fill:#ffffff;"/>
   </g>
   <g id="patch_4">
    <path clip-path="url(#p16d645009b)" d="M 216.152618 252.412177 
C 244.998455 252.412177 272.666725 240.957596 293.063812 220.571173 
C 313.460899 200.18475 324.921472 172.530946 324.921472 143.700191 
C 324.921472 114.869435 313.460899 87.215631 293.063812 66.829208 
C 272.666725 46.442785 244.998455 34.988205 216.152618 34.988205 
C 187.306781 34.988205 159.638511 46.442785 139.241424 66.829208 
C 118.844337 87.215631 107.383764 114.869435 107.383764 143.700191 
C 107.383764 172.530946 118.844337 200.18475 139.241424 220.571173 
C 159.638511 240.957596 187.306781 252.412177 216.152618 252.412177 
z
" style="fill:#ffffff;stroke:#ffffff;stroke-linejoin:miter;"/>
   </g>
   <g id="matplotlib.axis_1">
    <g id="text_1">
     <!-- 66 -->
     <g transform="translate(146.421875 178.184375)scale(1 -1)">
      <defs>
       <path d="M 36.1875 35.984375 
Q 31.25 35.984375 28.78125 32.78125 
Q 26.3125 29.59375 26.3125 23.1875 
Q 26.3125 16.796875 28.78125 13.59375 
Q 31.25 10.40625 36.1875 10.40625 
Q 41.15625 10.40625 43.625 13.59375 
Q 46.09375 16.796875 46.09375 23.1875 
Q 46.09375 29.59375 43.625 32.78125 
Q 41.15625 35.984375 36.1875 35.984375 
z
M 59.421875 71 
L 59.421875 57.515625 
Q 54.78125 59.71875 50.671875 60.765625 
Q 46.578125 61.8125 42.671875 61.8125 
Q 34.28125 61.8125 29.59375 57.140625 
Q 24.90625 52.484375 24.125 43.3125 
Q 27.34375 45.703125 31.09375 46.890625 
Q 34.859375 48.09375 39.3125 48.09375 
Q 50.484375 48.09375 57.34375 41.546875 
Q 64.203125 35.015625 64.203125 24.421875 
Q 64.203125 12.703125 56.53125 5.640625 
Q 48.875 -1.421875 35.984375 -1.421875 
Q 21.78125 -1.421875 13.984375 8.171875 
Q 6.203125 17.78125 6.203125 35.40625 
Q 6.203125 53.46875 15.3125 63.796875 
Q 24.421875 74.125 40.28125 74.125 
Q 45.3125 74.125 50.046875 73.34375 
Q 54.78125 72.5625 59.421875 71 
z
" id="DejaVuSans-Bold-54"/>
      </defs>
      <use xlink:href="#DejaVuSans-Bold-54"/>
      <use x="69.580078" xlink:href="#DejaVuSans-Bold-54"/>
     </g>
    </g>
   </g>
   <g id="matplotlib.axis_2"/>
  </g>
 </g>
 <defs>
  <clipPath id="p16d645009b">
   <rect height="266.4" width="410.4" x="10.8" y="10.8"/>
  </clipPath>
 </defs>
</svg>
