<?xml version="1.0" encoding="utf-8" standalone="no"?>
<!DOCTYPE svg PUBLIC "-//W3C//DTD SVG 1.1//EN"
  "http://www.w3.org/Graphics/SVG/1.1/DTD/svg11.dtd">
<!-- Created with matplotlib (https://matplotlib.org/) -->
<svg height="288pt" version="1.1" viewBox="0 0 432 288" width="432pt" xmlns="http://www.w3.org/2000/svg" xmlns:xlink="http://www.w3.org/1999/xlink">
 <metadata>
  <rdf:RDF xmlns:cc="http://creativecommons.org/ns#" xmlns:dc="http://purl.org/dc/elements/1.1/" xmlns:rdf="http://www.w3.org/1999/02/22-rdf-syntax-ns#">
   <cc:Work>
    <dc:type rdf:resource="http://purl.org/dc/dcmitype/StillImage"/>
    <dc:date>2021-01-16T13:34:10.642591</dc:date>
    <dc:format>image/svg+xml</dc:format>
    <dc:creator>
     <cc:Agent>
      <dc:title>Matplotlib v3.3.2, https://matplotlib.org/</dc:title>
     </cc:Agent>
    </dc:creator>
   </cc:Work>
  </rdf:RDF>
 </metadata>
 <defs>
  <style type="text/css">*{stroke-linecap:butt;stroke-linejoin:round;}</style>
 </defs>
 <g id="figure_1">
  <g id="patch_1">
   <path d="M 0 288 
L 432 288 
L 432 0 
L 0 0 
z
" style="fill:none;"/>
  </g>
  <g id="axes_1">
   <g id="patch_2">
    <path d="M 267.622914 34.392688 
C 259.607598 30.622939 251.201437 27.746371 242.556381 25.814982 
C 233.911324 23.883594 225.079778 22.909092 216.221383 22.909092 
L 216.221383 143.569391 
L 267.622914 34.392688 
z
" style="fill:#008000;"/>
   </g>
   <g id="patch_3">
    <path d="M 216.221389 22.909092 
C 201.4842 22.909091 186.870804 25.60622 173.105552 30.86679 
C 159.340299 36.127359 146.654448 43.862991 135.676803 53.690248 
C 124.699159 63.517505 115.614147 75.271289 108.872089 88.368993 
C 102.130032 101.466698 97.844196 115.68828 96.22702 130.328812 
C 94.609845 144.969343 95.688498 159.782861 99.409513 174.035096 
C 103.130529 188.287331 109.431393 201.738844 117.999789 213.722877 
C 126.568184 225.706909 137.26016 236.022128 149.545742 244.157234 
C 161.831324 252.29234 175.504113 258.110661 189.886382 261.323799 
C 204.268652 264.536936 219.118778 265.090909 233.700676 262.958258 
C 248.282575 260.825606 262.351269 256.04216 275.209407 248.845021 
C 288.067545 241.647883 299.49911 232.157966 308.937467 220.845662 
C 318.375824 209.533357 325.662408 196.588714 330.43604 182.653365 
C 335.209672 168.718016 337.390155 154.026078 336.869409 139.305793 
C 336.348662 124.585508 333.135434 110.084179 327.388996 96.5206 
C 321.642559 82.957022 313.459452 70.559064 303.245293 59.941263 
C 293.031134 49.323461 280.957521 40.664197 267.622914 34.392688 
L 216.221383 143.569391 
L 216.221389 22.909092 
z
" style="fill:#ffffff;"/>
   </g>
   <g id="patch_4">
    <path clip-path="url(#p058a69b8e7)" d="M 216.221383 252.16366 
C 245.035985 252.16366 272.674295 240.721483 293.049295 220.357135 
C 313.424296 199.992787 324.872458 172.368928 324.872458 143.569391 
C 324.872458 114.769854 313.424296 87.145994 293.049295 66.781647 
C 272.674295 46.417299 245.035985 34.975122 216.221383 34.975122 
C 187.406781 34.975122 159.768471 46.417299 139.393471 66.781647 
C 119.01847 87.145994 107.570307 114.769854 107.570307 143.569391 
C 107.570307 172.368928 119.01847 199.992787 139.393471 220.357135 
C 159.768471 240.721483 187.406781 252.16366 216.221383 252.16366 
z
" style="fill:#ffffff;stroke:#ffffff;stroke-linejoin:miter;"/>
   </g>
   <g id="matplotlib.axis_1">
    <g id="text_1">
     <!-- 7 -->
     <g transform="translate(181.210938 178.184375)scale(1 -1)">
      <defs>
       <path d="M 6.6875 72.90625 
L 61.625 72.90625 
L 61.625 62.3125 
L 33.203125 0 
L 14.890625 0 
L 41.796875 59.078125 
L 6.6875 59.078125 
z
" id="DejaVuSans-Bold-55"/>
      </defs>
      <use xlink:href="#DejaVuSans-Bold-55"/>
     </g>
    </g>
   </g>
   <g id="matplotlib.axis_2"/>
  </g>
 </g>
 <defs>
  <clipPath id="p058a69b8e7">
   <rect height="266.4" width="410.4" x="10.8" y="10.8"/>
  </clipPath>
 </defs>
</svg>
