<?xml version="1.0" encoding="utf-8" standalone="no"?>
<!DOCTYPE svg PUBLIC "-//W3C//DTD SVG 1.1//EN"
  "http://www.w3.org/Graphics/SVG/1.1/DTD/svg11.dtd">
<!-- Created with matplotlib (https://matplotlib.org/) -->
<svg height="288pt" version="1.1" viewBox="0 0 432 288" width="432pt" xmlns="http://www.w3.org/2000/svg" xmlns:xlink="http://www.w3.org/1999/xlink">
 <metadata>
  <rdf:RDF xmlns:cc="http://creativecommons.org/ns#" xmlns:dc="http://purl.org/dc/elements/1.1/" xmlns:rdf="http://www.w3.org/1999/02/22-rdf-syntax-ns#">
   <cc:Work>
    <dc:type rdf:resource="http://purl.org/dc/dcmitype/StillImage"/>
    <dc:date>2021-01-16T13:34:18.178089</dc:date>
    <dc:format>image/svg+xml</dc:format>
    <dc:creator>
     <cc:Agent>
      <dc:title>Matplotlib v3.3.2, https://matplotlib.org/</dc:title>
     </cc:Agent>
    </dc:creator>
   </cc:Work>
  </rdf:RDF>
 </metadata>
 <defs>
  <style type="text/css">*{stroke-linecap:butt;stroke-linejoin:round;}</style>
 </defs>
 <g id="figure_1">
  <g id="patch_1">
   <path d="M 0 288 
L 432 288 
L 432 0 
L 0 0 
z
" style="fill:none;"/>
  </g>
  <g id="axes_1">
   <g id="patch_2">
    <path d="M 101.7797 180.119364 
C 108.627001 201.182164 121.171889 219.947097 138.021212 234.330253 
C 154.870535 248.713408 175.37659 258.161885 197.262109 261.626397 
C 219.147627 265.090909 241.571312 262.438278 262.042934 253.963086 
C 282.514555 245.487895 300.247168 231.515938 313.271504 213.598849 
C 326.295839 195.68176 334.111231 174.508288 335.849753 152.42982 
C 337.588274 130.351351 333.183095 108.216602 323.123426 88.483713 
C 313.063757 68.750824 297.7363 52.178344 278.843223 40.606705 
C 259.950145 29.035066 238.217713 22.909091 216.059389 22.909091 
L 216.059389 143.007046 
L 101.7797 180.119364 
z
" style="fill:#ffa500;"/>
   </g>
   <g id="patch_3">
    <path d="M 216.059389 22.909091 
C 197.097692 22.909091 178.402531 27.395055 161.507535 35.998985 
C 144.612539 44.602916 129.99268 57.082927 118.847274 72.415243 
C 107.701869 87.747558 100.34425 105.501137 97.377988 124.219593 
C 94.411726 142.938049 95.920212 162.095147 101.7797 180.119364 
L 216.059389 143.007046 
L 216.059389 22.909091 
z
" style="fill:#ffffff;"/>
   </g>
   <g id="patch_4">
    <path clip-path="url(#p609b1aab24)" d="M 216.059389 251.095206 
C 244.739699 251.095206 272.249199 239.706355 292.529241 219.436917 
C 312.809282 199.167478 324.20409 171.672361 324.20409 143.007046 
C 324.20409 114.341731 312.809282 86.846614 292.529241 66.577175 
C 272.249199 46.307737 244.739699 34.918886 216.059389 34.918886 
C 187.379079 34.918886 159.869579 46.307737 139.589538 66.577175 
C 119.309496 86.846614 107.914688 114.341731 107.914688 143.007046 
C 107.914688 171.672361 119.309496 199.167478 139.589538 219.436917 
C 159.869579 239.706355 187.379079 251.095206 216.059389 251.095206 
z
" style="fill:#ffffff;stroke:#ffffff;stroke-linejoin:miter;"/>
   </g>
   <g id="matplotlib.axis_1">
    <g id="text_1">
     <!-- 70 -->
     <g transform="translate(146.421875 178.184375)scale(1 -1)">
      <defs>
       <path d="M 6.6875 72.90625 
L 61.625 72.90625 
L 61.625 62.3125 
L 33.203125 0 
L 14.890625 0 
L 41.796875 59.078125 
L 6.6875 59.078125 
z
" id="DejaVuSans-Bold-55"/>
       <path d="M 46 36.53125 
Q 46 50.203125 43.4375 55.78125 
Q 40.875 61.375 34.8125 61.375 
Q 28.765625 61.375 26.171875 55.78125 
Q 23.578125 50.203125 23.578125 36.53125 
Q 23.578125 22.703125 26.171875 17.03125 
Q 28.765625 11.375 34.8125 11.375 
Q 40.828125 11.375 43.40625 17.03125 
Q 46 22.703125 46 36.53125 
z
M 64.796875 36.375 
Q 64.796875 18.265625 56.984375 8.421875 
Q 49.171875 -1.421875 34.8125 -1.421875 
Q 20.40625 -1.421875 12.59375 8.421875 
Q 4.78125 18.265625 4.78125 36.375 
Q 4.78125 54.546875 12.59375 64.375 
Q 20.40625 74.21875 34.8125 74.21875 
Q 49.171875 74.21875 56.984375 64.375 
Q 64.796875 54.546875 64.796875 36.375 
z
" id="DejaVuSans-Bold-48"/>
      </defs>
      <use xlink:href="#DejaVuSans-Bold-55"/>
      <use x="69.580078" xlink:href="#DejaVuSans-Bold-48"/>
     </g>
    </g>
   </g>
   <g id="matplotlib.axis_2"/>
  </g>
 </g>
 <defs>
  <clipPath id="p609b1aab24">
   <rect height="266.4" width="410.4" x="10.8" y="10.8"/>
  </clipPath>
 </defs>
</svg>
