<?xml version="1.0" encoding="utf-8" standalone="no"?>
<!DOCTYPE svg PUBLIC "-//W3C//DTD SVG 1.1//EN"
  "http://www.w3.org/Graphics/SVG/1.1/DTD/svg11.dtd">
<!-- Created with matplotlib (https://matplotlib.org/) -->
<svg height="288pt" version="1.1" viewBox="0 0 432 288" width="432pt" xmlns="http://www.w3.org/2000/svg" xmlns:xlink="http://www.w3.org/1999/xlink">
 <metadata>
  <rdf:RDF xmlns:cc="http://creativecommons.org/ns#" xmlns:dc="http://purl.org/dc/elements/1.1/" xmlns:rdf="http://www.w3.org/1999/02/22-rdf-syntax-ns#">
   <cc:Work>
    <dc:type rdf:resource="http://purl.org/dc/dcmitype/StillImage"/>
    <dc:date>2021-01-16T13:34:18.379949</dc:date>
    <dc:format>image/svg+xml</dc:format>
    <dc:creator>
     <cc:Agent>
      <dc:title>Matplotlib v3.3.2, https://matplotlib.org/</dc:title>
     </cc:Agent>
    </dc:creator>
   </cc:Work>
  </rdf:RDF>
 </metadata>
 <defs>
  <style type="text/css">*{stroke-linecap:butt;stroke-linejoin:round;}</style>
 </defs>
 <g id="figure_1">
  <g id="patch_1">
   <path d="M 0 288 
L 432 288 
L 432 0 
L 0 0 
z
" style="fill:none;"/>
  </g>
  <g id="axes_1">
   <g id="patch_2">
    <path d="M 97.560543 165.565301 
C 101.834375 187.957819 112.397755 208.67879 128.011058 225.296581 
C 143.624361 241.914373 163.651978 253.752483 185.743641 259.421696 
C 207.835305 265.090909 231.091676 264.360433 252.78359 257.315991 
C 274.475504 250.271548 293.719893 237.199915 308.258406 219.635064 
C 322.796919 202.070213 332.037699 180.727199 334.896329 158.110653 
C 337.754959 135.494106 334.115067 112.524736 324.403797 91.898024 
C 314.692527 71.271313 299.305221 53.826964 280.047598 41.612094 
C 260.789975 29.397224 238.446004 22.909094 215.637777 22.909094 
L 215.637777 143.052663 
L 97.560543 165.565301 
z
" style="fill:#ffa500;"/>
   </g>
   <g id="patch_3">
    <path d="M 215.6378 22.909094 
C 197.943904 22.909091 180.466312 26.81375 164.456395 34.343502 
C 148.446477 41.873255 134.295672 52.844002 123.017156 66.470253 
C 111.738639 80.096504 103.608168 96.045102 99.207872 113.174151 
C 94.807576 130.3032 94.245041 148.193899 97.560543 165.565301 
L 215.637777 143.052663 
L 215.6378 22.909094 
z
" style="fill:#ffffff;"/>
   </g>
   <g id="patch_4">
    <path clip-path="url(#pa9c72bb947)" d="M 215.637777 251.181875 
C 244.32898 251.181875 271.848928 239.788699 292.136672 219.511562 
C 312.424416 199.234425 323.823552 171.728865 323.823552 143.052663 
C 323.823552 114.376461 312.424416 86.870901 292.136672 66.593764 
C 271.848928 46.316627 244.32898 34.923451 215.637777 34.923451 
C 186.946574 34.923451 159.426626 46.316627 139.138882 66.593764 
C 118.851138 86.870901 107.452003 114.376461 107.452003 143.052663 
C 107.452003 171.728865 118.851138 199.234425 139.138882 219.511562 
C 159.426626 239.788699 186.946574 251.181875 215.637777 251.181875 
z
" style="fill:#ffffff;stroke:#ffffff;stroke-linejoin:miter;"/>
   </g>
   <g id="matplotlib.axis_1">
    <g id="text_1">
     <!-- 72 -->
     <g transform="translate(146.421875 178.184375)scale(1 -1)">
      <defs>
       <path d="M 6.6875 72.90625 
L 61.625 72.90625 
L 61.625 62.3125 
L 33.203125 0 
L 14.890625 0 
L 41.796875 59.078125 
L 6.6875 59.078125 
z
" id="DejaVuSans-Bold-55"/>
       <path d="M 28.8125 13.8125 
L 60.890625 13.8125 
L 60.890625 0 
L 7.90625 0 
L 7.90625 13.8125 
L 34.515625 37.3125 
Q 38.09375 40.53125 39.796875 43.609375 
Q 41.5 46.6875 41.5 50 
Q 41.5 55.125 38.0625 58.25 
Q 34.625 61.375 28.90625 61.375 
Q 24.515625 61.375 19.28125 59.5 
Q 14.0625 57.625 8.109375 53.90625 
L 8.109375 69.921875 
Q 14.453125 72.015625 20.65625 73.109375 
Q 26.859375 74.21875 32.8125 74.21875 
Q 45.90625 74.21875 53.15625 68.453125 
Q 60.40625 62.703125 60.40625 52.390625 
Q 60.40625 46.4375 57.328125 41.28125 
Q 54.25 36.140625 44.390625 27.484375 
z
" id="DejaVuSans-Bold-50"/>
      </defs>
      <use xlink:href="#DejaVuSans-Bold-55"/>
      <use x="69.580078" xlink:href="#DejaVuSans-Bold-50"/>
     </g>
    </g>
   </g>
   <g id="matplotlib.axis_2"/>
  </g>
 </g>
 <defs>
  <clipPath id="pa9c72bb947">
   <rect height="266.4" width="410.4" x="10.8" y="10.8"/>
  </clipPath>
 </defs>
</svg>
