<?xml version="1.0" encoding="utf-8" standalone="no"?>
<!DOCTYPE svg PUBLIC "-//W3C//DTD SVG 1.1//EN"
  "http://www.w3.org/Graphics/SVG/1.1/DTD/svg11.dtd">
<!-- Created with matplotlib (https://matplotlib.org/) -->
<svg height="288pt" version="1.1" viewBox="0 0 432 288" width="432pt" xmlns="http://www.w3.org/2000/svg" xmlns:xlink="http://www.w3.org/1999/xlink">
 <metadata>
  <rdf:RDF xmlns:cc="http://creativecommons.org/ns#" xmlns:dc="http://purl.org/dc/elements/1.1/" xmlns:rdf="http://www.w3.org/1999/02/22-rdf-syntax-ns#">
   <cc:Work>
    <dc:type rdf:resource="http://purl.org/dc/dcmitype/StillImage"/>
    <dc:date>2021-01-16T13:34:18.540450</dc:date>
    <dc:format>image/svg+xml</dc:format>
    <dc:creator>
     <cc:Agent>
      <dc:title>Matplotlib v3.3.2, https://matplotlib.org/</dc:title>
     </cc:Agent>
    </dc:creator>
   </cc:Work>
  </rdf:RDF>
 </metadata>
 <defs>
  <style type="text/css">*{stroke-linecap:butt;stroke-linejoin:round;}</style>
 </defs>
 <g id="figure_1">
  <g id="patch_1">
   <path d="M 0 288 
L 432 288 
L 432 0 
L 0 0 
z
" style="fill:none;"/>
  </g>
  <g id="axes_1">
   <g id="patch_2">
    <path d="M 96.220499 158.183531 
C 99.120919 181.130744 108.587083 202.760883 123.477741 220.466203 
C 138.368398 238.171522 158.060085 251.210707 180.178755 258.011742 
C 202.297425 264.812778 225.91698 265.090909 248.189826 258.812603 
C 270.462672 252.534296 290.456256 239.962423 305.760135 222.612658 
C 321.064014 205.262893 331.037421 183.861663 334.477954 160.989118 
C 337.918487 138.116572 334.682093 114.730375 325.158954 93.649985 
C 315.635814 72.569595 300.22466 54.677639 280.783471 42.131185 
C 261.342282 29.584731 238.685053 22.909094 215.543358 22.909094 
L 215.543358 143.117444 
L 96.220499 158.183531 
z
" style="fill:#ffa500;"/>
   </g>
   <g id="patch_3">
    <path d="M 215.54338 22.909094 
C 198.476975 22.909091 181.604416 26.539755 166.050037 33.559152 
C 150.495659 40.578548 136.612806 50.827217 125.326588 63.622222 
C 114.040369 76.417227 105.607173 91.467904 100.588959 107.771326 
C 95.570746 124.074748 94.081513 141.260552 96.220499 158.183531 
L 215.543358 143.117444 
L 215.54338 22.909094 
z
" style="fill:#ffffff;"/>
   </g>
   <g id="patch_4">
    <path clip-path="url(#pd3432193eb)" d="M 215.543358 251.304959 
C 244.250031 251.304959 271.784817 239.90564 292.083501 219.61757 
C 312.382184 199.329499 323.787466 171.809109 323.787466 143.117444 
C 323.787466 114.42578 312.382184 86.905389 292.083501 66.617319 
C 271.784817 46.329248 244.250031 34.929929 215.543358 34.929929 
C 186.836684 34.929929 159.301898 46.329248 139.003214 66.617319 
C 118.704531 86.905389 107.299249 114.42578 107.299249 143.117444 
C 107.299249 171.809109 118.704531 199.329499 139.003214 219.61757 
C 159.301898 239.90564 186.836684 251.304959 215.543358 251.304959 
z
" style="fill:#ffffff;stroke:#ffffff;stroke-linejoin:miter;"/>
   </g>
   <g id="matplotlib.axis_1">
    <g id="text_1">
     <!-- 73 -->
     <g transform="translate(146.421875 178.184375)scale(1 -1)">
      <defs>
       <path d="M 6.6875 72.90625 
L 61.625 72.90625 
L 61.625 62.3125 
L 33.203125 0 
L 14.890625 0 
L 41.796875 59.078125 
L 6.6875 59.078125 
z
" id="DejaVuSans-Bold-55"/>
       <path d="M 46.578125 39.3125 
Q 53.953125 37.40625 57.78125 32.6875 
Q 61.625 27.984375 61.625 20.703125 
Q 61.625 9.859375 53.3125 4.21875 
Q 45.015625 -1.421875 29.109375 -1.421875 
Q 23.484375 -1.421875 17.84375 -0.515625 
Q 12.203125 0.390625 6.6875 2.203125 
L 6.6875 16.703125 
Q 11.96875 14.0625 17.15625 12.71875 
Q 22.359375 11.375 27.390625 11.375 
Q 34.859375 11.375 38.84375 13.953125 
Q 42.828125 16.546875 42.828125 21.390625 
Q 42.828125 26.375 38.75 28.9375 
Q 34.671875 31.5 26.703125 31.5 
L 19.1875 31.5 
L 19.1875 43.609375 
L 27.09375 43.609375 
Q 34.1875 43.609375 37.640625 45.828125 
Q 41.109375 48.046875 41.109375 52.59375 
Q 41.109375 56.78125 37.734375 59.078125 
Q 34.375 61.375 28.21875 61.375 
Q 23.6875 61.375 19.046875 60.34375 
Q 14.40625 59.328125 9.8125 57.328125 
L 9.8125 71.09375 
Q 15.375 72.65625 20.84375 73.4375 
Q 26.3125 74.21875 31.59375 74.21875 
Q 45.796875 74.21875 52.84375 69.546875 
Q 59.90625 64.890625 59.90625 55.515625 
Q 59.90625 49.125 56.53125 45.046875 
Q 53.171875 40.96875 46.578125 39.3125 
z
" id="DejaVuSans-Bold-51"/>
      </defs>
      <use xlink:href="#DejaVuSans-Bold-55"/>
      <use x="69.580078" xlink:href="#DejaVuSans-Bold-51"/>
     </g>
    </g>
   </g>
   <g id="matplotlib.axis_2"/>
  </g>
 </g>
 <defs>
  <clipPath id="pd3432193eb">
   <rect height="266.4" width="410.4" x="10.8" y="10.8"/>
  </clipPath>
 </defs>
</svg>
