<?xml version="1.0" encoding="utf-8" standalone="no"?>
<!DOCTYPE svg PUBLIC "-//W3C//DTD SVG 1.1//EN"
  "http://www.w3.org/Graphics/SVG/1.1/DTD/svg11.dtd">
<!-- Created with matplotlib (https://matplotlib.org/) -->
<svg height="288pt" version="1.1" viewBox="0 0 432 288" width="432pt" xmlns="http://www.w3.org/2000/svg" xmlns:xlink="http://www.w3.org/1999/xlink">
 <metadata>
  <rdf:RDF xmlns:cc="http://creativecommons.org/ns#" xmlns:dc="http://purl.org/dc/elements/1.1/" xmlns:rdf="http://www.w3.org/1999/02/22-rdf-syntax-ns#">
   <cc:Work>
    <dc:type rdf:resource="http://purl.org/dc/dcmitype/StillImage"/>
    <dc:date>2021-01-16T13:34:18.795657</dc:date>
    <dc:format>image/svg+xml</dc:format>
    <dc:creator>
     <cc:Agent>
      <dc:title>Matplotlib v3.3.2, https://matplotlib.org/</dc:title>
     </cc:Agent>
    </dc:creator>
   </cc:Work>
  </rdf:RDF>
 </metadata>
 <defs>
  <style type="text/css">*{stroke-linecap:butt;stroke-linejoin:round;}</style>
 </defs>
 <g id="figure_1">
  <g id="patch_1">
   <path d="M 0 288 
L 432 288 
L 432 0 
L 0 0 
z
" style="fill:none;"/>
  </g>
  <g id="axes_1">
   <g id="patch_2">
    <path d="M 94.845748 142.838728 
C 94.845748 166.555731 101.884756 189.748098 115.068109 209.468065 
C 128.251462 229.188032 146.995913 244.563162 168.919028 253.639266 
C 190.842143 262.71537 214.974017 265.090909 238.247472 260.463951 
C 261.520927 255.836994 282.906316 244.412241 299.685542 227.641788 
C 316.464768 210.871335 327.895496 189.497127 332.524874 166.23584 
C 337.154252 142.974553 334.77747 118.855296 325.696618 96.943643 
C 316.615767 75.03199 301.232594 56.29734 281.502312 43.120879 
C 261.772029 29.944419 238.56753 22.909091 214.838121 22.909091 
L 214.838121 142.838728 
L 94.845748 142.838728 
z
" style="fill:#ffa500;"/>
   </g>
   <g id="patch_3">
    <path d="M 214.838121 22.909091 
C 183.02637 22.909091 152.485005 35.553124 129.9907 58.035668 
C 107.496395 80.518212 94.845748 111.04361 94.845748 142.838728 
L 214.838121 142.838728 
L 214.838121 22.909091 
z
" style="fill:#ffffff;"/>
   </g>
   <g id="patch_4">
    <path clip-path="url(#p46c6e8226d)" d="M 214.838121 250.775402 
C 243.478235 250.775402 270.94918 239.402513 291.2008 219.161482 
C 311.452419 198.920451 322.831257 171.463869 322.831257 142.838728 
C 322.831257 114.213588 311.452419 86.757005 291.2008 66.515974 
C 270.94918 46.274944 243.478235 34.902055 214.838121 34.902055 
C 186.198007 34.902055 158.727061 46.274944 138.475442 66.515974 
C 118.223823 86.757005 106.844985 114.213588 106.844985 142.838728 
C 106.844985 171.463869 118.223823 198.920451 138.475442 219.161482 
C 158.727061 239.402513 186.198007 250.775402 214.838121 250.775402 
z
" style="fill:#ffffff;stroke:#ffffff;stroke-linejoin:miter;"/>
   </g>
   <g id="matplotlib.axis_1">
    <g id="text_1">
     <!-- 75 -->
     <g transform="translate(146.421875 178.184375)scale(1 -1)">
      <defs>
       <path d="M 6.6875 72.90625 
L 61.625 72.90625 
L 61.625 62.3125 
L 33.203125 0 
L 14.890625 0 
L 41.796875 59.078125 
L 6.6875 59.078125 
z
" id="DejaVuSans-Bold-55"/>
       <path d="M 10.59375 72.90625 
L 57.328125 72.90625 
L 57.328125 59.078125 
L 25.59375 59.078125 
L 25.59375 47.796875 
Q 27.734375 48.390625 29.90625 48.703125 
Q 32.078125 49.03125 34.421875 49.03125 
Q 47.75 49.03125 55.171875 42.359375 
Q 62.59375 35.6875 62.59375 23.78125 
Q 62.59375 11.96875 54.515625 5.265625 
Q 46.4375 -1.421875 32.078125 -1.421875 
Q 25.875 -1.421875 19.796875 -0.21875 
Q 13.71875 0.984375 7.71875 3.421875 
L 7.71875 18.21875 
Q 13.671875 14.796875 19.015625 13.078125 
Q 24.359375 11.375 29.109375 11.375 
Q 35.9375 11.375 39.859375 14.71875 
Q 43.796875 18.0625 43.796875 23.78125 
Q 43.796875 29.546875 39.859375 32.859375 
Q 35.9375 36.1875 29.109375 36.1875 
Q 25.046875 36.1875 20.453125 35.125 
Q 15.875 34.078125 10.59375 31.890625 
z
" id="DejaVuSans-Bold-53"/>
      </defs>
      <use xlink:href="#DejaVuSans-Bold-55"/>
      <use x="69.580078" xlink:href="#DejaVuSans-Bold-53"/>
     </g>
    </g>
   </g>
   <g id="matplotlib.axis_2"/>
  </g>
 </g>
 <defs>
  <clipPath id="p46c6e8226d">
   <rect height="266.4" width="410.4" x="10.8" y="10.8"/>
  </clipPath>
 </defs>
</svg>
