<?xml version="1.0" encoding="utf-8" standalone="no"?>
<!DOCTYPE svg PUBLIC "-//W3C//DTD SVG 1.1//EN"
  "http://www.w3.org/Graphics/SVG/1.1/DTD/svg11.dtd">
<!-- Created with matplotlib (https://matplotlib.org/) -->
<svg height="288pt" version="1.1" viewBox="0 0 432 288" width="432pt" xmlns="http://www.w3.org/2000/svg" xmlns:xlink="http://www.w3.org/1999/xlink">
 <metadata>
  <rdf:RDF xmlns:cc="http://creativecommons.org/ns#" xmlns:dc="http://purl.org/dc/elements/1.1/" xmlns:rdf="http://www.w3.org/1999/02/22-rdf-syntax-ns#">
   <cc:Work>
    <dc:type rdf:resource="http://purl.org/dc/dcmitype/StillImage"/>
    <dc:date>2021-01-16T13:34:18.899088</dc:date>
    <dc:format>image/svg+xml</dc:format>
    <dc:creator>
     <cc:Agent>
      <dc:title>Matplotlib v3.3.2, https://matplotlib.org/</dc:title>
     </cc:Agent>
    </dc:creator>
   </cc:Work>
  </rdf:RDF>
 </metadata>
 <defs>
  <style type="text/css">*{stroke-linecap:butt;stroke-linejoin:round;}</style>
 </defs>
 <g id="figure_1">
  <g id="patch_1">
   <path d="M 0 288 
L 432 288 
L 432 0 
L 0 0 
z
" style="fill:none;"/>
  </g>
  <g id="axes_1">
   <g id="patch_2">
    <path d="M 95.302859 136.166337 
C 94.54619 148.186968 95.591804 160.253402 98.404984 171.965012 
C 101.218164 183.676623 105.767429 194.902344 111.901734 205.269463 
C 118.036039 215.636582 125.686736 225.02908 134.599807 233.13511 
C 143.512879 241.241141 153.588579 247.969988 164.492377 253.098242 
C 175.396176 258.226497 187.006047 261.696769 198.936523 263.393839 
C 210.867 265.090909 222.984567 264.995785 234.886902 263.111626 
C 246.789236 261.227466 258.343137 257.575357 269.164997 252.276554 
C 279.986856 246.977752 289.955565 240.091554 298.740146 231.846596 
C 307.524727 223.601638 315.026871 214.090189 320.997494 203.628045 
C 326.968116 193.165901 331.3404 181.870145 333.969179 170.115815 
C 336.597957 158.361485 337.45381 146.280125 336.508323 134.272856 
C 335.562836 122.265587 332.826589 110.466783 328.390431 99.268185 
C 323.954273 88.069587 317.867849 77.596519 310.333238 68.196705 
C 302.798627 58.79689 293.90015 50.575524 283.933251 43.805568 
C 273.966353 37.035612 263.042573 31.79283 251.524599 28.251291 
C 240.006626 24.709753 228.023357 22.909091 215.972659 22.909091 
L 215.972659 143.754261 
L 95.302859 136.166337 
z
" style="fill:#ffa500;"/>
   </g>
   <g id="patch_3">
    <path d="M 215.972647 22.909091 
C 185.229964 22.909094 155.615617 34.628116 133.205167 55.66193 
C 110.794717 76.695743 97.233206 105.500359 95.302859 136.166337 
L 215.972659 143.754261 
L 215.972647 22.909091 
z
" style="fill:#ffffff;"/>
   </g>
   <g id="patch_4">
    <path clip-path="url(#pc5ddebfaa8)" d="M 215.972659 252.514914 
C 244.831409 252.514914 272.512065 241.055206 292.918284 220.659656 
C 313.324502 200.264107 324.790205 172.597923 324.790205 143.754261 
C 324.790205 114.910599 313.324502 87.244415 292.918284 66.848866 
C 272.512065 46.453316 244.831409 34.993608 215.972659 34.993608 
C 187.113908 34.993608 159.433252 46.453316 139.027034 66.848866 
C 118.620816 87.244415 107.155113 114.910599 107.155113 143.754261 
C 107.155113 172.597923 118.620816 200.264107 139.027034 220.659656 
C 159.433252 241.055206 187.113908 252.514914 215.972659 252.514914 
z
" style="fill:#ffffff;stroke:#ffffff;stroke-linejoin:miter;"/>
   </g>
   <g id="matplotlib.axis_1">
    <g id="text_1">
     <!-- 76 -->
     <g transform="translate(146.421875 178.184375)scale(1 -1)">
      <defs>
       <path d="M 6.6875 72.90625 
L 61.625 72.90625 
L 61.625 62.3125 
L 33.203125 0 
L 14.890625 0 
L 41.796875 59.078125 
L 6.6875 59.078125 
z
" id="DejaVuSans-Bold-55"/>
       <path d="M 36.1875 35.984375 
Q 31.25 35.984375 28.78125 32.78125 
Q 26.3125 29.59375 26.3125 23.1875 
Q 26.3125 16.796875 28.78125 13.59375 
Q 31.25 10.40625 36.1875 10.40625 
Q 41.15625 10.40625 43.625 13.59375 
Q 46.09375 16.796875 46.09375 23.1875 
Q 46.09375 29.59375 43.625 32.78125 
Q 41.15625 35.984375 36.1875 35.984375 
z
M 59.421875 71 
L 59.421875 57.515625 
Q 54.78125 59.71875 50.671875 60.765625 
Q 46.578125 61.8125 42.671875 61.8125 
Q 34.28125 61.8125 29.59375 57.140625 
Q 24.90625 52.484375 24.125 43.3125 
Q 27.34375 45.703125 31.09375 46.890625 
Q 34.859375 48.09375 39.3125 48.09375 
Q 50.484375 48.09375 57.34375 41.546875 
Q 64.203125 35.015625 64.203125 24.421875 
Q 64.203125 12.703125 56.53125 5.640625 
Q 48.875 -1.421875 35.984375 -1.421875 
Q 21.78125 -1.421875 13.984375 8.171875 
Q 6.203125 17.78125 6.203125 35.40625 
Q 6.203125 53.46875 15.3125 63.796875 
Q 24.421875 74.125 40.28125 74.125 
Q 45.3125 74.125 50.046875 73.34375 
Q 54.78125 72.5625 59.421875 71 
z
" id="DejaVuSans-Bold-54"/>
      </defs>
      <use xlink:href="#DejaVuSans-Bold-55"/>
      <use x="69.580078" xlink:href="#DejaVuSans-Bold-54"/>
     </g>
    </g>
   </g>
   <g id="matplotlib.axis_2"/>
  </g>
 </g>
 <defs>
  <clipPath id="pc5ddebfaa8">
   <rect height="266.4" width="410.4" x="10.8" y="10.8"/>
  </clipPath>
 </defs>
</svg>
