<?xml version="1.0" encoding="utf-8" standalone="no"?>
<!DOCTYPE svg PUBLIC "-//W3C//DTD SVG 1.1//EN"
  "http://www.w3.org/Graphics/SVG/1.1/DTD/svg11.dtd">
<!-- Created with matplotlib (https://matplotlib.org/) -->
<svg height="288pt" version="1.1" viewBox="0 0 432 288" width="432pt" xmlns="http://www.w3.org/2000/svg" xmlns:xlink="http://www.w3.org/1999/xlink">
 <metadata>
  <rdf:RDF xmlns:cc="http://creativecommons.org/ns#" xmlns:dc="http://purl.org/dc/elements/1.1/" xmlns:rdf="http://www.w3.org/1999/02/22-rdf-syntax-ns#">
   <cc:Work>
    <dc:type rdf:resource="http://purl.org/dc/dcmitype/StillImage"/>
    <dc:date>2021-01-16T13:34:19.012138</dc:date>
    <dc:format>image/svg+xml</dc:format>
    <dc:creator>
     <cc:Agent>
      <dc:title>Matplotlib v3.3.2, https://matplotlib.org/</dc:title>
     </cc:Agent>
    </dc:creator>
   </cc:Work>
  </rdf:RDF>
 </metadata>
 <defs>
  <style type="text/css">*{stroke-linecap:butt;stroke-linejoin:round;}</style>
 </defs>
 <g id="figure_1">
  <g id="patch_1">
   <path d="M 0 288 
L 432 288 
L 432 0 
L 0 0 
z
" style="fill:none;"/>
  </g>
  <g id="axes_1">
   <g id="patch_2">
    <path d="M 96.131003 128.562447 
C 94.601368 140.664433 94.914647 152.928481 97.060163 164.936686 
C 99.20568 176.944891 103.158784 188.559288 108.784771 199.38411 
C 114.410759 210.208931 121.644992 220.11981 130.240959 228.779024 
C 138.836926 237.438239 148.695867 244.746304 159.481832 250.454192 
C 170.267798 256.162079 181.856866 260.204211 193.854131 262.442848 
C 205.851397 264.681486 218.119022 265.090909 230.238978 263.657167 
C 242.358935 262.223424 254.191976 258.962989 265.334883 253.986962 
C 276.477789 249.010935 286.802539 242.376486 295.957309 234.30969 
C 305.112079 226.242893 312.991689 216.836428 319.327636 206.410828 
C 325.663584 195.985227 330.383074 184.660271 333.325287 172.821866 
C 336.267499 160.983461 337.398632 148.767618 336.680139 136.590603 
C 335.961647 124.413587 333.401785 112.4153 329.087782 101.004593 
C 324.773779 89.593885 318.7552 78.901856 311.23713 69.292843 
C 303.719061 59.68383 294.787879 51.268232 284.747919 44.332817 
C 274.707958 37.397401 263.674571 32.02185 252.023727 28.389339 
C 240.372882 24.756828 228.238439 22.909091 216.033886 22.909091 
L 216.033886 143.701769 
L 96.131003 128.562447 
z
" style="fill:#ffa500;"/>
   </g>
   <g id="patch_3">
    <path d="M 216.033874 22.909091 
C 186.612321 22.909094 158.179889 33.6472 136.110458 53.093853 
C 114.041027 72.540505 99.818498 99.388151 96.131003 128.562447 
L 216.033886 143.701769 
L 216.033874 22.909091 
z
" style="fill:#ffffff;"/>
   </g>
   <g id="patch_4">
    <path clip-path="url(#p2ad710a313)" d="M 216.033886 252.41518 
C 244.880101 252.41518 272.548733 240.960449 292.946087 220.573759 
C 313.343442 200.187069 324.804164 172.532903 324.804164 143.701769 
C 324.804164 114.870636 313.343442 87.216469 292.946087 66.829779 
C 272.548733 46.443089 244.880101 34.988359 216.033886 34.988359 
C 187.18767 34.988359 159.519038 46.443089 139.121684 66.829779 
C 118.724329 87.216469 107.263607 114.870636 107.263607 143.701769 
C 107.263607 172.532903 118.724329 200.187069 139.121684 220.573759 
C 159.519038 240.960449 187.18767 252.41518 216.033886 252.41518 
z
" style="fill:#ffffff;stroke:#ffffff;stroke-linejoin:miter;"/>
   </g>
   <g id="matplotlib.axis_1">
    <g id="text_1">
     <!-- 77 -->
     <g transform="translate(146.421875 178.184375)scale(1 -1)">
      <defs>
       <path d="M 6.6875 72.90625 
L 61.625 72.90625 
L 61.625 62.3125 
L 33.203125 0 
L 14.890625 0 
L 41.796875 59.078125 
L 6.6875 59.078125 
z
" id="DejaVuSans-Bold-55"/>
      </defs>
      <use xlink:href="#DejaVuSans-Bold-55"/>
      <use x="69.580078" xlink:href="#DejaVuSans-Bold-55"/>
     </g>
    </g>
   </g>
   <g id="matplotlib.axis_2"/>
  </g>
 </g>
 <defs>
  <clipPath id="p2ad710a313">
   <rect height="266.4" width="410.4" x="10.8" y="10.8"/>
  </clipPath>
 </defs>
</svg>
