<?xml version="1.0" encoding="utf-8" standalone="no"?>
<!DOCTYPE svg PUBLIC "-//W3C//DTD SVG 1.1//EN"
  "http://www.w3.org/Graphics/SVG/1.1/DTD/svg11.dtd">
<!-- Created with matplotlib (https://matplotlib.org/) -->
<svg height="288pt" version="1.1" viewBox="0 0 432 288" width="432pt" xmlns="http://www.w3.org/2000/svg" xmlns:xlink="http://www.w3.org/1999/xlink">
 <metadata>
  <rdf:RDF xmlns:cc="http://creativecommons.org/ns#" xmlns:dc="http://purl.org/dc/elements/1.1/" xmlns:rdf="http://www.w3.org/1999/02/22-rdf-syntax-ns#">
   <cc:Work>
    <dc:type rdf:resource="http://purl.org/dc/dcmitype/StillImage"/>
    <dc:date>2021-01-16T13:34:19.127487</dc:date>
    <dc:format>image/svg+xml</dc:format>
    <dc:creator>
     <cc:Agent>
      <dc:title>Matplotlib v3.3.2, https://matplotlib.org/</dc:title>
     </cc:Agent>
    </dc:creator>
   </cc:Work>
  </rdf:RDF>
 </metadata>
 <defs>
  <style type="text/css">*{stroke-linecap:butt;stroke-linejoin:round;}</style>
 </defs>
 <g id="figure_1">
  <g id="patch_1">
   <path d="M 0 288 
L 432 288 
L 432 0 
L 0 0 
z
" style="fill:none;"/>
  </g>
  <g id="axes_1">
   <g id="patch_2">
    <path d="M 97.396795 121.067212 
C 95.080084 133.205498 94.640643 145.62754 96.093834 157.899051 
C 97.547025 170.170562 100.875713 182.146848 105.963526 193.409208 
C 111.051339 204.671568 117.838285 215.087207 126.087087 224.291985 
C 134.335889 233.496763 143.949284 241.382146 154.591181 247.672453 
C 165.233077 253.962761 176.777995 258.583824 188.822314 261.374086 
C 200.866633 264.164348 213.268338 265.090909 225.593855 264.121376 
C 237.919371 263.151842 250.023368 260.297646 261.482679 255.658573 
C 272.94199 251.019499 283.621498 244.650248 293.147838 236.773493 
C 302.674177 228.896739 310.935023 219.605356 317.641568 209.224181 
C 324.348113 198.843005 329.421281 187.494442 332.683709 175.575246 
C 335.946137 163.65605 337.359357 151.306762 336.873963 138.959124 
C 336.388568 126.611485 334.010282 114.411088 329.822251 102.784469 
C 325.634221 91.15785 319.685827 80.242099 312.185031 70.418841 
C 304.684235 60.595582 295.719479 51.980642 285.604179 44.875208 
C 275.488878 37.769773 264.342304 32.257624 252.55415 28.531469 
C 240.765996 24.805315 228.475257 22.909091 216.111627 22.909091 
L 216.111627 143.701415 
L 97.396795 121.067212 
z
" style="fill:#ffa500;"/>
   </g>
   <g id="patch_3">
    <path d="M 216.111605 22.909091 
C 187.994477 22.909096 160.740024 32.716178 139.075408 50.629344 
C 117.410792 68.542509 102.665415 93.462555 97.396795 121.067212 
L 216.111627 143.701415 
L 216.111605 22.909091 
z
" style="fill:#ffffff;"/>
   </g>
   <g id="patch_4">
    <path clip-path="url(#p657e8e457d)" d="M 216.111627 252.414507 
C 244.957758 252.414507 272.626309 240.95981 293.023603 220.573179 
C 313.420898 200.186549 324.881587 172.532464 324.881587 143.701415 
C 324.881587 114.870366 313.420898 87.216281 293.023603 66.829651 
C 272.626309 46.44302 244.957758 34.988323 216.111627 34.988323 
C 187.265497 34.988323 159.596945 46.44302 139.199651 66.829651 
C 118.802356 87.216281 107.341667 114.870366 107.341667 143.701415 
C 107.341667 172.532464 118.802356 200.186549 139.199651 220.573179 
C 159.596945 240.95981 187.265497 252.414507 216.111627 252.414507 
z
" style="fill:#ffffff;stroke:#ffffff;stroke-linejoin:miter;"/>
   </g>
   <g id="matplotlib.axis_1">
    <g id="text_1">
     <!-- 78 -->
     <g transform="translate(146.421875 178.184375)scale(1 -1)">
      <defs>
       <path d="M 6.6875 72.90625 
L 61.625 72.90625 
L 61.625 62.3125 
L 33.203125 0 
L 14.890625 0 
L 41.796875 59.078125 
L 6.6875 59.078125 
z
" id="DejaVuSans-Bold-55"/>
       <path d="M 34.8125 32.625 
Q 29.546875 32.625 26.703125 29.734375 
Q 23.875 26.859375 23.875 21.484375 
Q 23.875 16.109375 26.703125 13.25 
Q 29.546875 10.40625 34.8125 10.40625 
Q 40.046875 10.40625 42.828125 13.25 
Q 45.609375 16.109375 45.609375 21.484375 
Q 45.609375 26.90625 42.828125 29.765625 
Q 40.046875 32.625 34.8125 32.625 
z
M 21.09375 38.8125 
Q 14.453125 40.828125 11.078125 44.96875 
Q 7.71875 49.125 7.71875 55.328125 
Q 7.71875 64.546875 14.59375 69.375 
Q 21.484375 74.21875 34.8125 74.21875 
Q 48.046875 74.21875 54.921875 69.40625 
Q 61.8125 64.59375 61.8125 55.328125 
Q 61.8125 49.125 58.421875 44.96875 
Q 55.03125 40.828125 48.390625 38.8125 
Q 55.8125 36.765625 59.59375 32.15625 
Q 63.375 27.546875 63.375 20.515625 
Q 63.375 9.671875 56.171875 4.125 
Q 48.96875 -1.421875 34.8125 -1.421875 
Q 20.609375 -1.421875 13.359375 4.125 
Q 6.109375 9.671875 6.109375 20.515625 
Q 6.109375 27.546875 9.890625 32.15625 
Q 13.671875 36.765625 21.09375 38.8125 
z
M 25.484375 53.421875 
Q 25.484375 49.078125 27.90625 46.734375 
Q 30.328125 44.390625 34.8125 44.390625 
Q 39.203125 44.390625 41.59375 46.734375 
Q 44 49.078125 44 53.421875 
Q 44 57.765625 41.59375 60.078125 
Q 39.203125 62.40625 34.8125 62.40625 
Q 30.328125 62.40625 27.90625 60.0625 
Q 25.484375 57.71875 25.484375 53.421875 
z
" id="DejaVuSans-Bold-56"/>
      </defs>
      <use xlink:href="#DejaVuSans-Bold-55"/>
      <use x="69.580078" xlink:href="#DejaVuSans-Bold-56"/>
     </g>
    </g>
   </g>
   <g id="matplotlib.axis_2"/>
  </g>
 </g>
 <defs>
  <clipPath id="p657e8e457d">
   <rect height="266.4" width="410.4" x="10.8" y="10.8"/>
  </clipPath>
 </defs>
</svg>
