<?xml version="1.0" encoding="utf-8" standalone="no"?>
<!DOCTYPE svg PUBLIC "-//W3C//DTD SVG 1.1//EN"
  "http://www.w3.org/Graphics/SVG/1.1/DTD/svg11.dtd">
<!-- Created with matplotlib (https://matplotlib.org/) -->
<svg height="288pt" version="1.1" viewBox="0 0 432 288" width="432pt" xmlns="http://www.w3.org/2000/svg" xmlns:xlink="http://www.w3.org/1999/xlink">
 <metadata>
  <rdf:RDF xmlns:cc="http://creativecommons.org/ns#" xmlns:dc="http://purl.org/dc/elements/1.1/" xmlns:rdf="http://www.w3.org/1999/02/22-rdf-syntax-ns#">
   <cc:Work>
    <dc:type rdf:resource="http://purl.org/dc/dcmitype/StillImage"/>
    <dc:date>2021-01-16T13:34:19.235314</dc:date>
    <dc:format>image/svg+xml</dc:format>
    <dc:creator>
     <cc:Agent>
      <dc:title>Matplotlib v3.3.2, https://matplotlib.org/</dc:title>
     </cc:Agent>
    </dc:creator>
   </cc:Work>
  </rdf:RDF>
 </metadata>
 <defs>
  <style type="text/css">*{stroke-linecap:butt;stroke-linejoin:round;}</style>
 </defs>
 <g id="figure_1">
  <g id="patch_1">
   <path d="M 0 288 
L 432 288 
L 432 0 
L 0 0 
z
" style="fill:none;"/>
  </g>
  <g id="axes_1">
   <g id="patch_2">
    <path d="M 98.997815 113.736171 
C 95.880969 125.869134 94.669744 138.412899 95.407574 150.91768 
C 96.145404 163.422462 98.823362 175.736989 103.345424 187.419699 
C 107.867486 199.102409 114.17895 210.011975 122.053502 219.757211 
C 129.928055 229.502447 139.270438 237.965465 149.745661 244.842804 
C 160.220884 251.720144 171.702228 256.928609 183.778003 260.281441 
C 195.853778 263.634272 208.377904 265.090909 220.901302 264.599122 
C 233.424699 264.107334 245.795872 261.673072 257.571224 257.383619 
C 269.346577 253.094167 280.383663 247.001414 290.286724 239.32383 
C 300.189784 231.646246 308.839022 222.476707 315.924299 212.144006 
C 323.009576 201.811305 328.445183 190.440438 332.036213 178.439131 
C 335.627243 166.437824 337.330256 153.951258 337.084186 141.427165 
C 336.838116 128.903073 334.645941 116.492958 330.586265 104.641813 
C 326.526589 92.790668 320.648522 81.641856 313.162836 71.595142 
C 305.67715 61.548428 296.674398 52.725347 286.477395 45.44227 
C 276.280392 38.159194 265.01249 32.504225 253.077725 28.680135 
C 241.14296 24.856045 228.685706 22.909093 216.152647 22.909093 
L 216.152647 143.800709 
L 98.997815 113.736171 
z
" style="fill:#ffa500;"/>
   </g>
   <g id="patch_3">
    <path d="M 216.152658 22.909093 
C 189.314527 22.909091 163.22486 31.836907 142.018574 48.277585 
C 120.812288 64.718262 105.672191 87.754801 98.997815 113.736171 
L 216.152647 143.800709 
L 216.152658 22.909093 
z
" style="fill:#ffffff;"/>
   </g>
   <g id="patch_4">
    <path clip-path="url(#p296239cec4)" d="M 216.152647 252.603163 
C 245.022489 252.603163 272.713783 241.13905 293.127845 220.735662 
C 313.541906 200.332274 325.012015 172.655457 325.012015 143.800709 
C 325.012015 114.945961 313.541906 87.269144 293.127845 66.865756 
C 272.713783 46.462368 245.022489 34.998255 216.152647 34.998255 
C 187.282804 34.998255 159.59151 46.462368 139.177449 66.865756 
C 118.763387 87.269144 107.293278 114.945961 107.293278 143.800709 
C 107.293278 172.655457 118.763387 200.332274 139.177449 220.735662 
C 159.59151 241.13905 187.282804 252.603163 216.152647 252.603163 
z
" style="fill:#ffffff;stroke:#ffffff;stroke-linejoin:miter;"/>
   </g>
   <g id="matplotlib.axis_1">
    <g id="text_1">
     <!-- 79 -->
     <g transform="translate(146.421875 178.184375)scale(1 -1)">
      <defs>
       <path d="M 6.6875 72.90625 
L 61.625 72.90625 
L 61.625 62.3125 
L 33.203125 0 
L 14.890625 0 
L 41.796875 59.078125 
L 6.6875 59.078125 
z
" id="DejaVuSans-Bold-55"/>
       <path d="M 10.015625 1.609375 
L 10.015625 15.09375 
Q 14.5 12.984375 18.59375 11.9375 
Q 22.703125 10.890625 26.703125 10.890625 
Q 35.109375 10.890625 39.796875 15.546875 
Q 44.484375 20.21875 45.3125 29.390625 
Q 42 26.953125 38.234375 25.734375 
Q 34.46875 24.515625 30.078125 24.515625 
Q 18.890625 24.515625 12.03125 31.03125 
Q 5.171875 37.546875 5.171875 48.1875 
Q 5.171875 59.96875 12.8125 67.046875 
Q 20.453125 74.125 33.296875 74.125 
Q 47.5625 74.125 55.375 64.5 
Q 63.1875 54.890625 63.1875 37.3125 
Q 63.1875 19.234375 54.046875 8.90625 
Q 44.921875 -1.421875 29 -1.421875 
Q 23.875 -1.421875 19.1875 -0.65625 
Q 14.5 0.09375 10.015625 1.609375 
z
M 33.203125 36.71875 
Q 38.140625 36.71875 40.625 39.90625 
Q 43.109375 43.109375 43.109375 49.515625 
Q 43.109375 55.859375 40.625 59.078125 
Q 38.140625 62.3125 33.203125 62.3125 
Q 28.265625 62.3125 25.78125 59.078125 
Q 23.296875 55.859375 23.296875 49.515625 
Q 23.296875 43.109375 25.78125 39.90625 
Q 28.265625 36.71875 33.203125 36.71875 
z
" id="DejaVuSans-Bold-57"/>
      </defs>
      <use xlink:href="#DejaVuSans-Bold-55"/>
      <use x="69.580078" xlink:href="#DejaVuSans-Bold-57"/>
     </g>
    </g>
   </g>
   <g id="matplotlib.axis_2"/>
  </g>
 </g>
 <defs>
  <clipPath id="p296239cec4">
   <rect height="266.4" width="410.4" x="10.8" y="10.8"/>
  </clipPath>
 </defs>
</svg>
