<?xml version="1.0" encoding="utf-8" standalone="no"?>
<!DOCTYPE svg PUBLIC "-//W3C//DTD SVG 1.1//EN"
  "http://www.w3.org/Graphics/SVG/1.1/DTD/svg11.dtd">
<!-- Created with matplotlib (https://matplotlib.org/) -->
<svg height="288pt" version="1.1" viewBox="0 0 432 288" width="432pt" xmlns="http://www.w3.org/2000/svg" xmlns:xlink="http://www.w3.org/1999/xlink">
 <metadata>
  <rdf:RDF xmlns:cc="http://creativecommons.org/ns#" xmlns:dc="http://purl.org/dc/elements/1.1/" xmlns:rdf="http://www.w3.org/1999/02/22-rdf-syntax-ns#">
   <cc:Work>
    <dc:type rdf:resource="http://purl.org/dc/dcmitype/StillImage"/>
    <dc:date>2021-01-16T13:34:10.754600</dc:date>
    <dc:format>image/svg+xml</dc:format>
    <dc:creator>
     <cc:Agent>
      <dc:title>Matplotlib v3.3.2, https://matplotlib.org/</dc:title>
     </cc:Agent>
    </dc:creator>
   </cc:Work>
  </rdf:RDF>
 </metadata>
 <defs>
  <style type="text/css">*{stroke-linecap:butt;stroke-linejoin:round;}</style>
 </defs>
 <g id="figure_1">
  <g id="patch_1">
   <path d="M 0 288 
L 432 288 
L 432 0 
L 0 0 
z
" style="fill:none;"/>
  </g>
  <g id="axes_1">
   <g id="patch_2">
    <path d="M 274.487316 37.833412 
C 265.613294 32.957428 256.160572 29.216787 246.352101 26.699717 
C 236.543631 24.182647 226.457137 22.909092 216.33052 22.909092 
L 216.33052 143.564925 
L 274.487316 37.833412 
z
" style="fill:#008000;"/>
   </g>
   <g id="patch_3">
    <path d="M 216.330531 22.909092 
C 201.753206 22.909091 187.295691 25.54812 173.659418 30.698143 
C 160.023146 35.848166 147.432269 43.424526 136.497654 53.059643 
C 125.56304 62.69476 116.464433 74.230253 109.643267 87.106456 
C 102.8221 99.982659 98.390502 113.987914 96.563477 128.442732 
C 94.736453 142.897549 95.544036 157.564321 98.947044 171.731463 
C 102.350052 185.898606 108.292547 199.333238 116.486219 211.383558 
C 124.679891 223.433878 134.990051 233.901801 146.916486 242.279458 
C 158.84292 250.657115 172.189582 256.806794 186.308934 260.430133 
C 200.428286 264.053471 215.088234 265.090909 229.577527 263.492113 
C 244.066819 261.893317 258.14728 257.684568 271.135773 251.070062 
C 284.124266 244.455555 295.807284 235.544019 305.618007 224.767813 
C 315.42873 213.991607 323.205888 201.52787 328.572159 187.981302 
C 333.938431 174.434733 336.805605 160.028013 337.034576 145.460106 
C 337.263547 130.892199 334.850551 116.402574 329.912658 102.69422 
C 324.974765 88.985865 317.593144 76.28412 308.125929 65.20523 
C 298.658713 54.12634 287.261524 44.852421 274.487316 37.833412 
L 216.33052 143.564925 
L 216.330531 22.909092 
z
" style="fill:#ffffff;"/>
   </g>
   <g id="patch_4">
    <path clip-path="url(#pb5292868fc)" d="M 216.33052 252.155175 
C 245.144056 252.155175 272.781342 240.713422 293.155589 220.349827 
C 313.529835 199.986233 324.977574 172.363396 324.977574 143.564925 
C 324.977574 114.766455 313.529835 87.143617 293.155589 66.780023 
C 272.781342 46.416429 245.144056 34.974676 216.33052 34.974676 
C 187.516985 34.974676 159.879698 46.416429 139.505452 66.780023 
C 119.131205 87.143617 107.683466 114.766455 107.683466 143.564925 
C 107.683466 172.363396 119.131205 199.986233 139.505452 220.349827 
C 159.879698 240.713422 187.516985 252.155175 216.33052 252.155175 
z
" style="fill:#ffffff;stroke:#ffffff;stroke-linejoin:miter;"/>
   </g>
   <g id="matplotlib.axis_1">
    <g id="text_1">
     <!-- 8 -->
     <g transform="translate(181.210938 178.184375)scale(1 -1)">
      <defs>
       <path d="M 34.8125 32.625 
Q 29.546875 32.625 26.703125 29.734375 
Q 23.875 26.859375 23.875 21.484375 
Q 23.875 16.109375 26.703125 13.25 
Q 29.546875 10.40625 34.8125 10.40625 
Q 40.046875 10.40625 42.828125 13.25 
Q 45.609375 16.109375 45.609375 21.484375 
Q 45.609375 26.90625 42.828125 29.765625 
Q 40.046875 32.625 34.8125 32.625 
z
M 21.09375 38.8125 
Q 14.453125 40.828125 11.078125 44.96875 
Q 7.71875 49.125 7.71875 55.328125 
Q 7.71875 64.546875 14.59375 69.375 
Q 21.484375 74.21875 34.8125 74.21875 
Q 48.046875 74.21875 54.921875 69.40625 
Q 61.8125 64.59375 61.8125 55.328125 
Q 61.8125 49.125 58.421875 44.96875 
Q 55.03125 40.828125 48.390625 38.8125 
Q 55.8125 36.765625 59.59375 32.15625 
Q 63.375 27.546875 63.375 20.515625 
Q 63.375 9.671875 56.171875 4.125 
Q 48.96875 -1.421875 34.8125 -1.421875 
Q 20.609375 -1.421875 13.359375 4.125 
Q 6.109375 9.671875 6.109375 20.515625 
Q 6.109375 27.546875 9.890625 32.15625 
Q 13.671875 36.765625 21.09375 38.8125 
z
M 25.484375 53.421875 
Q 25.484375 49.078125 27.90625 46.734375 
Q 30.328125 44.390625 34.8125 44.390625 
Q 39.203125 44.390625 41.59375 46.734375 
Q 44 49.078125 44 53.421875 
Q 44 57.765625 41.59375 60.078125 
Q 39.203125 62.40625 34.8125 62.40625 
Q 30.328125 62.40625 27.90625 60.0625 
Q 25.484375 57.71875 25.484375 53.421875 
z
" id="DejaVuSans-Bold-56"/>
      </defs>
      <use xlink:href="#DejaVuSans-Bold-56"/>
     </g>
    </g>
   </g>
   <g id="matplotlib.axis_2"/>
  </g>
 </g>
 <defs>
  <clipPath id="pb5292868fc">
   <rect height="266.4" width="410.4" x="10.8" y="10.8"/>
  </clipPath>
 </defs>
</svg>
