<?xml version="1.0" encoding="utf-8" standalone="no"?>
<!DOCTYPE svg PUBLIC "-//W3C//DTD SVG 1.1//EN"
  "http://www.w3.org/Graphics/SVG/1.1/DTD/svg11.dtd">
<!-- Created with matplotlib (https://matplotlib.org/) -->
<svg height="288pt" version="1.1" viewBox="0 0 432 288" width="432pt" xmlns="http://www.w3.org/2000/svg" xmlns:xlink="http://www.w3.org/1999/xlink">
 <metadata>
  <rdf:RDF xmlns:cc="http://creativecommons.org/ns#" xmlns:dc="http://purl.org/dc/elements/1.1/" xmlns:rdf="http://www.w3.org/1999/02/22-rdf-syntax-ns#">
   <cc:Work>
    <dc:type rdf:resource="http://purl.org/dc/dcmitype/StillImage"/>
    <dc:date>2021-01-16T13:34:19.464416</dc:date>
    <dc:format>image/svg+xml</dc:format>
    <dc:creator>
     <cc:Agent>
      <dc:title>Matplotlib v3.3.2, https://matplotlib.org/</dc:title>
     </cc:Agent>
    </dc:creator>
   </cc:Work>
  </rdf:RDF>
 </metadata>
 <defs>
  <style type="text/css">*{stroke-linecap:butt;stroke-linejoin:round;}</style>
 </defs>
 <g id="figure_1">
  <g id="patch_1">
   <path d="M 0 288 
L 432 288 
L 432 0 
L 0 0 
z
" style="fill:none;"/>
  </g>
  <g id="axes_1">
   <g id="patch_2">
    <path d="M 103.703715 99.29359 
C 98.972945 111.235902 96.176599 123.85584 95.42005 136.677846 
C 94.663501 149.499852 95.956373 162.360818 99.249948 174.776103 
C 102.543523 187.191388 107.795903 199.003058 114.809162 209.766014 
C 121.822421 220.528969 130.507345 230.106296 140.536657 238.137089 
C 150.565969 246.167883 161.812089 252.549985 173.851227 257.042898 
C 185.890365 261.535811 198.569374 264.082381 211.410468 264.586645 
C 224.251562 265.090909 237.091391 263.546453 249.446111 260.011477 
C 261.800831 256.4765 273.513279 250.995971 284.142093 243.776414 
C 294.770906 236.556856 304.180878 227.690108 312.017412 217.510298 
C 319.853945 207.330487 326.017351 195.96711 330.275375 183.848373 
C 334.533399 171.729636 336.831874 159.009701 337.084187 146.167894 
C 337.336499 133.326087 335.53944 120.525768 331.760727 108.249292 
C 327.982015 95.972817 322.269717 84.376352 314.839093 73.89689 
C 307.408468 63.417427 298.354039 54.188275 288.017007 46.557216 
C 277.679975 38.926157 266.191834 32.990265 253.985494 28.973224 
C 241.779154 24.956182 229.009891 22.909091 216.158889 22.909091 
L 216.158889 143.794467 
L 103.703715 99.29359 
z
" style="fill:#ffa500;"/>
   </g>
   <g id="patch_3">
    <path d="M 216.158889 22.909091 
C 191.91687 22.909091 168.225788 30.193609 148.175686 43.81252 
C 128.125583 57.431432 112.627797 76.765716 103.703715 99.29359 
L 216.158889 143.794467 
L 216.158889 22.909091 
z
" style="fill:#ffffff;"/>
   </g>
   <g id="patch_4">
    <path clip-path="url(#p13e0535550)" d="M 216.158889 252.591305 
C 245.027241 252.591305 272.717107 241.127784 293.130114 220.725449 
C 313.543122 200.323114 325.01264 172.647726 325.01264 143.794467 
C 325.01264 114.941208 313.543122 87.26582 293.130114 66.863485 
C 272.717107 46.46115 245.027241 34.997629 216.158889 34.997629 
C 187.290537 34.997629 159.600671 46.46115 139.187664 66.863485 
C 118.774656 87.26582 107.305139 114.941208 107.305139 143.794467 
C 107.305139 172.647726 118.774656 200.323114 139.187664 220.725449 
C 159.600671 241.127784 187.290537 252.591305 216.158889 252.591305 
z
" style="fill:#ffffff;stroke:#ffffff;stroke-linejoin:miter;"/>
   </g>
   <g id="matplotlib.axis_1">
    <g id="text_1">
     <!-- 81 -->
     <g transform="translate(146.421875 178.184375)scale(1 -1)">
      <defs>
       <path d="M 34.8125 32.625 
Q 29.546875 32.625 26.703125 29.734375 
Q 23.875 26.859375 23.875 21.484375 
Q 23.875 16.109375 26.703125 13.25 
Q 29.546875 10.40625 34.8125 10.40625 
Q 40.046875 10.40625 42.828125 13.25 
Q 45.609375 16.109375 45.609375 21.484375 
Q 45.609375 26.90625 42.828125 29.765625 
Q 40.046875 32.625 34.8125 32.625 
z
M 21.09375 38.8125 
Q 14.453125 40.828125 11.078125 44.96875 
Q 7.71875 49.125 7.71875 55.328125 
Q 7.71875 64.546875 14.59375 69.375 
Q 21.484375 74.21875 34.8125 74.21875 
Q 48.046875 74.21875 54.921875 69.40625 
Q 61.8125 64.59375 61.8125 55.328125 
Q 61.8125 49.125 58.421875 44.96875 
Q 55.03125 40.828125 48.390625 38.8125 
Q 55.8125 36.765625 59.59375 32.15625 
Q 63.375 27.546875 63.375 20.515625 
Q 63.375 9.671875 56.171875 4.125 
Q 48.96875 -1.421875 34.8125 -1.421875 
Q 20.609375 -1.421875 13.359375 4.125 
Q 6.109375 9.671875 6.109375 20.515625 
Q 6.109375 27.546875 9.890625 32.15625 
Q 13.671875 36.765625 21.09375 38.8125 
z
M 25.484375 53.421875 
Q 25.484375 49.078125 27.90625 46.734375 
Q 30.328125 44.390625 34.8125 44.390625 
Q 39.203125 44.390625 41.59375 46.734375 
Q 44 49.078125 44 53.421875 
Q 44 57.765625 41.59375 60.078125 
Q 39.203125 62.40625 34.8125 62.40625 
Q 30.328125 62.40625 27.90625 60.0625 
Q 25.484375 57.71875 25.484375 53.421875 
z
" id="DejaVuSans-Bold-56"/>
       <path d="M 11.71875 12.984375 
L 28.328125 12.984375 
L 28.328125 60.109375 
L 11.28125 56.59375 
L 11.28125 69.390625 
L 28.21875 72.90625 
L 46.09375 72.90625 
L 46.09375 12.984375 
L 62.703125 12.984375 
L 62.703125 0 
L 11.71875 0 
z
" id="DejaVuSans-Bold-49"/>
      </defs>
      <use xlink:href="#DejaVuSans-Bold-56"/>
      <use x="69.580078" xlink:href="#DejaVuSans-Bold-49"/>
     </g>
    </g>
   </g>
   <g id="matplotlib.axis_2"/>
  </g>
 </g>
 <defs>
  <clipPath id="p13e0535550">
   <rect height="266.4" width="410.4" x="10.8" y="10.8"/>
  </clipPath>
 </defs>
</svg>
