<?xml version="1.0" encoding="utf-8" standalone="no"?>
<!DOCTYPE svg PUBLIC "-//W3C//DTD SVG 1.1//EN"
  "http://www.w3.org/Graphics/SVG/1.1/DTD/svg11.dtd">
<!-- Created with matplotlib (https://matplotlib.org/) -->
<svg height="288pt" version="1.1" viewBox="0 0 432 288" width="432pt" xmlns="http://www.w3.org/2000/svg" xmlns:xlink="http://www.w3.org/1999/xlink">
 <metadata>
  <rdf:RDF xmlns:cc="http://creativecommons.org/ns#" xmlns:dc="http://purl.org/dc/elements/1.1/" xmlns:rdf="http://www.w3.org/1999/02/22-rdf-syntax-ns#">
   <cc:Work>
    <dc:type rdf:resource="http://purl.org/dc/dcmitype/StillImage"/>
    <dc:date>2021-01-16T13:34:19.833064</dc:date>
    <dc:format>image/svg+xml</dc:format>
    <dc:creator>
     <cc:Agent>
      <dc:title>Matplotlib v3.3.2, https://matplotlib.org/</dc:title>
     </cc:Agent>
    </dc:creator>
   </cc:Work>
  </rdf:RDF>
 </metadata>
 <defs>
  <style type="text/css">*{stroke-linecap:butt;stroke-linejoin:round;}</style>
 </defs>
 <g id="figure_1">
  <g id="patch_1">
   <path d="M 0 288 
L 432 288 
L 432 0 
L 0 0 
z
" style="fill:none;"/>
  </g>
  <g id="axes_1">
   <g id="patch_2">
    <path d="M 113.979822 78.978106 
C 106.843194 90.217758 101.614363 102.559609 98.505127 115.503748 
C 95.39589 128.447888 94.448802 141.817156 95.702225 155.070027 
C 96.955647 168.322897 100.392425 181.277984 105.87335 193.410537 
C 111.354276 205.543091 118.804334 216.687059 127.921759 226.391051 
C 137.039184 236.095044 147.699188 244.226247 159.469986 250.455303 
C 171.240785 256.68436 183.961275 260.926016 197.11621 263.008463 
C 210.271146 265.090909 223.68048 264.985644 236.801066 262.696931 
C 249.921651 260.408219 262.573911 255.967383 274.245363 249.554301 
C 285.916815 243.14122 296.447717 234.843665 305.411511 224.997733 
C 314.375306 215.1518 321.649309 203.892247 326.938887 191.675143 
C 332.228464 179.45804 335.461219 166.450596 336.506208 153.179683 
C 337.551198 139.90877 336.394119 126.55602 333.081839 113.66229 
C 329.76956 100.76856 324.347413 88.51032 317.035026 77.384095 
C 309.722638 66.25787 300.620091 56.415939 290.096085 48.256951 
C 279.572079 40.097964 267.770651 33.733588 255.169823 29.421616 
C 242.568994 25.109644 229.341226 22.909091 216.022313 22.909091 
L 216.022313 143.702359 
L 113.979822 78.978106 
z
" style="fill:#ffa500;"/>
   </g>
   <g id="patch_3">
    <path d="M 216.02229 22.909091 
C 195.666615 22.909095 175.637065 28.049124 157.799253 37.850421 
C 139.961441 47.651719 124.886935 61.800225 113.979822 78.978106 
L 216.022313 143.702359 
L 216.02229 22.909091 
z
" style="fill:#ffffff;"/>
   </g>
   <g id="patch_4">
    <path clip-path="url(#p050f16a623)" d="M 216.022313 252.4163 
C 244.868669 252.4163 272.537436 240.961513 292.93489 220.574724 
C 313.332344 200.187934 324.793123 172.533633 324.793123 143.702359 
C 324.793123 114.871084 313.332344 87.216783 292.93489 66.829994 
C 272.537436 46.443204 244.868669 34.988418 216.022313 34.988418 
C 187.175957 34.988418 159.50719 46.443204 139.109736 66.829994 
C 118.712282 87.216783 107.251503 114.871084 107.251503 143.702359 
C 107.251503 172.533633 118.712282 200.187934 139.109736 220.574724 
C 159.50719 240.961513 187.175957 252.4163 216.022313 252.4163 
z
" style="fill:#ffffff;stroke:#ffffff;stroke-linejoin:miter;"/>
   </g>
   <g id="matplotlib.axis_1">
    <g id="text_1">
     <!-- 84 -->
     <g transform="translate(146.421875 178.184375)scale(1 -1)">
      <defs>
       <path d="M 34.8125 32.625 
Q 29.546875 32.625 26.703125 29.734375 
Q 23.875 26.859375 23.875 21.484375 
Q 23.875 16.109375 26.703125 13.25 
Q 29.546875 10.40625 34.8125 10.40625 
Q 40.046875 10.40625 42.828125 13.25 
Q 45.609375 16.109375 45.609375 21.484375 
Q 45.609375 26.90625 42.828125 29.765625 
Q 40.046875 32.625 34.8125 32.625 
z
M 21.09375 38.8125 
Q 14.453125 40.828125 11.078125 44.96875 
Q 7.71875 49.125 7.71875 55.328125 
Q 7.71875 64.546875 14.59375 69.375 
Q 21.484375 74.21875 34.8125 74.21875 
Q 48.046875 74.21875 54.921875 69.40625 
Q 61.8125 64.59375 61.8125 55.328125 
Q 61.8125 49.125 58.421875 44.96875 
Q 55.03125 40.828125 48.390625 38.8125 
Q 55.8125 36.765625 59.59375 32.15625 
Q 63.375 27.546875 63.375 20.515625 
Q 63.375 9.671875 56.171875 4.125 
Q 48.96875 -1.421875 34.8125 -1.421875 
Q 20.609375 -1.421875 13.359375 4.125 
Q 6.109375 9.671875 6.109375 20.515625 
Q 6.109375 27.546875 9.890625 32.15625 
Q 13.671875 36.765625 21.09375 38.8125 
z
M 25.484375 53.421875 
Q 25.484375 49.078125 27.90625 46.734375 
Q 30.328125 44.390625 34.8125 44.390625 
Q 39.203125 44.390625 41.59375 46.734375 
Q 44 49.078125 44 53.421875 
Q 44 57.765625 41.59375 60.078125 
Q 39.203125 62.40625 34.8125 62.40625 
Q 30.328125 62.40625 27.90625 60.0625 
Q 25.484375 57.71875 25.484375 53.421875 
z
" id="DejaVuSans-Bold-56"/>
       <path d="M 36.8125 57.421875 
L 16.21875 26.90625 
L 36.8125 26.90625 
z
M 33.6875 72.90625 
L 54.59375 72.90625 
L 54.59375 26.90625 
L 64.984375 26.90625 
L 64.984375 13.28125 
L 54.59375 13.28125 
L 54.59375 0 
L 36.8125 0 
L 36.8125 13.28125 
L 4.5 13.28125 
L 4.5 29.390625 
z
" id="DejaVuSans-Bold-52"/>
      </defs>
      <use xlink:href="#DejaVuSans-Bold-56"/>
      <use x="69.580078" xlink:href="#DejaVuSans-Bold-52"/>
     </g>
    </g>
   </g>
   <g id="matplotlib.axis_2"/>
  </g>
 </g>
 <defs>
  <clipPath id="p050f16a623">
   <rect height="266.4" width="410.4" x="10.8" y="10.8"/>
  </clipPath>
 </defs>
</svg>
