<?xml version="1.0" encoding="utf-8" standalone="no"?>
<!DOCTYPE svg PUBLIC "-//W3C//DTD SVG 1.1//EN"
  "http://www.w3.org/Graphics/SVG/1.1/DTD/svg11.dtd">
<!-- Created with matplotlib (https://matplotlib.org/) -->
<svg height="288pt" version="1.1" viewBox="0 0 432 288" width="432pt" xmlns="http://www.w3.org/2000/svg" xmlns:xlink="http://www.w3.org/1999/xlink">
 <metadata>
  <rdf:RDF xmlns:cc="http://creativecommons.org/ns#" xmlns:dc="http://purl.org/dc/elements/1.1/" xmlns:rdf="http://www.w3.org/1999/02/22-rdf-syntax-ns#">
   <cc:Work>
    <dc:type rdf:resource="http://purl.org/dc/dcmitype/StillImage"/>
    <dc:date>2021-01-16T13:34:19.950769</dc:date>
    <dc:format>image/svg+xml</dc:format>
    <dc:creator>
     <cc:Agent>
      <dc:title>Matplotlib v3.3.2, https://matplotlib.org/</dc:title>
     </cc:Agent>
    </dc:creator>
   </cc:Work>
  </rdf:RDF>
 </metadata>
 <defs>
  <style type="text/css">*{stroke-linecap:butt;stroke-linejoin:round;}</style>
 </defs>
 <g id="figure_1">
  <g id="patch_1">
   <path d="M 0 288 
L 432 288 
L 432 0 
L 0 0 
z
" style="fill:none;"/>
  </g>
  <g id="axes_1">
   <g id="patch_2">
    <path d="M 118.118476 72.678979 
C 110.199827 83.572363 104.15991 95.713372 100.24919 108.59854 
C 96.338471 121.483707 94.611763 134.93243 95.14067 148.387015 
C 95.669577 161.841599 98.446685 175.113459 103.356833 187.652237 
C 108.266981 200.191014 115.241347 211.820959 123.990716 222.0598 
C 132.740084 232.298641 143.141821 241.002866 154.764586 247.811526 
C 166.38735 254.620186 179.068233 259.437849 192.281381 262.064734 
C 205.494528 264.69162 219.05474 265.090909 232.399699 263.246044 
C 245.744658 261.401178 258.687316 257.338017 270.690964 251.225052 
C 282.694612 245.112086 293.591003 237.034999 302.928282 227.328731 
C 312.265562 217.622463 319.912856 206.423062 325.553044 194.194946 
C 331.193232 181.96683 334.74726 168.881393 336.067749 155.481266 
C 337.388237 142.081138 336.456678 128.554141 333.3117 115.461213 
C 330.166723 102.368286 324.852408 89.892945 317.589133 78.552519 
C 310.325857 67.212093 301.215424 57.165534 290.635628 48.829456 
C 280.055831 40.493377 268.154962 33.98462 255.426526 29.573091 
C 242.698091 25.161562 229.320497 22.909094 215.848488 22.909094 
L 215.848488 143.646887 
L 118.118476 72.678979 
z
" style="fill:#ff0000;"/>
   </g>
   <g id="patch_3">
    <path d="M 215.848511 22.909094 
C 196.785792 22.909091 177.99103 27.418951 161.006022 36.068717 
C 144.021014 44.718482 129.323264 57.26498 118.118476 72.678979 
L 215.848488 143.646887 
L 215.848511 22.909094 
z
" style="fill:#ffffff;"/>
   </g>
   <g id="patch_4">
    <path clip-path="url(#pbcc39aa33e)" d="M 215.848488 252.3109 
C 244.681596 252.3109 272.337656 240.861374 292.725742 220.483948 
C 313.113829 200.106521 324.569344 172.46492 324.569344 143.646887 
C 324.569344 114.828854 313.113829 87.187253 292.725742 66.809826 
C 272.337656 46.4324 244.681596 34.982874 215.848488 34.982874 
C 187.01538 34.982874 159.35932 46.4324 138.971234 66.809826 
C 118.583147 87.187253 107.127632 114.828854 107.127632 143.646887 
C 107.127632 172.46492 118.583147 200.106521 138.971234 220.483948 
C 159.35932 240.861374 187.01538 252.3109 215.848488 252.3109 
z
" style="fill:#ffffff;stroke:#ffffff;stroke-linejoin:miter;"/>
   </g>
   <g id="matplotlib.axis_1">
    <g id="text_1">
     <!-- 85 -->
     <g transform="translate(146.421875 178.184375)scale(1 -1)">
      <defs>
       <path d="M 34.8125 32.625 
Q 29.546875 32.625 26.703125 29.734375 
Q 23.875 26.859375 23.875 21.484375 
Q 23.875 16.109375 26.703125 13.25 
Q 29.546875 10.40625 34.8125 10.40625 
Q 40.046875 10.40625 42.828125 13.25 
Q 45.609375 16.109375 45.609375 21.484375 
Q 45.609375 26.90625 42.828125 29.765625 
Q 40.046875 32.625 34.8125 32.625 
z
M 21.09375 38.8125 
Q 14.453125 40.828125 11.078125 44.96875 
Q 7.71875 49.125 7.71875 55.328125 
Q 7.71875 64.546875 14.59375 69.375 
Q 21.484375 74.21875 34.8125 74.21875 
Q 48.046875 74.21875 54.921875 69.40625 
Q 61.8125 64.59375 61.8125 55.328125 
Q 61.8125 49.125 58.421875 44.96875 
Q 55.03125 40.828125 48.390625 38.8125 
Q 55.8125 36.765625 59.59375 32.15625 
Q 63.375 27.546875 63.375 20.515625 
Q 63.375 9.671875 56.171875 4.125 
Q 48.96875 -1.421875 34.8125 -1.421875 
Q 20.609375 -1.421875 13.359375 4.125 
Q 6.109375 9.671875 6.109375 20.515625 
Q 6.109375 27.546875 9.890625 32.15625 
Q 13.671875 36.765625 21.09375 38.8125 
z
M 25.484375 53.421875 
Q 25.484375 49.078125 27.90625 46.734375 
Q 30.328125 44.390625 34.8125 44.390625 
Q 39.203125 44.390625 41.59375 46.734375 
Q 44 49.078125 44 53.421875 
Q 44 57.765625 41.59375 60.078125 
Q 39.203125 62.40625 34.8125 62.40625 
Q 30.328125 62.40625 27.90625 60.0625 
Q 25.484375 57.71875 25.484375 53.421875 
z
" id="DejaVuSans-Bold-56"/>
       <path d="M 10.59375 72.90625 
L 57.328125 72.90625 
L 57.328125 59.078125 
L 25.59375 59.078125 
L 25.59375 47.796875 
Q 27.734375 48.390625 29.90625 48.703125 
Q 32.078125 49.03125 34.421875 49.03125 
Q 47.75 49.03125 55.171875 42.359375 
Q 62.59375 35.6875 62.59375 23.78125 
Q 62.59375 11.96875 54.515625 5.265625 
Q 46.4375 -1.421875 32.078125 -1.421875 
Q 25.875 -1.421875 19.796875 -0.21875 
Q 13.71875 0.984375 7.71875 3.421875 
L 7.71875 18.21875 
Q 13.671875 14.796875 19.015625 13.078125 
Q 24.359375 11.375 29.109375 11.375 
Q 35.9375 11.375 39.859375 14.71875 
Q 43.796875 18.0625 43.796875 23.78125 
Q 43.796875 29.546875 39.859375 32.859375 
Q 35.9375 36.1875 29.109375 36.1875 
Q 25.046875 36.1875 20.453125 35.125 
Q 15.875 34.078125 10.59375 31.890625 
z
" id="DejaVuSans-Bold-53"/>
      </defs>
      <use xlink:href="#DejaVuSans-Bold-56"/>
      <use x="69.580078" xlink:href="#DejaVuSans-Bold-53"/>
     </g>
    </g>
   </g>
   <g id="matplotlib.axis_2"/>
  </g>
 </g>
 <defs>
  <clipPath id="pbcc39aa33e">
   <rect height="266.4" width="410.4" x="10.8" y="10.8"/>
  </clipPath>
 </defs>
</svg>
