<?xml version="1.0" encoding="utf-8" standalone="no"?>
<!DOCTYPE svg PUBLIC "-//W3C//DTD SVG 1.1//EN"
  "http://www.w3.org/Graphics/SVG/1.1/DTD/svg11.dtd">
<!-- Created with matplotlib (https://matplotlib.org/) -->
<svg height="288pt" version="1.1" viewBox="0 0 432 288" width="432pt" xmlns="http://www.w3.org/2000/svg" xmlns:xlink="http://www.w3.org/1999/xlink">
 <metadata>
  <rdf:RDF xmlns:cc="http://creativecommons.org/ns#" xmlns:dc="http://purl.org/dc/elements/1.1/" xmlns:rdf="http://www.w3.org/1999/02/22-rdf-syntax-ns#">
   <cc:Work>
    <dc:type rdf:resource="http://purl.org/dc/dcmitype/StillImage"/>
    <dc:date>2021-01-16T13:34:20.168830</dc:date>
    <dc:format>image/svg+xml</dc:format>
    <dc:creator>
     <cc:Agent>
      <dc:title>Matplotlib v3.3.2, https://matplotlib.org/</dc:title>
     </cc:Agent>
    </dc:creator>
   </cc:Work>
  </rdf:RDF>
 </metadata>
 <defs>
  <style type="text/css">*{stroke-linecap:butt;stroke-linejoin:round;}</style>
 </defs>
 <g id="figure_1">
  <g id="patch_1">
   <path d="M 0 288 
L 432 288 
L 432 0 
L 0 0 
z
" style="fill:none;"/>
  </g>
  <g id="axes_1">
   <g id="patch_2">
    <path d="M 127.88067 61.004937 
C 118.438244 71.054842 110.786994 82.646999 105.259192 95.277998 
C 99.731389 107.908996 96.408227 121.393308 95.434021 135.145351 
C 94.459814 148.897394 95.848872 162.715175 99.540873 175.99863 
C 103.232873 189.282084 109.173587 201.836101 117.105026 213.115499 
C 125.036466 224.394896 134.842133 234.233999 146.096196 242.205525 
C 157.35026 250.177051 169.887418 256.163913 183.16322 259.906119 
C 196.439022 263.648325 210.25847 265.090909 224.021426 264.171224 
C 237.784383 263.251539 251.288695 259.983093 263.947911 254.507826 
C 276.607127 249.032558 288.235305 241.430891 298.32747 232.03294 
C 308.419635 222.63499 316.827549 211.578797 323.186083 199.344498 
C 329.544618 187.110198 333.760376 173.877493 335.650281 160.221038 
C 337.540186 146.564582 337.076478 132.684967 334.279294 119.18494 
C 331.482111 105.684913 326.392538 92.762767 319.231599 80.979671 
C 312.070661 69.196576 302.943539 58.725603 292.246597 50.021476 
C 281.549655 41.317349 269.440012 34.507916 256.443553 29.88889 
C 243.447094 25.269864 229.754714 22.909091 215.961031 22.909091 
L 215.961031 143.674663 
L 127.88067 61.004937 
z
" style="fill:#ff0000;"/>
   </g>
   <g id="patch_3">
    <path d="M 215.961031 22.909091 
C 199.454982 22.909091 183.122655 26.289585 167.974152 32.8415 
C 152.825649 39.393415 139.179838 48.978837 127.88067 61.004937 
L 215.961031 143.674663 
L 215.961031 22.909091 
z
" style="fill:#ffffff;"/>
   </g>
   <g id="patch_4">
    <path clip-path="url(#pbd10e4bd28)" d="M 215.961031 252.363677 
C 244.800773 252.363677 272.463196 240.911517 292.855973 220.529402 
C 313.248751 200.147287 324.706901 172.499326 324.706901 143.674663 
C 324.706901 114.849999 313.248751 87.202039 292.855973 66.819923 
C 272.463196 46.437808 244.800773 34.985648 215.961031 34.985648 
C 187.121289 34.985648 159.458866 46.437808 139.066089 66.819923 
C 118.673312 87.202039 107.215161 114.849999 107.215161 143.674663 
C 107.215161 172.499326 118.673312 200.147287 139.066089 220.529402 
C 159.458866 240.911517 187.121289 252.363677 215.961031 252.363677 
z
" style="fill:#ffffff;stroke:#ffffff;stroke-linejoin:miter;"/>
   </g>
   <g id="matplotlib.axis_1">
    <g id="text_1">
     <!-- 87 -->
     <g transform="translate(146.421875 178.184375)scale(1 -1)">
      <defs>
       <path d="M 34.8125 32.625 
Q 29.546875 32.625 26.703125 29.734375 
Q 23.875 26.859375 23.875 21.484375 
Q 23.875 16.109375 26.703125 13.25 
Q 29.546875 10.40625 34.8125 10.40625 
Q 40.046875 10.40625 42.828125 13.25 
Q 45.609375 16.109375 45.609375 21.484375 
Q 45.609375 26.90625 42.828125 29.765625 
Q 40.046875 32.625 34.8125 32.625 
z
M 21.09375 38.8125 
Q 14.453125 40.828125 11.078125 44.96875 
Q 7.71875 49.125 7.71875 55.328125 
Q 7.71875 64.546875 14.59375 69.375 
Q 21.484375 74.21875 34.8125 74.21875 
Q 48.046875 74.21875 54.921875 69.40625 
Q 61.8125 64.59375 61.8125 55.328125 
Q 61.8125 49.125 58.421875 44.96875 
Q 55.03125 40.828125 48.390625 38.8125 
Q 55.8125 36.765625 59.59375 32.15625 
Q 63.375 27.546875 63.375 20.515625 
Q 63.375 9.671875 56.171875 4.125 
Q 48.96875 -1.421875 34.8125 -1.421875 
Q 20.609375 -1.421875 13.359375 4.125 
Q 6.109375 9.671875 6.109375 20.515625 
Q 6.109375 27.546875 9.890625 32.15625 
Q 13.671875 36.765625 21.09375 38.8125 
z
M 25.484375 53.421875 
Q 25.484375 49.078125 27.90625 46.734375 
Q 30.328125 44.390625 34.8125 44.390625 
Q 39.203125 44.390625 41.59375 46.734375 
Q 44 49.078125 44 53.421875 
Q 44 57.765625 41.59375 60.078125 
Q 39.203125 62.40625 34.8125 62.40625 
Q 30.328125 62.40625 27.90625 60.0625 
Q 25.484375 57.71875 25.484375 53.421875 
z
" id="DejaVuSans-Bold-56"/>
       <path d="M 6.6875 72.90625 
L 61.625 72.90625 
L 61.625 62.3125 
L 33.203125 0 
L 14.890625 0 
L 41.796875 59.078125 
L 6.6875 59.078125 
z
" id="DejaVuSans-Bold-55"/>
      </defs>
      <use xlink:href="#DejaVuSans-Bold-56"/>
      <use x="69.580078" xlink:href="#DejaVuSans-Bold-55"/>
     </g>
    </g>
   </g>
   <g id="matplotlib.axis_2"/>
  </g>
 </g>
 <defs>
  <clipPath id="pbd10e4bd28">
   <rect height="266.4" width="410.4" x="10.8" y="10.8"/>
  </clipPath>
 </defs>
</svg>
