<?xml version="1.0" encoding="utf-8" standalone="no"?>
<!DOCTYPE svg PUBLIC "-//W3C//DTD SVG 1.1//EN"
  "http://www.w3.org/Graphics/SVG/1.1/DTD/svg11.dtd">
<!-- Created with matplotlib (https://matplotlib.org/) -->
<svg height="288pt" version="1.1" viewBox="0 0 432 288" width="432pt" xmlns="http://www.w3.org/2000/svg" xmlns:xlink="http://www.w3.org/1999/xlink">
 <metadata>
  <rdf:RDF xmlns:cc="http://creativecommons.org/ns#" xmlns:dc="http://purl.org/dc/elements/1.1/" xmlns:rdf="http://www.w3.org/1999/02/22-rdf-syntax-ns#">
   <cc:Work>
    <dc:type rdf:resource="http://purl.org/dc/dcmitype/StillImage"/>
    <dc:date>2021-01-16T13:34:20.280110</dc:date>
    <dc:format>image/svg+xml</dc:format>
    <dc:creator>
     <cc:Agent>
      <dc:title>Matplotlib v3.3.2, https://matplotlib.org/</dc:title>
     </cc:Agent>
    </dc:creator>
   </cc:Work>
  </rdf:RDF>
 </metadata>
 <defs>
  <style type="text/css">*{stroke-linecap:butt;stroke-linejoin:round;}</style>
 </defs>
 <g id="figure_1">
  <g id="patch_1">
   <path d="M 0 288 
L 432 288 
L 432 0 
L 0 0 
z
" style="fill:none;"/>
  </g>
  <g id="axes_1">
   <g id="patch_2">
    <path d="M 133.244448 55.677184 
C 123.061697 65.234425 114.611806 76.48274 108.270145 88.922444 
C 101.928484 101.362149 97.790368 114.806274 96.039625 128.657591 
C 94.288881 142.508908 94.951825 156.55923 97.999005 170.184401 
C 101.046185 183.809572 106.431802 196.804803 113.916611 208.592808 
C 121.401421 220.380814 130.872925 230.784418 141.910371 239.341462 
C 152.947818 247.898507 165.385312 254.480378 178.670345 258.79469 
C 191.955378 263.109002 205.888273 265.090909 219.85009 264.65237 
C 233.811908 264.213832 247.592799 261.361438 260.580577 256.221901 
C 273.568355 251.082365 285.567812 243.732933 296.045896 234.500088 
C 306.52398 225.267244 315.323204 214.289759 322.052681 202.055285 
C 328.782158 189.820811 333.340744 176.513234 335.525931 162.723715 
C 337.711119 148.934196 337.490065 134.869994 334.872589 121.155882 
C 332.255114 107.441771 327.280558 94.283874 320.169906 82.266704 
C 313.059254 70.249535 303.91938 59.553712 293.156304 50.654377 
C 282.393228 41.755041 270.16872 34.785951 257.02583 30.056693 
C 243.882939 25.327435 230.019205 22.909091 216.050495 22.909091 
L 216.050495 143.81056 
L 133.244448 55.677184 
z
" style="fill:#ff0000;"/>
   </g>
   <g id="patch_3">
    <path d="M 216.050489 22.909091 
C 200.80475 22.909092 185.695539 25.789821 171.52041 31.399219 
C 157.34528 37.008616 144.358113 45.246214 133.244448 55.677184 
L 216.050495 143.81056 
L 216.050489 22.909091 
z
" style="fill:#ffffff;"/>
   </g>
   <g id="patch_4">
    <path clip-path="url(#pb41763bf8b)" d="M 216.050495 252.621881 
C 244.92269 252.621881 272.616241 241.156834 293.031966 220.751783 
C 313.447691 200.346732 324.918736 172.667659 324.918736 143.81056 
C 324.918736 114.95346 313.447691 87.274387 293.031966 66.869336 
C 272.616241 46.464285 244.92269 34.999238 216.050495 34.999238 
C 187.1783 34.999238 159.484748 46.464285 139.069023 66.869336 
C 118.653298 87.274387 107.182253 114.95346 107.182253 143.81056 
C 107.182253 172.667659 118.653298 200.346732 139.069023 220.751783 
C 159.484748 241.156834 187.1783 252.621881 216.050495 252.621881 
z
" style="fill:#ffffff;stroke:#ffffff;stroke-linejoin:miter;"/>
   </g>
   <g id="matplotlib.axis_1">
    <g id="text_1">
     <!-- 88 -->
     <g transform="translate(146.421875 178.184375)scale(1 -1)">
      <defs>
       <path d="M 34.8125 32.625 
Q 29.546875 32.625 26.703125 29.734375 
Q 23.875 26.859375 23.875 21.484375 
Q 23.875 16.109375 26.703125 13.25 
Q 29.546875 10.40625 34.8125 10.40625 
Q 40.046875 10.40625 42.828125 13.25 
Q 45.609375 16.109375 45.609375 21.484375 
Q 45.609375 26.90625 42.828125 29.765625 
Q 40.046875 32.625 34.8125 32.625 
z
M 21.09375 38.8125 
Q 14.453125 40.828125 11.078125 44.96875 
Q 7.71875 49.125 7.71875 55.328125 
Q 7.71875 64.546875 14.59375 69.375 
Q 21.484375 74.21875 34.8125 74.21875 
Q 48.046875 74.21875 54.921875 69.40625 
Q 61.8125 64.59375 61.8125 55.328125 
Q 61.8125 49.125 58.421875 44.96875 
Q 55.03125 40.828125 48.390625 38.8125 
Q 55.8125 36.765625 59.59375 32.15625 
Q 63.375 27.546875 63.375 20.515625 
Q 63.375 9.671875 56.171875 4.125 
Q 48.96875 -1.421875 34.8125 -1.421875 
Q 20.609375 -1.421875 13.359375 4.125 
Q 6.109375 9.671875 6.109375 20.515625 
Q 6.109375 27.546875 9.890625 32.15625 
Q 13.671875 36.765625 21.09375 38.8125 
z
M 25.484375 53.421875 
Q 25.484375 49.078125 27.90625 46.734375 
Q 30.328125 44.390625 34.8125 44.390625 
Q 39.203125 44.390625 41.59375 46.734375 
Q 44 49.078125 44 53.421875 
Q 44 57.765625 41.59375 60.078125 
Q 39.203125 62.40625 34.8125 62.40625 
Q 30.328125 62.40625 27.90625 60.0625 
Q 25.484375 57.71875 25.484375 53.421875 
z
" id="DejaVuSans-Bold-56"/>
      </defs>
      <use xlink:href="#DejaVuSans-Bold-56"/>
      <use x="69.580078" xlink:href="#DejaVuSans-Bold-56"/>
     </g>
    </g>
   </g>
   <g id="matplotlib.axis_2"/>
  </g>
 </g>
 <defs>
  <clipPath id="pb41763bf8b">
   <rect height="266.4" width="410.4" x="10.8" y="10.8"/>
  </clipPath>
 </defs>
</svg>
