<?xml version="1.0" encoding="utf-8" standalone="no"?>
<!DOCTYPE svg PUBLIC "-//W3C//DTD SVG 1.1//EN"
  "http://www.w3.org/Graphics/SVG/1.1/DTD/svg11.dtd">
<!-- Created with matplotlib (https://matplotlib.org/) -->
<svg height="288pt" version="1.1" viewBox="0 0 432 288" width="432pt" xmlns="http://www.w3.org/2000/svg" xmlns:xlink="http://www.w3.org/1999/xlink">
 <metadata>
  <rdf:RDF xmlns:cc="http://creativecommons.org/ns#" xmlns:dc="http://purl.org/dc/elements/1.1/" xmlns:rdf="http://www.w3.org/1999/02/22-rdf-syntax-ns#">
   <cc:Work>
    <dc:type rdf:resource="http://purl.org/dc/dcmitype/StillImage"/>
    <dc:date>2021-01-16T13:34:10.870370</dc:date>
    <dc:format>image/svg+xml</dc:format>
    <dc:creator>
     <cc:Agent>
      <dc:title>Matplotlib v3.3.2, https://matplotlib.org/</dc:title>
     </cc:Agent>
    </dc:creator>
   </cc:Work>
  </rdf:RDF>
 </metadata>
 <defs>
  <style type="text/css">*{stroke-linecap:butt;stroke-linejoin:round;}</style>
 </defs>
 <g id="figure_1">
  <g id="patch_1">
   <path d="M 0 288 
L 432 288 
L 432 0 
L 0 0 
z
" style="fill:none;"/>
  </g>
  <g id="axes_1">
   <g id="patch_2">
    <path d="M 280.786801 41.702053 
C 271.159262 35.595425 260.714855 30.882061 249.765004 27.702498 
C 238.815153 24.522935 227.469781 22.909094 216.067174 22.909094 
L 216.067174 143.630543 
L 280.786801 41.702053 
z
" style="fill:#008000;"/>
   </g>
   <g id="patch_3">
    <path d="M 216.067197 22.909094 
C 201.64132 22.909091 187.331426 25.492163 173.816905 30.535675 
C 160.302383 35.579187 147.800547 43.002037 136.904942 52.451815 
C 126.009338 61.901592 116.895168 73.226343 109.995144 85.888404 
C 103.095119 98.550466 98.520192 112.346232 96.487566 126.620724 
C 94.45494 140.895216 94.9973 155.4189 98.088895 169.502238 
C 101.180491 183.585576 106.771609 197.002107 114.596803 209.114858 
C 122.421996 221.227609 132.355435 231.841806 143.925511 240.453522 
C 155.495588 249.065238 168.516255 255.535996 182.369333 259.558584 
C 196.222411 263.581173 210.685142 265.090909 225.070883 264.016116 
C 239.456624 262.941322 253.534051 259.299282 266.634813 253.262907 
C 279.735575 247.226531 291.649012 238.892887 301.809512 228.657627 
C 311.970012 218.422368 320.214194 206.450076 326.15065 193.309159 
C 332.087106 180.168242 335.620379 166.070006 336.582719 151.683788 
C 337.54506 137.297571 335.920994 122.854704 331.787626 109.040888 
C 327.654259 95.227072 321.078055 82.264434 312.371232 70.768398 
C 303.664408 59.272361 292.966971 49.427784 280.786801 41.702053 
L 216.067174 143.630543 
L 216.067197 22.909094 
z
" style="fill:#ffffff;"/>
   </g>
   <g id="patch_4">
    <path clip-path="url(#p77caae3289)" d="M 216.067174 252.279847 
C 244.896379 252.279847 272.548696 240.831871 292.934022 220.457202 
C 313.319348 200.082534 324.773313 172.444675 324.773313 143.630543 
C 324.773313 114.81641 313.319348 87.178551 292.934022 66.803883 
C 272.548696 46.429215 244.896379 34.981239 216.067174 34.981239 
C 187.237969 34.981239 159.585652 46.429215 139.200326 66.803883 
C 118.815 87.178551 107.361035 114.81641 107.361035 143.630543 
C 107.361035 172.444675 118.815 200.082534 139.200326 220.457202 
C 159.585652 240.831871 187.237969 252.279847 216.067174 252.279847 
z
" style="fill:#ffffff;stroke:#ffffff;stroke-linejoin:miter;"/>
   </g>
   <g id="matplotlib.axis_1">
    <g id="text_1">
     <!-- 9 -->
     <g transform="translate(181.210938 178.184375)scale(1 -1)">
      <defs>
       <path d="M 10.015625 1.609375 
L 10.015625 15.09375 
Q 14.5 12.984375 18.59375 11.9375 
Q 22.703125 10.890625 26.703125 10.890625 
Q 35.109375 10.890625 39.796875 15.546875 
Q 44.484375 20.21875 45.3125 29.390625 
Q 42 26.953125 38.234375 25.734375 
Q 34.46875 24.515625 30.078125 24.515625 
Q 18.890625 24.515625 12.03125 31.03125 
Q 5.171875 37.546875 5.171875 48.1875 
Q 5.171875 59.96875 12.8125 67.046875 
Q 20.453125 74.125 33.296875 74.125 
Q 47.5625 74.125 55.375 64.5 
Q 63.1875 54.890625 63.1875 37.3125 
Q 63.1875 19.234375 54.046875 8.90625 
Q 44.921875 -1.421875 29 -1.421875 
Q 23.875 -1.421875 19.1875 -0.65625 
Q 14.5 0.09375 10.015625 1.609375 
z
M 33.203125 36.71875 
Q 38.140625 36.71875 40.625 39.90625 
Q 43.109375 43.109375 43.109375 49.515625 
Q 43.109375 55.859375 40.625 59.078125 
Q 38.140625 62.3125 33.203125 62.3125 
Q 28.265625 62.3125 25.78125 59.078125 
Q 23.296875 55.859375 23.296875 49.515625 
Q 23.296875 43.109375 25.78125 39.90625 
Q 28.265625 36.71875 33.203125 36.71875 
z
" id="DejaVuSans-Bold-57"/>
      </defs>
      <use xlink:href="#DejaVuSans-Bold-57"/>
     </g>
    </g>
   </g>
   <g id="matplotlib.axis_2"/>
  </g>
 </g>
 <defs>
  <clipPath id="p77caae3289">
   <rect height="266.4" width="410.4" x="10.8" y="10.8"/>
  </clipPath>
 </defs>
</svg>
