<?xml version="1.0" encoding="utf-8" standalone="no"?>
<!DOCTYPE svg PUBLIC "-//W3C//DTD SVG 1.1//EN"
  "http://www.w3.org/Graphics/SVG/1.1/DTD/svg11.dtd">
<!-- Created with matplotlib (https://matplotlib.org/) -->
<svg height="288pt" version="1.1" viewBox="0 0 432 288" width="432pt" xmlns="http://www.w3.org/2000/svg" xmlns:xlink="http://www.w3.org/1999/xlink">
 <metadata>
  <rdf:RDF xmlns:cc="http://creativecommons.org/ns#" xmlns:dc="http://purl.org/dc/elements/1.1/" xmlns:rdf="http://www.w3.org/1999/02/22-rdf-syntax-ns#">
   <cc:Work>
    <dc:type rdf:resource="http://purl.org/dc/dcmitype/StillImage"/>
    <dc:date>2021-01-16T13:34:20.587758</dc:date>
    <dc:format>image/svg+xml</dc:format>
    <dc:creator>
     <cc:Agent>
      <dc:title>Matplotlib v3.3.2, https://matplotlib.org/</dc:title>
     </cc:Agent>
    </dc:creator>
   </cc:Work>
  </rdf:RDF>
 </metadata>
 <defs>
  <style type="text/css">*{stroke-linecap:butt;stroke-linejoin:round;}</style>
 </defs>
 <g id="figure_1">
  <g id="patch_1">
   <path d="M 0 288 
L 432 288 
L 432 0 
L 0 0 
z
" style="fill:none;"/>
  </g>
  <g id="axes_1">
   <g id="patch_2">
    <path d="M 144.972207 45.990788 
C 133.417359 54.38149 123.440752 64.752354 115.505778 76.621677 
C 107.570803 88.491 101.802248 101.672124 98.468048 115.552814 
C 95.133848 129.433503 94.286437 143.795471 95.965176 157.971634 
C 97.643915 172.147797 101.822403 185.915221 108.30656 198.634438 
C 114.790717 211.353655 123.478571 222.824643 133.966592 232.514598 
C 144.454612 242.204554 156.577863 249.961092 169.773247 255.42394 
C 182.96863 260.886788 197.028634 263.970035 211.300202 264.530472 
C 225.57177 265.090909 239.830466 263.119722 253.414006 258.708469 
C 266.997546 254.297216 279.692313 247.515268 290.908664 238.677632 
C 302.125015 229.839996 311.68656 219.085653 319.149186 206.914118 
C 326.611813 194.742584 331.858163 181.345269 334.644555 167.344449 
C 337.430948 153.34363 337.713563 138.959483 335.479275 124.860121 
C 333.244987 110.76076 328.528931 97.167911 321.550159 84.712933 
C 314.571387 72.257955 305.439647 61.136716 294.579089 51.865772 
C 283.71853 42.594829 271.299947 35.319977 257.900154 30.379117 
C 244.500362 25.438258 230.330087 22.909091 216.047508 22.909091 
L 216.047508 143.76637 
L 144.972207 45.990788 
z
" style="fill:#ff0000;"/>
   </g>
   <g id="patch_3">
    <path d="M 216.047491 22.909091 
C 203.358746 22.909093 190.748715 24.905283 178.681002 28.824273 
C 166.613289 32.743262 155.237616 38.536428 144.972207 45.990788 
L 216.047508 143.76637 
L 216.047491 22.909091 
z
" style="fill:#ffffff;"/>
   </g>
   <g id="patch_4">
    <path clip-path="url(#p9ad99641c9)" d="M 216.047508 252.53792 
C 244.90915 252.53792 272.59258 241.077064 293.000843 220.679471 
C 313.409106 200.281878 324.875958 172.612922 324.875958 143.76637 
C 324.875958 114.919817 313.409106 87.250861 293.000843 66.853268 
C 272.59258 46.455676 244.90915 34.994819 216.047508 34.994819 
C 187.185866 34.994819 159.502436 46.455676 139.094173 66.853268 
C 118.68591 87.250861 107.219058 114.919817 107.219058 143.76637 
C 107.219058 172.612922 118.68591 200.281878 139.094173 220.679471 
C 159.502436 241.077064 187.185866 252.53792 216.047508 252.53792 
z
" style="fill:#ffffff;stroke:#ffffff;stroke-linejoin:miter;"/>
   </g>
   <g id="matplotlib.axis_1">
    <g id="text_1">
     <!-- 90 -->
     <g transform="translate(146.421875 178.184375)scale(1 -1)">
      <defs>
       <path d="M 10.015625 1.609375 
L 10.015625 15.09375 
Q 14.5 12.984375 18.59375 11.9375 
Q 22.703125 10.890625 26.703125 10.890625 
Q 35.109375 10.890625 39.796875 15.546875 
Q 44.484375 20.21875 45.3125 29.390625 
Q 42 26.953125 38.234375 25.734375 
Q 34.46875 24.515625 30.078125 24.515625 
Q 18.890625 24.515625 12.03125 31.03125 
Q 5.171875 37.546875 5.171875 48.1875 
Q 5.171875 59.96875 12.8125 67.046875 
Q 20.453125 74.125 33.296875 74.125 
Q 47.5625 74.125 55.375 64.5 
Q 63.1875 54.890625 63.1875 37.3125 
Q 63.1875 19.234375 54.046875 8.90625 
Q 44.921875 -1.421875 29 -1.421875 
Q 23.875 -1.421875 19.1875 -0.65625 
Q 14.5 0.09375 10.015625 1.609375 
z
M 33.203125 36.71875 
Q 38.140625 36.71875 40.625 39.90625 
Q 43.109375 43.109375 43.109375 49.515625 
Q 43.109375 55.859375 40.625 59.078125 
Q 38.140625 62.3125 33.203125 62.3125 
Q 28.265625 62.3125 25.78125 59.078125 
Q 23.296875 55.859375 23.296875 49.515625 
Q 23.296875 43.109375 25.78125 39.90625 
Q 28.265625 36.71875 33.203125 36.71875 
z
" id="DejaVuSans-Bold-57"/>
       <path d="M 46 36.53125 
Q 46 50.203125 43.4375 55.78125 
Q 40.875 61.375 34.8125 61.375 
Q 28.765625 61.375 26.171875 55.78125 
Q 23.578125 50.203125 23.578125 36.53125 
Q 23.578125 22.703125 26.171875 17.03125 
Q 28.765625 11.375 34.8125 11.375 
Q 40.828125 11.375 43.40625 17.03125 
Q 46 22.703125 46 36.53125 
z
M 64.796875 36.375 
Q 64.796875 18.265625 56.984375 8.421875 
Q 49.171875 -1.421875 34.8125 -1.421875 
Q 20.40625 -1.421875 12.59375 8.421875 
Q 4.78125 18.265625 4.78125 36.375 
Q 4.78125 54.546875 12.59375 64.375 
Q 20.40625 74.21875 34.8125 74.21875 
Q 49.171875 74.21875 56.984375 64.375 
Q 64.796875 54.546875 64.796875 36.375 
z
" id="DejaVuSans-Bold-48"/>
      </defs>
      <use xlink:href="#DejaVuSans-Bold-57"/>
      <use x="69.580078" xlink:href="#DejaVuSans-Bold-48"/>
     </g>
    </g>
   </g>
   <g id="matplotlib.axis_2"/>
  </g>
 </g>
 <defs>
  <clipPath id="p9ad99641c9">
   <rect height="266.4" width="410.4" x="10.8" y="10.8"/>
  </clipPath>
 </defs>
</svg>
