<?xml version="1.0" encoding="utf-8" standalone="no"?>
<!DOCTYPE svg PUBLIC "-//W3C//DTD SVG 1.1//EN"
  "http://www.w3.org/Graphics/SVG/1.1/DTD/svg11.dtd">
<!-- Created with matplotlib (https://matplotlib.org/) -->
<svg height="288pt" version="1.1" viewBox="0 0 432 288" width="432pt" xmlns="http://www.w3.org/2000/svg" xmlns:xlink="http://www.w3.org/1999/xlink">
 <metadata>
  <rdf:RDF xmlns:cc="http://creativecommons.org/ns#" xmlns:dc="http://purl.org/dc/elements/1.1/" xmlns:rdf="http://www.w3.org/1999/02/22-rdf-syntax-ns#">
   <cc:Work>
    <dc:type rdf:resource="http://purl.org/dc/dcmitype/StillImage"/>
    <dc:date>2021-01-16T13:34:20.719103</dc:date>
    <dc:format>image/svg+xml</dc:format>
    <dc:creator>
     <cc:Agent>
      <dc:title>Matplotlib v3.3.2, https://matplotlib.org/</dc:title>
     </cc:Agent>
    </dc:creator>
   </cc:Work>
  </rdf:RDF>
 </metadata>
 <defs>
  <style type="text/css">*{stroke-linecap:butt;stroke-linejoin:round;}</style>
 </defs>
 <g id="figure_1">
  <g id="patch_1">
   <path d="M 0 288 
L 432 288 
L 432 0 
L 0 0 
z
" style="fill:none;"/>
  </g>
  <g id="axes_1">
   <g id="patch_2">
    <path d="M 151.213218 41.702041 
C 139.033046 49.427769 128.335607 59.272344 119.628781 70.768379 
C 110.921956 82.264414 104.34575 95.227051 100.21238 109.040866 
C 96.07901 122.854681 94.454941 137.297548 95.417279 151.683765 
C 96.379616 166.069982 99.912886 180.168219 105.84934 193.309138 
C 111.785794 206.450056 120.029973 218.422349 130.190471 228.65761 
C 140.350969 238.892872 152.264404 247.226519 165.365166 253.262896 
C 178.465927 259.299274 192.543353 262.941317 206.929093 264.016113 
C 221.314834 265.090909 235.777565 263.581176 249.630644 259.55859 
C 263.483723 255.536004 276.504391 249.065248 288.074469 240.453535 
C 299.644548 231.841821 309.577988 221.227626 317.403184 209.114876 
C 325.228379 197.002127 330.819501 183.585597 333.911099 169.502259 
C 337.002697 155.418922 337.545059 140.895238 335.512436 126.620746 
C 333.479813 112.346253 328.904889 98.550486 322.004866 85.888423 
C 315.104844 73.22636 305.990676 61.901608 295.095074 52.451829 
C 284.199471 43.00205 271.697636 35.579196 258.183116 30.535682 
C 244.668595 25.492168 230.358702 22.909093 215.932825 22.909093 
L 215.932825 143.630542 
L 151.213218 41.702041 
z
" style="fill:#ff0000;"/>
   </g>
   <g id="patch_3">
    <path d="M 215.932848 22.909093 
C 204.530241 22.909091 193.184869 24.52293 182.235017 27.702491 
C 171.285165 30.882052 160.840758 35.595415 151.213218 41.702041 
L 215.932825 143.630542 
L 215.932848 22.909093 
z
" style="fill:#ffffff;"/>
   </g>
   <g id="patch_4">
    <path clip-path="url(#pb33d54e756)" d="M 215.932825 252.279846 
C 244.76203 252.279846 272.414347 240.83187 292.799673 220.457201 
C 313.184999 200.082533 324.638964 172.444674 324.638964 143.630542 
C 324.638964 114.81641 313.184999 87.178551 292.799673 66.803882 
C 272.414347 46.429214 244.76203 34.981238 215.932825 34.981238 
C 187.10362 34.981238 159.451304 46.429214 139.065977 66.803882 
C 118.680651 87.178551 107.226686 114.81641 107.226686 143.630542 
C 107.226686 172.444674 118.680651 200.082533 139.065977 220.457201 
C 159.451304 240.83187 187.10362 252.279846 215.932825 252.279846 
z
" style="fill:#ffffff;stroke:#ffffff;stroke-linejoin:miter;"/>
   </g>
   <g id="matplotlib.axis_1">
    <g id="text_1">
     <!-- 91 -->
     <g transform="translate(146.421875 178.184375)scale(1 -1)">
      <defs>
       <path d="M 10.015625 1.609375 
L 10.015625 15.09375 
Q 14.5 12.984375 18.59375 11.9375 
Q 22.703125 10.890625 26.703125 10.890625 
Q 35.109375 10.890625 39.796875 15.546875 
Q 44.484375 20.21875 45.3125 29.390625 
Q 42 26.953125 38.234375 25.734375 
Q 34.46875 24.515625 30.078125 24.515625 
Q 18.890625 24.515625 12.03125 31.03125 
Q 5.171875 37.546875 5.171875 48.1875 
Q 5.171875 59.96875 12.8125 67.046875 
Q 20.453125 74.125 33.296875 74.125 
Q 47.5625 74.125 55.375 64.5 
Q 63.1875 54.890625 63.1875 37.3125 
Q 63.1875 19.234375 54.046875 8.90625 
Q 44.921875 -1.421875 29 -1.421875 
Q 23.875 -1.421875 19.1875 -0.65625 
Q 14.5 0.09375 10.015625 1.609375 
z
M 33.203125 36.71875 
Q 38.140625 36.71875 40.625 39.90625 
Q 43.109375 43.109375 43.109375 49.515625 
Q 43.109375 55.859375 40.625 59.078125 
Q 38.140625 62.3125 33.203125 62.3125 
Q 28.265625 62.3125 25.78125 59.078125 
Q 23.296875 55.859375 23.296875 49.515625 
Q 23.296875 43.109375 25.78125 39.90625 
Q 28.265625 36.71875 33.203125 36.71875 
z
" id="DejaVuSans-Bold-57"/>
       <path d="M 11.71875 12.984375 
L 28.328125 12.984375 
L 28.328125 60.109375 
L 11.28125 56.59375 
L 11.28125 69.390625 
L 28.21875 72.90625 
L 46.09375 72.90625 
L 46.09375 12.984375 
L 62.703125 12.984375 
L 62.703125 0 
L 11.71875 0 
z
" id="DejaVuSans-Bold-49"/>
      </defs>
      <use xlink:href="#DejaVuSans-Bold-57"/>
      <use x="69.580078" xlink:href="#DejaVuSans-Bold-49"/>
     </g>
    </g>
   </g>
   <g id="matplotlib.axis_2"/>
  </g>
 </g>
 <defs>
  <clipPath id="pb33d54e756">
   <rect height="266.4" width="410.4" x="10.8" y="10.8"/>
  </clipPath>
 </defs>
</svg>
