<?xml version="1.0" encoding="utf-8" standalone="no"?>
<!DOCTYPE svg PUBLIC "-//W3C//DTD SVG 1.1//EN"
  "http://www.w3.org/Graphics/SVG/1.1/DTD/svg11.dtd">
<!-- Created with matplotlib (https://matplotlib.org/) -->
<svg height="288pt" version="1.1" viewBox="0 0 432 288" width="432pt" xmlns="http://www.w3.org/2000/svg" xmlns:xlink="http://www.w3.org/1999/xlink">
 <metadata>
  <rdf:RDF xmlns:cc="http://creativecommons.org/ns#" xmlns:dc="http://purl.org/dc/elements/1.1/" xmlns:rdf="http://www.w3.org/1999/02/22-rdf-syntax-ns#">
   <cc:Work>
    <dc:type rdf:resource="http://purl.org/dc/dcmitype/StillImage"/>
    <dc:date>2021-01-16T13:34:20.827969</dc:date>
    <dc:format>image/svg+xml</dc:format>
    <dc:creator>
     <cc:Agent>
      <dc:title>Matplotlib v3.3.2, https://matplotlib.org/</dc:title>
     </cc:Agent>
    </dc:creator>
   </cc:Work>
  </rdf:RDF>
 </metadata>
 <defs>
  <style type="text/css">*{stroke-linecap:butt;stroke-linejoin:round;}</style>
 </defs>
 <g id="figure_1">
  <g id="patch_1">
   <path d="M 0 288 
L 432 288 
L 432 0 
L 0 0 
z
" style="fill:none;"/>
  </g>
  <g id="axes_1">
   <g id="patch_2">
    <path d="M 157.512693 37.833406 
C 144.738484 44.852414 133.341295 54.126332 123.874078 65.205221 
C 114.406861 76.28411 107.02524 88.985855 102.087346 102.694209 
C 97.149451 116.402563 94.736454 130.892187 94.965423 145.460094 
C 95.194392 160.028001 98.061565 174.434722 103.427836 187.981291 
C 108.794106 201.52786 116.571263 213.991597 126.381985 224.767804 
C 136.192707 235.544011 147.875724 244.455548 160.864216 251.070056 
C 173.852708 257.684564 187.933169 261.893314 202.422461 263.492112 
C 216.911754 265.090909 231.571702 264.053473 245.691055 260.430135 
C 259.810407 256.806798 273.157069 250.65712 285.083504 242.279464 
C 297.00994 233.901808 307.320101 223.433887 315.513774 211.383567 
C 323.707447 199.333248 329.649943 185.898616 333.052953 171.731474 
C 336.455963 157.564332 337.263546 142.89756 335.436523 128.442743 
C 333.6095 113.987925 329.177903 99.98267 322.356738 87.106466 
C 315.535573 74.230262 306.436967 62.694768 295.502354 53.05965 
C 284.56774 43.424532 271.976864 35.84817 258.340592 30.698146 
C 244.704319 25.548122 230.246805 22.909092 215.669479 22.909092 
L 215.669479 143.564925 
L 157.512693 37.833406 
z
" style="fill:#ff0000;"/>
   </g>
   <g id="patch_3">
    <path d="M 215.66949 22.909092 
C 205.542874 22.909091 195.45638 24.182644 185.647909 26.699714 
C 175.839438 29.216783 166.386716 32.957423 157.512693 37.833406 
L 215.669479 143.564925 
L 215.66949 22.909092 
z
" style="fill:#ffffff;"/>
   </g>
   <g id="patch_4">
    <path clip-path="url(#p445eb9a4b7)" d="M 215.669479 252.155175 
C 244.483015 252.155175 272.120301 240.713421 292.494548 220.349827 
C 312.868794 199.986233 324.316533 172.363396 324.316533 143.564925 
C 324.316533 114.766454 312.868794 87.143617 292.494548 66.780023 
C 272.120301 46.416429 244.483015 34.974675 215.669479 34.974675 
C 186.855944 34.974675 159.218657 46.416429 138.844411 66.780023 
C 118.470164 87.143617 107.022425 114.766454 107.022425 143.564925 
C 107.022425 172.363396 118.470164 199.986233 138.844411 220.349827 
C 159.218657 240.713421 186.855944 252.155175 215.669479 252.155175 
z
" style="fill:#ffffff;stroke:#ffffff;stroke-linejoin:miter;"/>
   </g>
   <g id="matplotlib.axis_1">
    <g id="text_1">
     <!-- 92 -->
     <g transform="translate(146.421875 178.184375)scale(1 -1)">
      <defs>
       <path d="M 10.015625 1.609375 
L 10.015625 15.09375 
Q 14.5 12.984375 18.59375 11.9375 
Q 22.703125 10.890625 26.703125 10.890625 
Q 35.109375 10.890625 39.796875 15.546875 
Q 44.484375 20.21875 45.3125 29.390625 
Q 42 26.953125 38.234375 25.734375 
Q 34.46875 24.515625 30.078125 24.515625 
Q 18.890625 24.515625 12.03125 31.03125 
Q 5.171875 37.546875 5.171875 48.1875 
Q 5.171875 59.96875 12.8125 67.046875 
Q 20.453125 74.125 33.296875 74.125 
Q 47.5625 74.125 55.375 64.5 
Q 63.1875 54.890625 63.1875 37.3125 
Q 63.1875 19.234375 54.046875 8.90625 
Q 44.921875 -1.421875 29 -1.421875 
Q 23.875 -1.421875 19.1875 -0.65625 
Q 14.5 0.09375 10.015625 1.609375 
z
M 33.203125 36.71875 
Q 38.140625 36.71875 40.625 39.90625 
Q 43.109375 43.109375 43.109375 49.515625 
Q 43.109375 55.859375 40.625 59.078125 
Q 38.140625 62.3125 33.203125 62.3125 
Q 28.265625 62.3125 25.78125 59.078125 
Q 23.296875 55.859375 23.296875 49.515625 
Q 23.296875 43.109375 25.78125 39.90625 
Q 28.265625 36.71875 33.203125 36.71875 
z
" id="DejaVuSans-Bold-57"/>
       <path d="M 28.8125 13.8125 
L 60.890625 13.8125 
L 60.890625 0 
L 7.90625 0 
L 7.90625 13.8125 
L 34.515625 37.3125 
Q 38.09375 40.53125 39.796875 43.609375 
Q 41.5 46.6875 41.5 50 
Q 41.5 55.125 38.0625 58.25 
Q 34.625 61.375 28.90625 61.375 
Q 24.515625 61.375 19.28125 59.5 
Q 14.0625 57.625 8.109375 53.90625 
L 8.109375 69.921875 
Q 14.453125 72.015625 20.65625 73.109375 
Q 26.859375 74.21875 32.8125 74.21875 
Q 45.90625 74.21875 53.15625 68.453125 
Q 60.40625 62.703125 60.40625 52.390625 
Q 60.40625 46.4375 57.328125 41.28125 
Q 54.25 36.140625 44.390625 27.484375 
z
" id="DejaVuSans-Bold-50"/>
      </defs>
      <use xlink:href="#DejaVuSans-Bold-57"/>
      <use x="69.580078" xlink:href="#DejaVuSans-Bold-50"/>
     </g>
    </g>
   </g>
   <g id="matplotlib.axis_2"/>
  </g>
 </g>
 <defs>
  <clipPath id="p445eb9a4b7">
   <rect height="266.4" width="410.4" x="10.8" y="10.8"/>
  </clipPath>
 </defs>
</svg>
