<?xml version="1.0" encoding="utf-8" standalone="no"?>
<!DOCTYPE svg PUBLIC "-//W3C//DTD SVG 1.1//EN"
  "http://www.w3.org/Graphics/SVG/1.1/DTD/svg11.dtd">
<!-- Created with matplotlib (https://matplotlib.org/) -->
<svg height="288pt" version="1.1" viewBox="0 0 432 288" width="432pt" xmlns="http://www.w3.org/2000/svg" xmlns:xlink="http://www.w3.org/1999/xlink">
 <metadata>
  <rdf:RDF xmlns:cc="http://creativecommons.org/ns#" xmlns:dc="http://purl.org/dc/elements/1.1/" xmlns:rdf="http://www.w3.org/1999/02/22-rdf-syntax-ns#">
   <cc:Work>
    <dc:type rdf:resource="http://purl.org/dc/dcmitype/StillImage"/>
    <dc:date>2021-01-16T13:34:21.045477</dc:date>
    <dc:format>image/svg+xml</dc:format>
    <dc:creator>
     <cc:Agent>
      <dc:title>Matplotlib v3.3.2, https://matplotlib.org/</dc:title>
     </cc:Agent>
    </dc:creator>
   </cc:Work>
  </rdf:RDF>
 </metadata>
 <defs>
  <style type="text/css">*{stroke-linecap:butt;stroke-linejoin:round;}</style>
 </defs>
 <g id="figure_1">
  <g id="patch_1">
   <path d="M 0 288 
L 432 288 
L 432 0 
L 0 0 
z
" style="fill:none;"/>
  </g>
  <g id="axes_1">
   <g id="patch_2">
    <path d="M 171.515766 31.387519 
C 157.656752 36.871822 144.932318 44.87289 133.986692 54.985632 
C 123.041066 65.098375 114.062143 77.149196 107.504521 90.52797 
C 100.946899 103.906744 96.923147 118.383809 95.636984 133.2262 
C 94.350822 148.06859 95.824327 163.02152 99.982898 177.327932 
C 104.14147 191.634343 110.91372 205.04865 119.956774 216.891695 
C 128.999828 228.734739 140.158452 238.803222 152.867691 246.587382 
C 165.57693 254.371541 179.618616 259.737754 194.281826 262.414332 
C 208.945037 265.090909 223.978062 265.031905 238.619787 262.240307 
C 253.261513 259.448708 267.260598 253.972437 279.908277 246.088752 
C 292.555956 238.205067 303.635117 228.049302 312.58483 216.135636 
C 321.534542 204.221971 328.201173 190.754916 332.247196 176.416302 
C 336.293219 162.077688 337.649178 147.113652 336.246423 132.281816 
C 334.843669 117.449979 330.706279 103.004946 324.043729 89.678061 
C 317.381178 76.351176 308.307837 64.371209 297.283082 54.3447 
C 286.258328 44.31819 273.471413 36.417254 259.569731 31.04191 
C 245.668049 25.666567 230.890239 22.909091 215.984491 22.909091 
L 215.984491 143.643972 
L 171.515766 31.387519 
z
" style="fill:#ff0000;"/>
   </g>
   <g id="patch_3">
    <path d="M 215.984489 22.909091 
C 208.38891 22.909091 200.810234 23.625113 193.349194 25.047638 
C 185.888154 26.470163 178.577956 28.592862 171.515766 31.387519 
L 215.984491 143.643972 
L 215.984489 22.909091 
z
" style="fill:#ffffff;"/>
   </g>
   <g id="patch_4">
    <path clip-path="url(#pc208c7fe13)" d="M 215.984491 252.305365 
C 244.816904 252.305365 272.472298 240.856115 292.859892 220.47918 
C 313.247487 200.102245 324.702726 172.46131 324.702726 143.643972 
C 324.702726 114.826634 313.247487 87.1857 292.859892 66.808764 
C 272.472298 46.431829 244.816904 34.982579 215.984491 34.982579 
C 187.152079 34.982579 159.496685 46.431829 139.109091 66.808764 
C 118.721496 87.1857 107.266257 114.826634 107.266257 143.643972 
C 107.266257 172.46131 118.721496 200.102245 139.109091 220.47918 
C 159.496685 240.856115 187.152079 252.305365 215.984491 252.305365 
z
" style="fill:#ffffff;stroke:#ffffff;stroke-linejoin:miter;"/>
   </g>
   <g id="matplotlib.axis_1">
    <g id="text_1">
     <!-- 94 -->
     <g transform="translate(146.421875 178.184375)scale(1 -1)">
      <defs>
       <path d="M 10.015625 1.609375 
L 10.015625 15.09375 
Q 14.5 12.984375 18.59375 11.9375 
Q 22.703125 10.890625 26.703125 10.890625 
Q 35.109375 10.890625 39.796875 15.546875 
Q 44.484375 20.21875 45.3125 29.390625 
Q 42 26.953125 38.234375 25.734375 
Q 34.46875 24.515625 30.078125 24.515625 
Q 18.890625 24.515625 12.03125 31.03125 
Q 5.171875 37.546875 5.171875 48.1875 
Q 5.171875 59.96875 12.8125 67.046875 
Q 20.453125 74.125 33.296875 74.125 
Q 47.5625 74.125 55.375 64.5 
Q 63.1875 54.890625 63.1875 37.3125 
Q 63.1875 19.234375 54.046875 8.90625 
Q 44.921875 -1.421875 29 -1.421875 
Q 23.875 -1.421875 19.1875 -0.65625 
Q 14.5 0.09375 10.015625 1.609375 
z
M 33.203125 36.71875 
Q 38.140625 36.71875 40.625 39.90625 
Q 43.109375 43.109375 43.109375 49.515625 
Q 43.109375 55.859375 40.625 59.078125 
Q 38.140625 62.3125 33.203125 62.3125 
Q 28.265625 62.3125 25.78125 59.078125 
Q 23.296875 55.859375 23.296875 49.515625 
Q 23.296875 43.109375 25.78125 39.90625 
Q 28.265625 36.71875 33.203125 36.71875 
z
" id="DejaVuSans-Bold-57"/>
       <path d="M 36.8125 57.421875 
L 16.21875 26.90625 
L 36.8125 26.90625 
z
M 33.6875 72.90625 
L 54.59375 72.90625 
L 54.59375 26.90625 
L 64.984375 26.90625 
L 64.984375 13.28125 
L 54.59375 13.28125 
L 54.59375 0 
L 36.8125 0 
L 36.8125 13.28125 
L 4.5 13.28125 
L 4.5 29.390625 
z
" id="DejaVuSans-Bold-52"/>
      </defs>
      <use xlink:href="#DejaVuSans-Bold-57"/>
      <use x="69.580078" xlink:href="#DejaVuSans-Bold-52"/>
     </g>
    </g>
   </g>
   <g id="matplotlib.axis_2"/>
  </g>
 </g>
 <defs>
  <clipPath id="pc208c7fe13">
   <rect height="266.4" width="410.4" x="10.8" y="10.8"/>
  </clipPath>
 </defs>
</svg>
