<?xml version="1.0" encoding="utf-8" standalone="no"?>
<!DOCTYPE svg PUBLIC "-//W3C//DTD SVG 1.1//EN"
  "http://www.w3.org/Graphics/SVG/1.1/DTD/svg11.dtd">
<!-- Created with matplotlib (https://matplotlib.org/) -->
<svg height="288pt" version="1.1" viewBox="0 0 432 288" width="432pt" xmlns="http://www.w3.org/2000/svg" xmlns:xlink="http://www.w3.org/1999/xlink">
 <metadata>
  <rdf:RDF xmlns:cc="http://creativecommons.org/ns#" xmlns:dc="http://purl.org/dc/elements/1.1/" xmlns:rdf="http://www.w3.org/1999/02/22-rdf-syntax-ns#">
   <cc:Work>
    <dc:type rdf:resource="http://purl.org/dc/dcmitype/StillImage"/>
    <dc:date>2021-01-16T13:34:21.248872</dc:date>
    <dc:format>image/svg+xml</dc:format>
    <dc:creator>
     <cc:Agent>
      <dc:title>Matplotlib v3.3.2, https://matplotlib.org/</dc:title>
     </cc:Agent>
    </dc:creator>
   </cc:Work>
  </rdf:RDF>
 </metadata>
 <defs>
  <style type="text/css">*{stroke-linecap:butt;stroke-linejoin:round;}</style>
 </defs>
 <g id="figure_1">
  <g id="patch_1">
   <path d="M 0 288 
L 432 288 
L 432 0 
L 0 0 
z
" style="fill:none;"/>
  </g>
  <g id="axes_1">
   <g id="patch_2">
    <path d="M 178.753135 28.814451 
C 164.434536 33.464415 151.111813 40.750805 139.473781 50.296899 
C 127.835749 59.842993 118.086494 71.481389 110.730074 84.610356 
C 103.373654 97.739323 98.539073 112.128629 96.476289 127.034315 
C 94.413506 141.940002 95.158692 157.100679 98.673322 171.732508 
C 102.187952 186.364336 108.410391 200.210729 117.018926 212.555797 
C 125.627461 224.900865 136.471131 235.528123 148.989294 243.888118 
C 161.507458 252.248114 175.480593 258.194244 190.186259 261.41908 
C 204.891925 264.643917 220.07224 265.090909 234.942349 262.736946 
C 249.812457 260.382983 264.111594 255.269345 277.100462 247.660417 
C 290.089331 240.051489 301.540155 230.080704 310.860903 218.263572 
C 320.181651 206.446441 327.208871 192.990191 331.579242 178.59054 
C 335.949613 164.19089 337.586494 149.100354 336.405256 134.099145 
C 335.224017 119.097937 331.245373 104.449121 324.675028 90.910074 
C 318.104683 77.371026 309.057857 65.17917 298.002289 54.964851 
C 286.946721 44.750533 274.076285 36.692872 260.056409 31.208468 
C 246.036534 25.724063 231.113076 22.909091 216.057609 22.909091 
L 216.057609 143.565761 
L 178.753135 28.814451 
z
" style="fill:#ff0000;"/>
   </g>
   <g id="patch_3">
    <path d="M 216.057601 22.909091 
C 209.73348 22.909091 203.419125 23.405782 197.172865 24.394576 
C 190.926605 25.38337 184.767731 26.861212 178.753135 28.814451 
L 216.057609 143.565761 
L 216.057601 22.909091 
z
" style="fill:#ffffff;"/>
   </g>
   <g id="patch_4">
    <path clip-path="url(#pea2023a8ec)" d="M 216.057609 252.156764 
C 244.871344 252.156764 272.508823 240.71493 292.88321 220.351195 
C 313.257598 199.98746 324.705416 172.364431 324.705416 143.565761 
C 324.705416 114.76709 313.257598 87.144062 292.88321 66.780326 
C 272.508823 46.416591 244.871344 34.974758 216.057609 34.974758 
C 187.243874 34.974758 159.606395 46.416591 139.232008 66.780326 
C 118.85762 87.144062 107.409802 114.76709 107.409802 143.565761 
C 107.409802 172.364431 118.85762 199.98746 139.232008 220.351195 
C 159.606395 240.71493 187.243874 252.156764 216.057609 252.156764 
z
" style="fill:#ffffff;stroke:#ffffff;stroke-linejoin:miter;"/>
   </g>
   <g id="matplotlib.axis_1">
    <g id="text_1">
     <!-- 95 -->
     <g transform="translate(146.421875 178.184375)scale(1 -1)">
      <defs>
       <path d="M 10.015625 1.609375 
L 10.015625 15.09375 
Q 14.5 12.984375 18.59375 11.9375 
Q 22.703125 10.890625 26.703125 10.890625 
Q 35.109375 10.890625 39.796875 15.546875 
Q 44.484375 20.21875 45.3125 29.390625 
Q 42 26.953125 38.234375 25.734375 
Q 34.46875 24.515625 30.078125 24.515625 
Q 18.890625 24.515625 12.03125 31.03125 
Q 5.171875 37.546875 5.171875 48.1875 
Q 5.171875 59.96875 12.8125 67.046875 
Q 20.453125 74.125 33.296875 74.125 
Q 47.5625 74.125 55.375 64.5 
Q 63.1875 54.890625 63.1875 37.3125 
Q 63.1875 19.234375 54.046875 8.90625 
Q 44.921875 -1.421875 29 -1.421875 
Q 23.875 -1.421875 19.1875 -0.65625 
Q 14.5 0.09375 10.015625 1.609375 
z
M 33.203125 36.71875 
Q 38.140625 36.71875 40.625 39.90625 
Q 43.109375 43.109375 43.109375 49.515625 
Q 43.109375 55.859375 40.625 59.078125 
Q 38.140625 62.3125 33.203125 62.3125 
Q 28.265625 62.3125 25.78125 59.078125 
Q 23.296875 55.859375 23.296875 49.515625 
Q 23.296875 43.109375 25.78125 39.90625 
Q 28.265625 36.71875 33.203125 36.71875 
z
" id="DejaVuSans-Bold-57"/>
       <path d="M 10.59375 72.90625 
L 57.328125 72.90625 
L 57.328125 59.078125 
L 25.59375 59.078125 
L 25.59375 47.796875 
Q 27.734375 48.390625 29.90625 48.703125 
Q 32.078125 49.03125 34.421875 49.03125 
Q 47.75 49.03125 55.171875 42.359375 
Q 62.59375 35.6875 62.59375 23.78125 
Q 62.59375 11.96875 54.515625 5.265625 
Q 46.4375 -1.421875 32.078125 -1.421875 
Q 25.875 -1.421875 19.796875 -0.21875 
Q 13.71875 0.984375 7.71875 3.421875 
L 7.71875 18.21875 
Q 13.671875 14.796875 19.015625 13.078125 
Q 24.359375 11.375 29.109375 11.375 
Q 35.9375 11.375 39.859375 14.71875 
Q 43.796875 18.0625 43.796875 23.78125 
Q 43.796875 29.546875 39.859375 32.859375 
Q 35.9375 36.1875 29.109375 36.1875 
Q 25.046875 36.1875 20.453125 35.125 
Q 15.875 34.078125 10.59375 31.890625 
z
" id="DejaVuSans-Bold-53"/>
      </defs>
      <use xlink:href="#DejaVuSans-Bold-57"/>
      <use x="69.580078" xlink:href="#DejaVuSans-Bold-53"/>
     </g>
    </g>
   </g>
   <g id="matplotlib.axis_2"/>
  </g>
 </g>
 <defs>
  <clipPath id="pea2023a8ec">
   <rect height="266.4" width="410.4" x="10.8" y="10.8"/>
  </clipPath>
 </defs>
</svg>
