<?xml version="1.0" encoding="utf-8" standalone="no"?>
<!DOCTYPE svg PUBLIC "-//W3C//DTD SVG 1.1//EN"
  "http://www.w3.org/Graphics/SVG/1.1/DTD/svg11.dtd">
<!-- Created with matplotlib (https://matplotlib.org/) -->
<svg height="288pt" version="1.1" viewBox="0 0 432 288" width="432pt" xmlns="http://www.w3.org/2000/svg" xmlns:xlink="http://www.w3.org/1999/xlink">
 <metadata>
  <rdf:RDF xmlns:cc="http://creativecommons.org/ns#" xmlns:dc="http://purl.org/dc/elements/1.1/" xmlns:rdf="http://www.w3.org/1999/02/22-rdf-syntax-ns#">
   <cc:Work>
    <dc:type rdf:resource="http://purl.org/dc/dcmitype/StillImage"/>
    <dc:date>2021-01-16T13:34:21.517665</dc:date>
    <dc:format>image/svg+xml</dc:format>
    <dc:creator>
     <cc:Agent>
      <dc:title>Matplotlib v3.3.2, https://matplotlib.org/</dc:title>
     </cc:Agent>
    </dc:creator>
   </cc:Work>
  </rdf:RDF>
 </metadata>
 <defs>
  <style type="text/css">*{stroke-linecap:butt;stroke-linejoin:round;}</style>
 </defs>
 <g id="figure_1">
  <g id="patch_1">
   <path d="M 0 288 
L 432 288 
L 432 0 
L 0 0 
z
" style="fill:none;"/>
  </g>
  <g id="axes_1">
   <g id="patch_2">
    <path d="M 193.569143 25.045877 
C 178.469787 27.924724 164.058747 33.660213 151.112495 41.943312 
C 138.166243 50.226411 126.921548 60.905635 117.984278 73.405582 
C 109.047008 85.905529 102.580614 99.997593 98.933508 114.922487 
C 95.286402 129.847382 94.525284 145.332152 96.691163 160.542472 
C 98.857043 175.752792 103.910309 190.410487 111.578689 203.725793 
C 119.24707 217.041099 129.390321 228.770498 141.46192 238.282007 
C 153.53352 247.793515 167.312694 254.91318 182.057017 259.257391 
C 196.80134 263.601602 212.241158 265.090909 227.544567 263.645069 
C 242.847976 262.199228 257.735099 257.844682 271.403811 250.816056 
C 285.072523 243.787429 297.272842 234.213265 307.347411 222.609424 
C 317.42198 211.005583 325.186549 197.584283 330.222759 183.068669 
C 335.25897 168.553054 337.474716 153.208596 336.750614 137.862059 
C 336.026512 122.515522 332.375804 107.447574 325.995191 93.470081 
C 319.614578 79.492589 310.620753 66.86118 299.498307 56.256441 
C 288.375861 45.651703 275.328208 37.267579 261.058361 31.555811 
C 246.788514 25.844044 231.557448 22.909092 216.185819 22.909092 
L 216.185819 143.544772 
L 193.569143 25.045877 
z
" style="fill:#ff0000;"/>
   </g>
   <g id="patch_3">
    <path d="M 216.18584 22.909092 
C 212.393274 22.909091 208.602815 23.08775 204.827081 23.444475 
C 201.051347 23.8012 197.294532 24.335593 193.569143 25.045877 
L 216.185819 143.544772 
L 216.18584 22.909092 
z
" style="fill:#ffffff;"/>
   </g>
   <g id="patch_4">
    <path clip-path="url(#pa7b10e3410)" d="M 216.185819 252.116885 
C 244.994542 252.116885 272.627212 240.677042 292.998056 220.316849 
C 313.368899 199.956657 324.814726 172.338433 324.814726 143.544772 
C 324.814726 114.751111 313.368899 87.132888 292.998056 66.772695 
C 272.627212 46.412502 244.994542 34.97266 216.185819 34.97266 
C 187.377096 34.97266 159.744425 46.412502 139.373582 66.772695 
C 119.002739 87.132888 107.556912 114.751111 107.556912 143.544772 
C 107.556912 172.338433 119.002739 199.956657 139.373582 220.316849 
C 159.744425 240.677042 187.377096 252.116885 216.185819 252.116885 
z
" style="fill:#ffffff;stroke:#ffffff;stroke-linejoin:miter;"/>
   </g>
   <g id="matplotlib.axis_1">
    <g id="text_1">
     <!-- 97 -->
     <g transform="translate(146.421875 178.184375)scale(1 -1)">
      <defs>
       <path d="M 10.015625 1.609375 
L 10.015625 15.09375 
Q 14.5 12.984375 18.59375 11.9375 
Q 22.703125 10.890625 26.703125 10.890625 
Q 35.109375 10.890625 39.796875 15.546875 
Q 44.484375 20.21875 45.3125 29.390625 
Q 42 26.953125 38.234375 25.734375 
Q 34.46875 24.515625 30.078125 24.515625 
Q 18.890625 24.515625 12.03125 31.03125 
Q 5.171875 37.546875 5.171875 48.1875 
Q 5.171875 59.96875 12.8125 67.046875 
Q 20.453125 74.125 33.296875 74.125 
Q 47.5625 74.125 55.375 64.5 
Q 63.1875 54.890625 63.1875 37.3125 
Q 63.1875 19.234375 54.046875 8.90625 
Q 44.921875 -1.421875 29 -1.421875 
Q 23.875 -1.421875 19.1875 -0.65625 
Q 14.5 0.09375 10.015625 1.609375 
z
M 33.203125 36.71875 
Q 38.140625 36.71875 40.625 39.90625 
Q 43.109375 43.109375 43.109375 49.515625 
Q 43.109375 55.859375 40.625 59.078125 
Q 38.140625 62.3125 33.203125 62.3125 
Q 28.265625 62.3125 25.78125 59.078125 
Q 23.296875 55.859375 23.296875 49.515625 
Q 23.296875 43.109375 25.78125 39.90625 
Q 28.265625 36.71875 33.203125 36.71875 
z
" id="DejaVuSans-Bold-57"/>
       <path d="M 6.6875 72.90625 
L 61.625 72.90625 
L 61.625 62.3125 
L 33.203125 0 
L 14.890625 0 
L 41.796875 59.078125 
L 6.6875 59.078125 
z
" id="DejaVuSans-Bold-55"/>
      </defs>
      <use xlink:href="#DejaVuSans-Bold-57"/>
      <use x="69.580078" xlink:href="#DejaVuSans-Bold-55"/>
     </g>
    </g>
   </g>
   <g id="matplotlib.axis_2"/>
  </g>
 </g>
 <defs>
  <clipPath id="pa7b10e3410">
   <rect height="266.4" width="410.4" x="10.8" y="10.8"/>
  </clipPath>
 </defs>
</svg>
