<?xml version="1.0" encoding="utf-8" standalone="no"?>
<!DOCTYPE svg PUBLIC "-//W3C//DTD SVG 1.1//EN"
  "http://www.w3.org/Graphics/SVG/1.1/DTD/svg11.dtd">
<!-- Created with matplotlib (https://matplotlib.org/) -->
<svg height="288pt" version="1.1" viewBox="0 0 432 288" width="432pt" xmlns="http://www.w3.org/2000/svg" xmlns:xlink="http://www.w3.org/1999/xlink">
 <metadata>
  <rdf:RDF xmlns:cc="http://creativecommons.org/ns#" xmlns:dc="http://purl.org/dc/elements/1.1/" xmlns:rdf="http://www.w3.org/1999/02/22-rdf-syntax-ns#">
   <cc:Work>
    <dc:type rdf:resource="http://purl.org/dc/dcmitype/StillImage"/>
    <dc:date>2021-01-16T13:34:21.795210</dc:date>
    <dc:format>image/svg+xml</dc:format>
    <dc:creator>
     <cc:Agent>
      <dc:title>Matplotlib v3.3.2, https://matplotlib.org/</dc:title>
     </cc:Agent>
    </dc:creator>
   </cc:Work>
  </rdf:RDF>
 </metadata>
 <defs>
  <style type="text/css">*{stroke-linecap:butt;stroke-linejoin:round;}</style>
 </defs>
 <g id="figure_1">
  <g id="patch_1">
   <path d="M 0 288 
L 432 288 
L 432 0 
L 0 0 
z
" style="fill:none;"/>
  </g>
  <g id="axes_1">
   <g id="patch_2">
    <path d="M 208.593452 23.147608 
C 192.902958 24.134253 177.554465 28.169482 163.409057 35.026909 
C 149.263649 41.884336 136.590898 51.433278 126.101772 63.138019 
C 115.612647 74.84276 107.50704 88.48024 102.239695 103.285367 
C 96.97235 118.090493 94.643646 133.781123 95.384231 149.476976 
C 96.124815 165.172829 99.920573 180.574788 106.558555 194.818768 
C 113.196536 209.062747 122.55024 221.877299 134.094903 232.543497 
C 145.639566 243.209695 159.15518 251.524272 173.883488 257.020763 
C 188.611796 262.517253 204.272119 265.090909 219.985878 264.597343 
C 235.699637 264.103777 251.167372 260.552394 265.52131 254.142436 
C 279.875247 247.732478 292.841842 238.5861 303.693638 227.216433 
C 314.545435 215.846767 323.075629 202.470486 328.805658 187.838029 
C 334.535687 173.205573 337.356354 157.595794 337.109411 141.884435 
C 336.862468 126.173077 333.552623 110.659553 327.365565 96.214207 
C 321.178506 81.768861 312.232142 68.66698 301.028384 57.643608 
C 289.824626 46.620237 276.576985 37.885449 262.028684 31.929285 
C 247.480382 25.973122 231.908669 22.909091 216.187153 22.909091 
L 216.187153 143.783039 
L 208.593452 23.147608 
z
" style="fill:#ff0000;"/>
   </g>
   <g id="patch_3">
    <path d="M 216.18716 22.909091 
C 214.920683 22.909091 213.654284 22.928975 212.388432 22.968735 
C 211.122579 23.008495 209.85743 23.068127 208.593452 23.147608 
L 216.187153 143.783039 
L 216.18716 22.909091 
z
" style="fill:#ffffff;"/>
   </g>
   <g id="patch_4">
    <path clip-path="url(#p7609dda996)" d="M 216.187153 252.569592 
C 245.052776 252.569592 272.740024 241.107155 293.151102 220.706748 
C 313.562179 200.306342 325.030613 172.63357 325.030613 143.783039 
C 325.030613 114.932508 313.562179 87.259736 293.151102 66.859329 
C 272.740024 46.458923 245.052776 34.996486 216.187153 34.996486 
C 187.32153 34.996486 159.634282 46.458923 139.223205 66.859329 
C 118.812127 87.259736 107.343693 114.932508 107.343693 143.783039 
C 107.343693 172.63357 118.812127 200.306342 139.223205 220.706748 
C 159.634282 241.107155 187.32153 252.569592 216.187153 252.569592 
z
" style="fill:#ffffff;stroke:#ffffff;stroke-linejoin:miter;"/>
   </g>
   <g id="matplotlib.axis_1">
    <g id="text_1">
     <!-- 99 -->
     <g transform="translate(146.421875 178.184375)scale(1 -1)">
      <defs>
       <path d="M 10.015625 1.609375 
L 10.015625 15.09375 
Q 14.5 12.984375 18.59375 11.9375 
Q 22.703125 10.890625 26.703125 10.890625 
Q 35.109375 10.890625 39.796875 15.546875 
Q 44.484375 20.21875 45.3125 29.390625 
Q 42 26.953125 38.234375 25.734375 
Q 34.46875 24.515625 30.078125 24.515625 
Q 18.890625 24.515625 12.03125 31.03125 
Q 5.171875 37.546875 5.171875 48.1875 
Q 5.171875 59.96875 12.8125 67.046875 
Q 20.453125 74.125 33.296875 74.125 
Q 47.5625 74.125 55.375 64.5 
Q 63.1875 54.890625 63.1875 37.3125 
Q 63.1875 19.234375 54.046875 8.90625 
Q 44.921875 -1.421875 29 -1.421875 
Q 23.875 -1.421875 19.1875 -0.65625 
Q 14.5 0.09375 10.015625 1.609375 
z
M 33.203125 36.71875 
Q 38.140625 36.71875 40.625 39.90625 
Q 43.109375 43.109375 43.109375 49.515625 
Q 43.109375 55.859375 40.625 59.078125 
Q 38.140625 62.3125 33.203125 62.3125 
Q 28.265625 62.3125 25.78125 59.078125 
Q 23.296875 55.859375 23.296875 49.515625 
Q 23.296875 43.109375 25.78125 39.90625 
Q 28.265625 36.71875 33.203125 36.71875 
z
" id="DejaVuSans-Bold-57"/>
      </defs>
      <use xlink:href="#DejaVuSans-Bold-57"/>
      <use x="69.580078" xlink:href="#DejaVuSans-Bold-57"/>
     </g>
    </g>
   </g>
   <g id="matplotlib.axis_2"/>
  </g>
 </g>
 <defs>
  <clipPath id="p7609dda996">
   <rect height="266.4" width="410.4" x="10.8" y="10.8"/>
  </clipPath>
 </defs>
</svg>
